%TF.GenerationSoftware,KiCad,Pcbnew,8.0.0*%
%TF.CreationDate,2024-03-06T23:01:12+04:00*%
%TF.ProjectId,gbc-cm4-aio-flex,6762632d-636d-4342-9d61-696f2d666c65,rev?*%
%TF.SameCoordinates,Original*%
%TF.FileFunction,Copper,L2,Bot*%
%TF.FilePolarity,Positive*%
%FSLAX46Y46*%
G04 Gerber Fmt 4.6, Leading zero omitted, Abs format (unit mm)*
G04 Created by KiCad (PCBNEW 8.0.0) date 2024-03-06 23:01:12*
%MOMM*%
%LPD*%
G01*
G04 APERTURE LIST*
%TA.AperFunction,ViaPad*%
%ADD10C,0.500000*%
%TD*%
%TA.AperFunction,Conductor*%
%ADD11C,0.200000*%
%TD*%
%TA.AperFunction,Conductor*%
%ADD12C,0.150000*%
%TD*%
%TA.AperFunction,Conductor*%
%ADD13C,0.350000*%
%TD*%
%TA.AperFunction,Conductor*%
%ADD14C,0.250000*%
%TD*%
G04 APERTURE END LIST*
D10*
%TO.N,GND*%
X167940000Y-122940000D03*
X166750000Y-121510000D03*
X166720000Y-122720000D03*
X166750000Y-123960000D03*
X166710000Y-125190000D03*
X166700000Y-126570000D03*
X166440000Y-128030000D03*
X165750000Y-128770000D03*
X165050000Y-129570000D03*
X164290000Y-130240000D03*
X163580000Y-131000000D03*
X162870000Y-131720000D03*
X162140000Y-132610000D03*
X161330000Y-133410000D03*
X160100000Y-133840000D03*
X158840000Y-133850000D03*
X153250000Y-142140000D03*
X153890000Y-141540000D03*
X153890000Y-140400000D03*
X153840000Y-139230000D03*
X153820000Y-138250000D03*
X153240000Y-137620000D03*
X147100000Y-122760000D03*
X146530000Y-123870000D03*
X145380000Y-123920000D03*
X144270000Y-124240000D03*
X143460000Y-125000000D03*
X142690000Y-125740000D03*
X142120000Y-126600000D03*
X142090000Y-127940000D03*
X142000000Y-129020000D03*
X142000000Y-130040000D03*
X142000000Y-130950000D03*
X141990000Y-131900000D03*
X142010000Y-132740000D03*
X142050000Y-133710000D03*
X142050000Y-135070000D03*
X142050000Y-136040000D03*
X142070000Y-137090000D03*
X142040000Y-137990000D03*
X142150000Y-138960000D03*
X142130000Y-139930000D03*
X142020000Y-140980000D03*
X152450000Y-142180000D03*
X151320000Y-142210000D03*
X150340000Y-142210000D03*
X150640000Y-143380000D03*
X150120000Y-144190000D03*
X149320000Y-144680000D03*
X148030000Y-144500000D03*
X146970000Y-144790000D03*
X145910000Y-144590000D03*
X145130000Y-144880000D03*
X143980000Y-144900000D03*
X143030000Y-144630000D03*
X142320000Y-144080000D03*
X141750000Y-143320000D03*
X141640000Y-142530000D03*
X142070000Y-141910000D03*
%TO.N,Net-(J3-Pin_18)*%
X144360000Y-123210000D03*
X157750000Y-118560000D03*
%TO.N,+5V*%
X148100000Y-121780000D03*
%TO.N,/RESET*%
X148940000Y-137580000D03*
X148950000Y-134410000D03*
%TO.N,+1V8*%
X151850000Y-121770000D03*
X150640000Y-137670000D03*
%TO.N,+5V*%
X151430000Y-137590000D03*
%TO.N,+1V8*%
X152180000Y-137670000D03*
%TO.N,-5V*%
X152030000Y-136380000D03*
X150600000Y-121770000D03*
%TO.N,/PWM*%
X158100000Y-121820000D03*
X158100000Y-137050000D03*
%TO.N,/LCD_A*%
X155860000Y-121820000D03*
X155860000Y-135040000D03*
%TO.N,/LCD_K*%
X153840000Y-121820000D03*
X153840000Y-135630000D03*
%TO.N,/D3_P*%
X144035070Y-127049620D03*
%TO.N,/D3_N*%
X143285070Y-127049620D03*
%TO.N,/D2_P*%
X150583199Y-127091278D03*
%TO.N,/D2_N*%
X150583199Y-126341278D03*
%TO.N,/D0_P*%
X144928622Y-143614527D03*
%TO.N,/D0_N*%
X144178622Y-143614527D03*
X144540000Y-132980000D03*
%TO.N,/D0_P*%
X145155166Y-133435166D03*
%TO.N,/D1_P*%
X147725166Y-143044834D03*
%TO.N,/D1_N*%
X147194834Y-143575166D03*
%TO.N,/D1_P*%
X147335166Y-131705166D03*
%TO.N,/D1_N*%
X146804834Y-131174834D03*
%TO.N,/CLK_P*%
X146355000Y-143240000D03*
%TO.N,/CLK_N*%
X145605000Y-143240000D03*
X145605000Y-129790000D03*
%TO.N,/CLK_P*%
X146355000Y-129790000D03*
%TO.N,/D2_N*%
X148833448Y-143519915D03*
%TO.N,/D2_P*%
X149363780Y-142989583D03*
%TO.N,/D3_N*%
X142917339Y-142802421D03*
%TO.N,/D3_P*%
X143447671Y-143332753D03*
%TO.N,GND*%
X166100000Y-118810000D03*
X146600000Y-121500000D03*
X161600000Y-118810000D03*
X158600000Y-118810000D03*
X163100000Y-118810000D03*
X147100000Y-121500000D03*
X152600000Y-119000000D03*
X166800000Y-120200000D03*
X157100000Y-119000000D03*
X164600000Y-118810000D03*
X160100000Y-118810000D03*
%TO.N,+1V8*%
X139010000Y-117930000D03*
X151610000Y-117930000D03*
%TD*%
D11*
%TO.N,+5V*%
X151420000Y-137490000D02*
X151420000Y-126220000D01*
X151420000Y-126220000D02*
X150870000Y-125670000D01*
X151430000Y-137500000D02*
X151420000Y-137490000D01*
X150870000Y-125670000D02*
X148980000Y-125670000D01*
X148980000Y-125670000D02*
X148100000Y-124790000D01*
X148100000Y-124790000D02*
X148100000Y-121780000D01*
%TO.N,-5V*%
X152030000Y-136380000D02*
X152030000Y-125270000D01*
X152030000Y-125270000D02*
X150600000Y-123840000D01*
X150600000Y-123840000D02*
X150600000Y-121770000D01*
D12*
%TO.N,/RESET*%
X148950000Y-137570000D02*
X148940000Y-137580000D01*
X148950000Y-134410000D02*
X148950000Y-137570000D01*
D11*
%TO.N,/D3_N*%
X143435069Y-127199619D02*
X143435069Y-142496824D01*
X143285070Y-127049620D02*
X143435069Y-127199619D01*
X143435069Y-142496824D02*
X143129472Y-142802421D01*
X143129472Y-142802421D02*
X142917339Y-142802421D01*
D12*
%TO.N,Net-(J3-Pin_18)*%
X157750000Y-118560000D02*
X157660000Y-118470000D01*
X157660000Y-118470000D02*
X145160000Y-118470000D01*
X145160000Y-118470000D02*
X144360000Y-119270000D01*
X144360000Y-119270000D02*
X144360000Y-123210000D01*
%TO.N,+5V*%
X151430000Y-137590000D02*
X151430000Y-137500000D01*
D13*
%TO.N,+1V8*%
X151850000Y-121770000D02*
X151850000Y-123970000D01*
X151850000Y-123970000D02*
X152690000Y-124810000D01*
X152690000Y-124810000D02*
X152690000Y-137140000D01*
X152690000Y-137140000D02*
X152180000Y-137650000D01*
X152180000Y-137650000D02*
X152180000Y-137670000D01*
X150690000Y-138330000D02*
X150640000Y-138280000D01*
X152100000Y-138330000D02*
X150690000Y-138330000D01*
X152180000Y-137670000D02*
X152180000Y-138250000D01*
X152180000Y-138250000D02*
X152100000Y-138330000D01*
X150640000Y-138280000D02*
X150640000Y-137670000D01*
D12*
%TO.N,/PWM*%
X158100000Y-122100000D02*
X158100000Y-121820000D01*
X158100000Y-137050000D02*
X158100000Y-122100000D01*
D13*
%TO.N,/LCD_A*%
X155860000Y-135040000D02*
X155860000Y-121820000D01*
%TO.N,/LCD_K*%
X153840000Y-135630000D02*
X153840000Y-121820000D01*
D11*
%TO.N,/D3_P*%
X144035070Y-127049620D02*
X143890000Y-127194690D01*
X143447671Y-143120620D02*
X143447671Y-143332753D01*
X143890000Y-127194690D02*
X143890000Y-142678291D01*
X143890000Y-142678291D02*
X143447671Y-143120620D01*
%TO.N,/D2_P*%
X149363780Y-142989583D02*
X149151647Y-142989583D01*
%TO.N,/D2_N*%
X148833448Y-143307782D02*
X147905000Y-142379335D01*
%TO.N,/D2_P*%
X149151647Y-142989583D02*
X148355000Y-142192935D01*
X149376922Y-126941278D02*
X150433200Y-126941279D01*
X148355000Y-127963200D02*
X149376922Y-126941278D01*
X148355000Y-142192935D02*
X148355000Y-127963200D01*
X150433200Y-126941279D02*
X150583199Y-127091278D01*
%TO.N,/D2_N*%
X148833448Y-143519915D02*
X148833448Y-143307782D01*
X147905000Y-142379335D02*
X147905000Y-127776800D01*
X147905000Y-127776800D02*
X149190522Y-126491278D01*
X150433200Y-126491277D02*
X150583199Y-126341278D01*
X149190522Y-126491278D02*
X150433200Y-126491277D01*
%TO.N,/D0_N*%
X144540000Y-132980000D02*
X144540000Y-142750000D01*
X144540000Y-142750000D02*
X144328621Y-142961379D01*
X144328621Y-142961379D02*
X144328621Y-143464528D01*
X144328621Y-143464528D02*
X144178622Y-143614527D01*
%TO.N,/D0_P*%
X144778623Y-143151377D02*
X144778623Y-143464528D01*
X145155166Y-133435166D02*
X145074835Y-133515497D01*
X145074835Y-142855165D02*
X144778623Y-143151377D01*
X144778623Y-143464528D02*
X144928622Y-143614527D01*
X145074835Y-133515497D02*
X145074835Y-142855165D01*
%TO.N,/D1_P*%
X147335166Y-131705166D02*
X147254835Y-131785497D01*
X147254835Y-142714835D02*
X147584834Y-143044834D01*
X147584834Y-143044834D02*
X147725166Y-143044834D01*
X147254835Y-131785497D02*
X147254835Y-142714835D01*
%TO.N,/D1_N*%
X146804834Y-131174834D02*
X146780166Y-131199502D01*
X146780166Y-142880277D02*
X146999889Y-143100000D01*
X146780166Y-131199502D02*
X146780166Y-142880277D01*
X146999889Y-143100000D02*
X147000000Y-143100000D01*
X147000000Y-143100000D02*
X147194834Y-143294834D01*
X147194834Y-143294834D02*
X147194834Y-143575166D01*
%TO.N,/CLK_P*%
X146355000Y-129790000D02*
X146205001Y-129939999D01*
X146205001Y-143090001D02*
X146355000Y-143240000D01*
X146205001Y-129939999D02*
X146205001Y-143090001D01*
%TO.N,/CLK_N*%
X145605000Y-129790000D02*
X145754999Y-129939999D01*
X145754999Y-129939999D02*
X145754999Y-143090001D01*
X145754999Y-143090001D02*
X145605000Y-143240000D01*
D14*
%TO.N,+1V8*%
X139010000Y-117930000D02*
X151610000Y-117930000D01*
%TD*%
%TA.AperFunction,Conductor*%
%TO.N,GND*%
G36*
X170203039Y-113899685D02*
G01*
X170248794Y-113952489D01*
X170260000Y-114004000D01*
X170260000Y-145096000D01*
X170240315Y-145163039D01*
X170187511Y-145208794D01*
X170136000Y-145220000D01*
X136104000Y-145220000D01*
X136036961Y-145200315D01*
X135991206Y-145147511D01*
X135980000Y-145096000D01*
X135980000Y-142802421D01*
X142062154Y-142802421D01*
X142080842Y-142980226D01*
X142080843Y-142980228D01*
X142136086Y-143150250D01*
X142136089Y-143150256D01*
X142225480Y-143305086D01*
X142254587Y-143337412D01*
X142345103Y-143437942D01*
X142345106Y-143437944D01*
X142345109Y-143437947D01*
X142489746Y-143543033D01*
X142489749Y-143543035D01*
X142593611Y-143589276D01*
X142646849Y-143634525D01*
X142661108Y-143664237D01*
X142666419Y-143680584D01*
X142666421Y-143680588D01*
X142755812Y-143835418D01*
X142770209Y-143851407D01*
X142875435Y-143968274D01*
X142875438Y-143968276D01*
X142875441Y-143968279D01*
X143020078Y-144073365D01*
X143183404Y-144146082D01*
X143358280Y-144183253D01*
X143358281Y-144183253D01*
X143491036Y-144183253D01*
X143558075Y-144202938D01*
X143583186Y-144224281D01*
X143606386Y-144250048D01*
X143606389Y-144250050D01*
X143606392Y-144250053D01*
X143751029Y-144355139D01*
X143914355Y-144427856D01*
X144089231Y-144465027D01*
X144089232Y-144465027D01*
X144268011Y-144465027D01*
X144268013Y-144465027D01*
X144442889Y-144427856D01*
X144503186Y-144401010D01*
X144572436Y-144391725D01*
X144604059Y-144401010D01*
X144664355Y-144427856D01*
X144839231Y-144465027D01*
X144839232Y-144465027D01*
X145018011Y-144465027D01*
X145018013Y-144465027D01*
X145192889Y-144427856D01*
X145356215Y-144355139D01*
X145500852Y-144250053D01*
X145524058Y-144224281D01*
X145607573Y-144131528D01*
X145667059Y-144094879D01*
X145688016Y-144092069D01*
X145687923Y-144091180D01*
X145694389Y-144090500D01*
X145694391Y-144090500D01*
X145869267Y-144053329D01*
X145929564Y-144026483D01*
X145998814Y-144017198D01*
X146030437Y-144026483D01*
X146090733Y-144053329D01*
X146265609Y-144090500D01*
X146265610Y-144090500D01*
X146444382Y-144090500D01*
X146444391Y-144090500D01*
X146444399Y-144090498D01*
X146445485Y-144090384D01*
X146446120Y-144090500D01*
X146450890Y-144090500D01*
X146450890Y-144091372D01*
X146514215Y-144102948D01*
X146550607Y-144130732D01*
X146622598Y-144210687D01*
X146622601Y-144210689D01*
X146622604Y-144210692D01*
X146767241Y-144315778D01*
X146930567Y-144388495D01*
X147105443Y-144425666D01*
X147105444Y-144425666D01*
X147284223Y-144425666D01*
X147284225Y-144425666D01*
X147459101Y-144388495D01*
X147622427Y-144315778D01*
X147767064Y-144210692D01*
X147886693Y-144077831D01*
X147922705Y-144015457D01*
X147973269Y-143967244D01*
X148041876Y-143954020D01*
X148106741Y-143979988D01*
X148137476Y-144015457D01*
X148140673Y-144020993D01*
X148141589Y-144022580D01*
X148169274Y-144053327D01*
X148261212Y-144155436D01*
X148261215Y-144155438D01*
X148261218Y-144155441D01*
X148405855Y-144260527D01*
X148569181Y-144333244D01*
X148744057Y-144370415D01*
X148744058Y-144370415D01*
X148922837Y-144370415D01*
X148922839Y-144370415D01*
X149097715Y-144333244D01*
X149261041Y-144260527D01*
X149405678Y-144155441D01*
X149427210Y-144131528D01*
X149460208Y-144094879D01*
X149525307Y-144022580D01*
X149614698Y-143867750D01*
X149620008Y-143851404D01*
X149659441Y-143793729D01*
X149687498Y-143776441D01*
X149791373Y-143730195D01*
X149936010Y-143625109D01*
X150055639Y-143492248D01*
X150145030Y-143337418D01*
X150200277Y-143167386D01*
X150218965Y-142989583D01*
X150200277Y-142811780D01*
X150145030Y-142641748D01*
X150055639Y-142486918D01*
X150008783Y-142434879D01*
X149936015Y-142354061D01*
X149936012Y-142354059D01*
X149936011Y-142354058D01*
X149936010Y-142354057D01*
X149791373Y-142248971D01*
X149628047Y-142176254D01*
X149628045Y-142176253D01*
X149500374Y-142149116D01*
X149453171Y-142139083D01*
X149453170Y-142139083D01*
X149343165Y-142139083D01*
X149276126Y-142119398D01*
X149255488Y-142102768D01*
X149091816Y-141939096D01*
X149058334Y-141877775D01*
X149055500Y-141851417D01*
X149055500Y-138107291D01*
X149075185Y-138040252D01*
X149122114Y-137999586D01*
X149121608Y-137998798D01*
X149127094Y-137995272D01*
X149127989Y-137994497D01*
X149127992Y-137994495D01*
X149129060Y-137994006D01*
X149129069Y-137994004D01*
X149238049Y-137923967D01*
X149322882Y-137826063D01*
X149376697Y-137708226D01*
X149395133Y-137580000D01*
X149376697Y-137451774D01*
X149322882Y-137333937D01*
X149255785Y-137256502D01*
X149226762Y-137192947D01*
X149225500Y-137175301D01*
X149225500Y-134826238D01*
X149245185Y-134759199D01*
X149255777Y-134745047D01*
X149332882Y-134656063D01*
X149386697Y-134538226D01*
X149405133Y-134410000D01*
X149386697Y-134281774D01*
X149332882Y-134163937D01*
X149248049Y-134066033D01*
X149139069Y-133995996D01*
X149139067Y-133995995D01*
X149139065Y-133995994D01*
X149130999Y-133992310D01*
X149132205Y-133989668D01*
X149085780Y-133959826D01*
X149056761Y-133896268D01*
X149055500Y-133878632D01*
X149055500Y-128304718D01*
X149075185Y-128237679D01*
X149091815Y-128217041D01*
X149630759Y-127678096D01*
X149692082Y-127644612D01*
X149718440Y-127641778D01*
X149879202Y-127641778D01*
X149946241Y-127661463D01*
X149971352Y-127682806D01*
X150010963Y-127726799D01*
X150010966Y-127726801D01*
X150010969Y-127726804D01*
X150155606Y-127831890D01*
X150318932Y-127904607D01*
X150493808Y-127941778D01*
X150493809Y-127941778D01*
X150672588Y-127941778D01*
X150672590Y-127941778D01*
X150847466Y-127904607D01*
X150945066Y-127861152D01*
X151014314Y-127851868D01*
X151077591Y-127881496D01*
X151114804Y-127940631D01*
X151119500Y-127974432D01*
X151119500Y-137214152D01*
X151099815Y-137281191D01*
X151089199Y-137295371D01*
X151088418Y-137296272D01*
X151029633Y-137334036D01*
X150959763Y-137334024D01*
X150927680Y-137319369D01*
X150901985Y-137302856D01*
X150829069Y-137255996D01*
X150829065Y-137255994D01*
X150829064Y-137255994D01*
X150704774Y-137219500D01*
X150704772Y-137219500D01*
X150575228Y-137219500D01*
X150575226Y-137219500D01*
X150450935Y-137255994D01*
X150450932Y-137255995D01*
X150450931Y-137255996D01*
X150413977Y-137279745D01*
X150341950Y-137326033D01*
X150257118Y-137423937D01*
X150257117Y-137423938D01*
X150203302Y-137541774D01*
X150184867Y-137670000D01*
X150203302Y-137798225D01*
X150253294Y-137907690D01*
X150264500Y-137959202D01*
X150264500Y-138329435D01*
X150290090Y-138424938D01*
X150339525Y-138510562D01*
X150339526Y-138510563D01*
X150459437Y-138630475D01*
X150545063Y-138679911D01*
X150640564Y-138705500D01*
X150640565Y-138705500D01*
X150640566Y-138705500D01*
X152149435Y-138705500D01*
X152149436Y-138705500D01*
X152197186Y-138692705D01*
X152244938Y-138679910D01*
X152330562Y-138630475D01*
X152400475Y-138560562D01*
X152480474Y-138480563D01*
X152483722Y-138474938D01*
X152529910Y-138394938D01*
X152555500Y-138299435D01*
X152555500Y-137959202D01*
X152566706Y-137907690D01*
X152616696Y-137798228D01*
X152616695Y-137798228D01*
X152616697Y-137798226D01*
X152619872Y-137776143D01*
X152648896Y-137712587D01*
X152654929Y-137706107D01*
X152819263Y-137541774D01*
X152990474Y-137370563D01*
X152990475Y-137370562D01*
X153039910Y-137284938D01*
X153065500Y-137189435D01*
X153065500Y-137050000D01*
X157644867Y-137050000D01*
X157663302Y-137178225D01*
X157689703Y-137236033D01*
X157717118Y-137296063D01*
X157801951Y-137393967D01*
X157910931Y-137464004D01*
X158035225Y-137500499D01*
X158035227Y-137500500D01*
X158035228Y-137500500D01*
X158164773Y-137500500D01*
X158164773Y-137500499D01*
X158289069Y-137464004D01*
X158398049Y-137393967D01*
X158482882Y-137296063D01*
X158536697Y-137178226D01*
X158555133Y-137050000D01*
X158536697Y-136921774D01*
X158482882Y-136803937D01*
X158405786Y-136714962D01*
X158376762Y-136651406D01*
X158375500Y-136633760D01*
X158375500Y-122236238D01*
X158395185Y-122169199D01*
X158405777Y-122155047D01*
X158482882Y-122066063D01*
X158536697Y-121948226D01*
X158555133Y-121820000D01*
X158536697Y-121691774D01*
X158482882Y-121573937D01*
X158398049Y-121476033D01*
X158289069Y-121405996D01*
X158289065Y-121405994D01*
X158289064Y-121405994D01*
X158164774Y-121369500D01*
X158164772Y-121369500D01*
X158035228Y-121369500D01*
X158035226Y-121369500D01*
X157910935Y-121405994D01*
X157910932Y-121405995D01*
X157910931Y-121405996D01*
X157879753Y-121426033D01*
X157801950Y-121476033D01*
X157717118Y-121573937D01*
X157717117Y-121573938D01*
X157663302Y-121691774D01*
X157644867Y-121820000D01*
X157663302Y-121948225D01*
X157694283Y-122016062D01*
X157717118Y-122066063D01*
X157794214Y-122155038D01*
X157823238Y-122218591D01*
X157824500Y-122236238D01*
X157824500Y-136633760D01*
X157804815Y-136700799D01*
X157794214Y-136714962D01*
X157717118Y-136803937D01*
X157717117Y-136803938D01*
X157663302Y-136921774D01*
X157644867Y-137050000D01*
X153065500Y-137050000D01*
X153065500Y-135630000D01*
X153384867Y-135630000D01*
X153403302Y-135758225D01*
X153457117Y-135876061D01*
X153457118Y-135876063D01*
X153541951Y-135973967D01*
X153650931Y-136044004D01*
X153668791Y-136049248D01*
X153775225Y-136080499D01*
X153775227Y-136080500D01*
X153775228Y-136080500D01*
X153904773Y-136080500D01*
X153904773Y-136080499D01*
X154029069Y-136044004D01*
X154138049Y-135973967D01*
X154222882Y-135876063D01*
X154276697Y-135758226D01*
X154295133Y-135630000D01*
X154276697Y-135501774D01*
X154271548Y-135490499D01*
X154226706Y-135392308D01*
X154215500Y-135340797D01*
X154215500Y-135040000D01*
X155404867Y-135040000D01*
X155423302Y-135168225D01*
X155477117Y-135286061D01*
X155477118Y-135286063D01*
X155561951Y-135383967D01*
X155670931Y-135454004D01*
X155795225Y-135490499D01*
X155795227Y-135490500D01*
X155795228Y-135490500D01*
X155924773Y-135490500D01*
X155924773Y-135490499D01*
X156049069Y-135454004D01*
X156158049Y-135383967D01*
X156242882Y-135286063D01*
X156296697Y-135168226D01*
X156315133Y-135040000D01*
X156296697Y-134911774D01*
X156257634Y-134826238D01*
X156246706Y-134802308D01*
X156235500Y-134750797D01*
X156235500Y-122109202D01*
X156246706Y-122057690D01*
X156261150Y-122026062D01*
X156296697Y-121948226D01*
X156315133Y-121820000D01*
X156296697Y-121691774D01*
X156242882Y-121573937D01*
X156158049Y-121476033D01*
X156049069Y-121405996D01*
X156049065Y-121405994D01*
X156049064Y-121405994D01*
X155924774Y-121369500D01*
X155924772Y-121369500D01*
X155795228Y-121369500D01*
X155795226Y-121369500D01*
X155670935Y-121405994D01*
X155670932Y-121405995D01*
X155670931Y-121405996D01*
X155639753Y-121426033D01*
X155561950Y-121476033D01*
X155477118Y-121573937D01*
X155477117Y-121573938D01*
X155423302Y-121691774D01*
X155404867Y-121820000D01*
X155423302Y-121948225D01*
X155473294Y-122057690D01*
X155484500Y-122109202D01*
X155484500Y-134750797D01*
X155473294Y-134802308D01*
X155423303Y-134911772D01*
X155423302Y-134911773D01*
X155404867Y-135040000D01*
X154215500Y-135040000D01*
X154215500Y-122109202D01*
X154226706Y-122057690D01*
X154241150Y-122026062D01*
X154276697Y-121948226D01*
X154295133Y-121820000D01*
X154276697Y-121691774D01*
X154222882Y-121573937D01*
X154138049Y-121476033D01*
X154029069Y-121405996D01*
X154029065Y-121405994D01*
X154029064Y-121405994D01*
X153904774Y-121369500D01*
X153904772Y-121369500D01*
X153775228Y-121369500D01*
X153775226Y-121369500D01*
X153650935Y-121405994D01*
X153650932Y-121405995D01*
X153650931Y-121405996D01*
X153619753Y-121426033D01*
X153541950Y-121476033D01*
X153457118Y-121573937D01*
X153457117Y-121573938D01*
X153403302Y-121691774D01*
X153384867Y-121820000D01*
X153403302Y-121948225D01*
X153453294Y-122057690D01*
X153464500Y-122109202D01*
X153464500Y-135340797D01*
X153453294Y-135392308D01*
X153403303Y-135501772D01*
X153403302Y-135501773D01*
X153384867Y-135630000D01*
X153065500Y-135630000D01*
X153065500Y-124760565D01*
X153065500Y-124760563D01*
X153062787Y-124750442D01*
X153062784Y-124750432D01*
X153039910Y-124665063D01*
X153039909Y-124665060D01*
X153034533Y-124655749D01*
X152990475Y-124579438D01*
X152920562Y-124509525D01*
X152261819Y-123850782D01*
X152228334Y-123789459D01*
X152225500Y-123763101D01*
X152225500Y-122059202D01*
X152236706Y-122007690D01*
X152282130Y-121908226D01*
X152286697Y-121898226D01*
X152305133Y-121770000D01*
X152286697Y-121641774D01*
X152232882Y-121523937D01*
X152148049Y-121426033D01*
X152039069Y-121355996D01*
X152039065Y-121355994D01*
X152039064Y-121355994D01*
X151914774Y-121319500D01*
X151914772Y-121319500D01*
X151785228Y-121319500D01*
X151785226Y-121319500D01*
X151660935Y-121355994D01*
X151660932Y-121355995D01*
X151660931Y-121355996D01*
X151609677Y-121388934D01*
X151551950Y-121426033D01*
X151467118Y-121523937D01*
X151467117Y-121523938D01*
X151413302Y-121641774D01*
X151394867Y-121770000D01*
X151413302Y-121898225D01*
X151463294Y-122007690D01*
X151474500Y-122059202D01*
X151474500Y-123990167D01*
X151454815Y-124057206D01*
X151402011Y-124102961D01*
X151332853Y-124112905D01*
X151269297Y-124083880D01*
X151262819Y-124077848D01*
X150936819Y-123751848D01*
X150903334Y-123690525D01*
X150900500Y-123664167D01*
X150900500Y-122157386D01*
X150920185Y-122090347D01*
X150930778Y-122076194D01*
X150982882Y-122016063D01*
X151036697Y-121898226D01*
X151055133Y-121770000D01*
X151036697Y-121641774D01*
X150982882Y-121523937D01*
X150898049Y-121426033D01*
X150789069Y-121355996D01*
X150789065Y-121355994D01*
X150789064Y-121355994D01*
X150664774Y-121319500D01*
X150664772Y-121319500D01*
X150535228Y-121319500D01*
X150535226Y-121319500D01*
X150410935Y-121355994D01*
X150410932Y-121355995D01*
X150410931Y-121355996D01*
X150359677Y-121388934D01*
X150301950Y-121426033D01*
X150217118Y-121523937D01*
X150217117Y-121523938D01*
X150163302Y-121641774D01*
X150144867Y-121770000D01*
X150163302Y-121898225D01*
X150213294Y-122007690D01*
X150217118Y-122016063D01*
X150269214Y-122076186D01*
X150298238Y-122139738D01*
X150299500Y-122157386D01*
X150299500Y-123879562D01*
X150319979Y-123955989D01*
X150356609Y-124019435D01*
X150356611Y-124019439D01*
X150356610Y-124019439D01*
X150359536Y-124024505D01*
X150359543Y-124024515D01*
X151693181Y-125358152D01*
X151726666Y-125419475D01*
X151729500Y-125445833D01*
X151729500Y-125805167D01*
X151709815Y-125872206D01*
X151657011Y-125917961D01*
X151587853Y-125927905D01*
X151524297Y-125898880D01*
X151517819Y-125892848D01*
X151054512Y-125429541D01*
X151054504Y-125429535D01*
X150985995Y-125389982D01*
X150985990Y-125389979D01*
X150960513Y-125383152D01*
X150909562Y-125369500D01*
X150909560Y-125369500D01*
X149155833Y-125369500D01*
X149088794Y-125349815D01*
X149068152Y-125333181D01*
X148436819Y-124701848D01*
X148403334Y-124640525D01*
X148400500Y-124614167D01*
X148400500Y-122167386D01*
X148420185Y-122100347D01*
X148430778Y-122086194D01*
X148482882Y-122026063D01*
X148536697Y-121908226D01*
X148555133Y-121780000D01*
X148536697Y-121651774D01*
X148482882Y-121533937D01*
X148398049Y-121436033D01*
X148289069Y-121365996D01*
X148289065Y-121365994D01*
X148289064Y-121365994D01*
X148164774Y-121329500D01*
X148164772Y-121329500D01*
X148035228Y-121329500D01*
X148035226Y-121329500D01*
X147910935Y-121365994D01*
X147910932Y-121365995D01*
X147910931Y-121365996D01*
X147905479Y-121369500D01*
X147801950Y-121436033D01*
X147717118Y-121533937D01*
X147717117Y-121533938D01*
X147663302Y-121651774D01*
X147644867Y-121780000D01*
X147663302Y-121908225D01*
X147708727Y-122007690D01*
X147717118Y-122026063D01*
X147769214Y-122086186D01*
X147798238Y-122149738D01*
X147799500Y-122167386D01*
X147799500Y-124829562D01*
X147813152Y-124880513D01*
X147819979Y-124905990D01*
X147819980Y-124905991D01*
X147848239Y-124954937D01*
X147848240Y-124954938D01*
X147859539Y-124974510D01*
X148700404Y-125815375D01*
X148733889Y-125876698D01*
X148728905Y-125946390D01*
X148700404Y-125990737D01*
X147360887Y-127330254D01*
X147284222Y-127444992D01*
X147231421Y-127572467D01*
X147231418Y-127572479D01*
X147209008Y-127685143D01*
X147209008Y-127685146D01*
X147204500Y-127707806D01*
X147204500Y-129139381D01*
X147184815Y-129206420D01*
X147132011Y-129252175D01*
X147062853Y-129262119D01*
X146999297Y-129233094D01*
X146988350Y-129222354D01*
X146927231Y-129154475D01*
X146782594Y-129049389D01*
X146782593Y-129049388D01*
X146619267Y-128976671D01*
X146619265Y-128976670D01*
X146491594Y-128949533D01*
X146444391Y-128939500D01*
X146265609Y-128939500D01*
X146228439Y-128947400D01*
X146090734Y-128976670D01*
X146090729Y-128976672D01*
X146030434Y-129003517D01*
X145961184Y-129012801D01*
X145929566Y-129003517D01*
X145869270Y-128976672D01*
X145869265Y-128976670D01*
X145741594Y-128949533D01*
X145694391Y-128939500D01*
X145515609Y-128939500D01*
X145484954Y-128946015D01*
X145340733Y-128976670D01*
X145340728Y-128976672D01*
X145177408Y-129049387D01*
X145032768Y-129154475D01*
X144913140Y-129287336D01*
X144821887Y-129445392D01*
X144771320Y-129493607D01*
X144702713Y-129506831D01*
X144637849Y-129480863D01*
X144597320Y-129423949D01*
X144590500Y-129383392D01*
X144590500Y-127751404D01*
X144610185Y-127684365D01*
X144622350Y-127668432D01*
X144648295Y-127639616D01*
X144726929Y-127552285D01*
X144816320Y-127397455D01*
X144871567Y-127227423D01*
X144890255Y-127049620D01*
X144871567Y-126871817D01*
X144816320Y-126701785D01*
X144726929Y-126546955D01*
X144680073Y-126494916D01*
X144607305Y-126414098D01*
X144607302Y-126414096D01*
X144607301Y-126414095D01*
X144607300Y-126414094D01*
X144462663Y-126309008D01*
X144299337Y-126236291D01*
X144299335Y-126236290D01*
X144171664Y-126209153D01*
X144124461Y-126199120D01*
X143945679Y-126199120D01*
X143908509Y-126207020D01*
X143770804Y-126236290D01*
X143770799Y-126236292D01*
X143710504Y-126263137D01*
X143641254Y-126272421D01*
X143609636Y-126263137D01*
X143549340Y-126236292D01*
X143549335Y-126236290D01*
X143421664Y-126209153D01*
X143374461Y-126199120D01*
X143195679Y-126199120D01*
X143165024Y-126205635D01*
X143020803Y-126236290D01*
X143020798Y-126236292D01*
X142857478Y-126309007D01*
X142712838Y-126414095D01*
X142593210Y-126546956D01*
X142503820Y-126701784D01*
X142503817Y-126701790D01*
X142448574Y-126871812D01*
X142448573Y-126871814D01*
X142429885Y-127049620D01*
X142448573Y-127227425D01*
X142448574Y-127227427D01*
X142503817Y-127397449D01*
X142503820Y-127397455D01*
X142593208Y-127552281D01*
X142593209Y-127552283D01*
X142593211Y-127552285D01*
X142702720Y-127673907D01*
X142732949Y-127736896D01*
X142734569Y-127756877D01*
X142734569Y-141872520D01*
X142714884Y-141939559D01*
X142662080Y-141985314D01*
X142657893Y-141986944D01*
X142489747Y-142061808D01*
X142345107Y-142166896D01*
X142225479Y-142299757D01*
X142136089Y-142454585D01*
X142136086Y-142454591D01*
X142080843Y-142624613D01*
X142080842Y-142624615D01*
X142062154Y-142802421D01*
X135980000Y-142802421D01*
X135980000Y-117930000D01*
X138554867Y-117930000D01*
X138573302Y-118058225D01*
X138627117Y-118176061D01*
X138627118Y-118176063D01*
X138711951Y-118273967D01*
X138820931Y-118344004D01*
X138945225Y-118380499D01*
X138945227Y-118380500D01*
X138945228Y-118380500D01*
X139074773Y-118380500D01*
X139074773Y-118380499D01*
X139199069Y-118344004D01*
X139306155Y-118275183D01*
X139373194Y-118255500D01*
X144685523Y-118255500D01*
X144752562Y-118275185D01*
X144798317Y-118327989D01*
X144808261Y-118397147D01*
X144779236Y-118460703D01*
X144773204Y-118467181D01*
X144126444Y-119113940D01*
X144084500Y-119215199D01*
X144084500Y-122793760D01*
X144064815Y-122860799D01*
X144054214Y-122874962D01*
X143977118Y-122963937D01*
X143977117Y-122963938D01*
X143923302Y-123081774D01*
X143904867Y-123210000D01*
X143923302Y-123338225D01*
X143977117Y-123456061D01*
X143977118Y-123456063D01*
X144061951Y-123553967D01*
X144170931Y-123624004D01*
X144295225Y-123660499D01*
X144295227Y-123660500D01*
X144295228Y-123660500D01*
X144424773Y-123660500D01*
X144424773Y-123660499D01*
X144549069Y-123624004D01*
X144658049Y-123553967D01*
X144742882Y-123456063D01*
X144796697Y-123338226D01*
X144815133Y-123210000D01*
X144796697Y-123081774D01*
X144742882Y-122963937D01*
X144665786Y-122874962D01*
X144636762Y-122811406D01*
X144635500Y-122793760D01*
X144635500Y-119435477D01*
X144655185Y-119368438D01*
X144671819Y-119347796D01*
X145237796Y-118781819D01*
X145299119Y-118748334D01*
X145325477Y-118745500D01*
X157260487Y-118745500D01*
X157327526Y-118765185D01*
X157364801Y-118802459D01*
X157367114Y-118806058D01*
X157367117Y-118806062D01*
X157367118Y-118806063D01*
X157451951Y-118903967D01*
X157560931Y-118974004D01*
X157685225Y-119010499D01*
X157685227Y-119010500D01*
X157685228Y-119010500D01*
X157814773Y-119010500D01*
X157814773Y-119010499D01*
X157939069Y-118974004D01*
X158048049Y-118903967D01*
X158132882Y-118806063D01*
X158186697Y-118688226D01*
X158205133Y-118560000D01*
X158186697Y-118431774D01*
X158132882Y-118313937D01*
X158048049Y-118216033D01*
X157939069Y-118145996D01*
X157939065Y-118145994D01*
X157939064Y-118145994D01*
X157814774Y-118109500D01*
X157814772Y-118109500D01*
X157685228Y-118109500D01*
X157685226Y-118109500D01*
X157560935Y-118145994D01*
X157560932Y-118145995D01*
X157560931Y-118145996D01*
X157516085Y-118174816D01*
X157449048Y-118194500D01*
X152170208Y-118194500D01*
X152103169Y-118174815D01*
X152057414Y-118122011D01*
X152047470Y-118052854D01*
X152065133Y-117930000D01*
X152046697Y-117801774D01*
X151992882Y-117683938D01*
X151992882Y-117683937D01*
X151908049Y-117586033D01*
X151799069Y-117515996D01*
X151799065Y-117515994D01*
X151799064Y-117515994D01*
X151674774Y-117479500D01*
X151674772Y-117479500D01*
X151545228Y-117479500D01*
X151545226Y-117479500D01*
X151420935Y-117515994D01*
X151420932Y-117515995D01*
X151420931Y-117515996D01*
X151313845Y-117584816D01*
X151246806Y-117604500D01*
X139373194Y-117604500D01*
X139306155Y-117584816D01*
X139199069Y-117515996D01*
X139199065Y-117515994D01*
X139199064Y-117515994D01*
X139074774Y-117479500D01*
X139074772Y-117479500D01*
X138945228Y-117479500D01*
X138945226Y-117479500D01*
X138820935Y-117515994D01*
X138820932Y-117515995D01*
X138820931Y-117515996D01*
X138769677Y-117548934D01*
X138711950Y-117586033D01*
X138627118Y-117683937D01*
X138627117Y-117683938D01*
X138573302Y-117801774D01*
X138554867Y-117930000D01*
X135980000Y-117930000D01*
X135980000Y-114004000D01*
X135999685Y-113936961D01*
X136052489Y-113891206D01*
X136104000Y-113880000D01*
X170136000Y-113880000D01*
X170203039Y-113899685D01*
G37*
%TD.AperFunction*%
%TD*%
M02*
