%TF.GenerationSoftware,KiCad,Pcbnew,8.0.0*%
%TF.CreationDate,2024-03-06T21:04:31+04:00*%
%TF.ProjectId,gbc-cm4-aio-flex,6762632d-636d-4342-9d61-696f2d666c65,rev?*%
%TF.SameCoordinates,Original*%
%TF.FileFunction,Drillmap*%
%TF.FilePolarity,Positive*%
%FSLAX45Y45*%
G04 Gerber Fmt 4.5, Leading zero omitted, Abs format (unit mm)*
G04 Created by KiCad (PCBNEW 8.0.0) date 2024-03-06 21:04:31*
%MOMM*%
%LPD*%
G01*
G04 APERTURE LIST*
%ADD10C,0.100000*%
%ADD11C,0.200000*%
G04 APERTURE END LIST*
D10*
X16955000Y-11456000D02*
X16950000Y-12850000D01*
X16100000Y-13700000D01*
X12050000Y-13700000D01*
X12050000Y-11650000D01*
X12250000Y-11450000D01*
X16955000Y-11456000D01*
D11*
D10*
X12213360Y-13307675D02*
X12233360Y-13327675D01*
X12233360Y-13307675D02*
X12213360Y-13327675D01*
X12215000Y-13234000D02*
X12235000Y-13254000D01*
X12235000Y-13234000D02*
X12215000Y-13254000D01*
X12222000Y-13075000D02*
X12242000Y-13095000D01*
X12242000Y-13075000D02*
X12222000Y-13095000D01*
X12225000Y-13145000D02*
X12245000Y-13165000D01*
X12245000Y-13145000D02*
X12225000Y-13165000D01*
X12241000Y-12982000D02*
X12261000Y-13002000D01*
X12261000Y-12982000D02*
X12241000Y-13002000D01*
X12267000Y-12917000D02*
X12287000Y-12937000D01*
X12287000Y-12917000D02*
X12267000Y-12937000D01*
X12146500Y-12855000D02*
G75*
G02*
X12121500Y-12855000I-12500J0D01*
G01*
X12121500Y-12855000D02*
G75*
G02*
X12146500Y-12855000I12500J0D01*
G01*
X12146500Y-12955000D02*
G75*
G02*
X12121500Y-12955000I-12500J0D01*
G01*
X12121500Y-12955000D02*
G75*
G02*
X12146500Y-12955000I12500J0D01*
G01*
X12146500Y-13055000D02*
G75*
G02*
X12121500Y-13055000I-12500J0D01*
G01*
X12121500Y-13055000D02*
G75*
G02*
X12146500Y-13055000I12500J0D01*
G01*
X12146500Y-13155000D02*
G75*
G02*
X12121500Y-13155000I-12500J0D01*
G01*
X12121500Y-13155000D02*
G75*
G02*
X12146500Y-13155000I12500J0D01*
G01*
X12146500Y-13255000D02*
G75*
G02*
X12121500Y-13255000I-12500J0D01*
G01*
X12121500Y-13255000D02*
G75*
G02*
X12146500Y-13255000I12500J0D01*
G01*
X12146500Y-13355000D02*
G75*
G02*
X12121500Y-13355000I-12500J0D01*
G01*
X12121500Y-13355000D02*
G75*
G02*
X12146500Y-13355000I12500J0D01*
G01*
X12232500Y-13593000D02*
G75*
G02*
X12207500Y-13593000I-12500J0D01*
G01*
X12207500Y-13593000D02*
G75*
G02*
X12232500Y-13593000I12500J0D01*
G01*
X12252500Y-12512000D02*
G75*
G02*
X12227500Y-12512000I-12500J0D01*
G01*
X12227500Y-12512000D02*
G75*
G02*
X12252500Y-12512000I12500J0D01*
G01*
X12313500Y-12700000D02*
G75*
G02*
X12288500Y-12700000I-12500J0D01*
G01*
X12288500Y-12700000D02*
G75*
G02*
X12313500Y-12700000I12500J0D01*
G01*
X12316500Y-13522000D02*
G75*
G02*
X12291500Y-13522000I-12500J0D01*
G01*
X12291500Y-13522000D02*
G75*
G02*
X12316500Y-13522000I12500J0D01*
G01*
X12548500Y-12700000D02*
G75*
G02*
X12523500Y-12700000I-12500J0D01*
G01*
X12523500Y-12700000D02*
G75*
G02*
X12548500Y-12700000I12500J0D01*
G01*
X12548500Y-12800000D02*
G75*
G02*
X12523500Y-12800000I-12500J0D01*
G01*
X12523500Y-12800000D02*
G75*
G02*
X12548500Y-12800000I12500J0D01*
G01*
X12548500Y-12900000D02*
G75*
G02*
X12523500Y-12900000I-12500J0D01*
G01*
X12523500Y-12900000D02*
G75*
G02*
X12548500Y-12900000I12500J0D01*
G01*
X12548500Y-13350000D02*
G75*
G02*
X12523500Y-13350000I-12500J0D01*
G01*
X12523500Y-13350000D02*
G75*
G02*
X12548500Y-13350000I12500J0D01*
G01*
X12548500Y-13450000D02*
G75*
G02*
X12523500Y-13450000I-12500J0D01*
G01*
X12523500Y-13450000D02*
G75*
G02*
X12548500Y-13450000I12500J0D01*
G01*
X12713500Y-12700000D02*
G75*
G02*
X12688500Y-12700000I-12500J0D01*
G01*
X12688500Y-12700000D02*
G75*
G02*
X12713500Y-12700000I12500J0D01*
G01*
X12763500Y-13450000D02*
G75*
G02*
X12738500Y-13450000I-12500J0D01*
G01*
X12738500Y-13450000D02*
G75*
G02*
X12763500Y-13450000I12500J0D01*
G01*
X12813500Y-12589000D02*
G75*
G02*
X12788500Y-12589000I-12500J0D01*
G01*
X12788500Y-12589000D02*
G75*
G02*
X12813500Y-12589000I12500J0D01*
G01*
X12813500Y-12900000D02*
G75*
G02*
X12788500Y-12900000I-12500J0D01*
G01*
X12788500Y-12900000D02*
G75*
G02*
X12813500Y-12900000I12500J0D01*
G01*
X12890300Y-13446000D02*
G75*
G02*
X12865300Y-13446000I-12500J0D01*
G01*
X12865300Y-13446000D02*
G75*
G02*
X12890300Y-13446000I12500J0D01*
G01*
X12914500Y-12666000D02*
G75*
G02*
X12889500Y-12666000I-12500J0D01*
G01*
X12889500Y-12666000D02*
G75*
G02*
X12914500Y-12666000I12500J0D01*
G01*
X12991900Y-13378000D02*
G75*
G02*
X12966900Y-13378000I-12500J0D01*
G01*
X12966900Y-13378000D02*
G75*
G02*
X12991900Y-13378000I12500J0D01*
G01*
X13017300Y-12746000D02*
G75*
G02*
X12992300Y-12746000I-12500J0D01*
G01*
X12992300Y-12746000D02*
G75*
G02*
X13017300Y-12746000I12500J0D01*
G01*
X13067500Y-12843000D02*
G75*
G02*
X13042500Y-12843000I-12500J0D01*
G01*
X13042500Y-12843000D02*
G75*
G02*
X13067500Y-12843000I12500J0D01*
G01*
X13167500Y-12843000D02*
G75*
G02*
X13142500Y-12843000I-12500J0D01*
G01*
X13142500Y-12843000D02*
G75*
G02*
X13167500Y-12843000I12500J0D01*
G01*
X13267500Y-12843000D02*
G75*
G02*
X13242500Y-12843000I-12500J0D01*
G01*
X13242500Y-12843000D02*
G75*
G02*
X13267500Y-12843000I12500J0D01*
G01*
X13366500Y-12843000D02*
G75*
G02*
X13341500Y-12843000I-12500J0D01*
G01*
X13341500Y-12843000D02*
G75*
G02*
X13366500Y-12843000I12500J0D01*
G01*
X13466500Y-12843000D02*
G75*
G02*
X13441500Y-12843000I-12500J0D01*
G01*
X13441500Y-12843000D02*
G75*
G02*
X13466500Y-12843000I12500J0D01*
G01*
X13566500Y-12843000D02*
G75*
G02*
X13541500Y-12843000I-12500J0D01*
G01*
X13541500Y-12843000D02*
G75*
G02*
X13566500Y-12843000I12500J0D01*
G01*
X13666500Y-12843000D02*
G75*
G02*
X13641500Y-12843000I-12500J0D01*
G01*
X13641500Y-12843000D02*
G75*
G02*
X13666500Y-12843000I12500J0D01*
G01*
X13793500Y-13446000D02*
G75*
G02*
X13768500Y-13446000I-12500J0D01*
G01*
X13768500Y-13446000D02*
G75*
G02*
X13793500Y-13446000I12500J0D01*
G01*
X13912500Y-13450000D02*
G75*
G02*
X13887500Y-13450000I-12500J0D01*
G01*
X13887500Y-13450000D02*
G75*
G02*
X13912500Y-13450000I12500J0D01*
G01*
X13913500Y-11793000D02*
G75*
G02*
X13888500Y-11793000I-12500J0D01*
G01*
X13888500Y-11793000D02*
G75*
G02*
X13913500Y-11793000I12500J0D01*
G01*
X13954500Y-12844000D02*
G75*
G02*
X13929500Y-12844000I-12500J0D01*
G01*
X13929500Y-12844000D02*
G75*
G02*
X13954500Y-12844000I12500J0D01*
G01*
X14012500Y-13450000D02*
G75*
G02*
X13987500Y-13450000I-12500J0D01*
G01*
X13987500Y-13450000D02*
G75*
G02*
X14012500Y-13450000I12500J0D01*
G01*
X14054500Y-12844000D02*
G75*
G02*
X14029500Y-12844000I-12500J0D01*
G01*
X14029500Y-12844000D02*
G75*
G02*
X14054500Y-12844000I12500J0D01*
G01*
X14112500Y-13450000D02*
G75*
G02*
X14087500Y-13450000I-12500J0D01*
G01*
X14087500Y-13450000D02*
G75*
G02*
X14112500Y-13450000I12500J0D01*
G01*
X14154500Y-12844000D02*
G75*
G02*
X14129500Y-12844000I-12500J0D01*
G01*
X14129500Y-12844000D02*
G75*
G02*
X14154500Y-12844000I12500J0D01*
G01*
X14212500Y-13450000D02*
G75*
G02*
X14187500Y-13450000I-12500J0D01*
G01*
X14187500Y-13450000D02*
G75*
G02*
X14212500Y-13450000I12500J0D01*
G01*
X14254500Y-12844000D02*
G75*
G02*
X14229500Y-12844000I-12500J0D01*
G01*
X14229500Y-12844000D02*
G75*
G02*
X14254500Y-12844000I12500J0D01*
G01*
X14312500Y-13450000D02*
G75*
G02*
X14287500Y-13450000I-12500J0D01*
G01*
X14287500Y-13450000D02*
G75*
G02*
X14312500Y-13450000I12500J0D01*
G01*
X14354500Y-12844000D02*
G75*
G02*
X14329500Y-12844000I-12500J0D01*
G01*
X14329500Y-12844000D02*
G75*
G02*
X14354500Y-12844000I12500J0D01*
G01*
X14412500Y-13450000D02*
G75*
G02*
X14387500Y-13450000I-12500J0D01*
G01*
X14387500Y-13450000D02*
G75*
G02*
X14412500Y-13450000I12500J0D01*
G01*
X14444500Y-12319000D02*
G75*
G02*
X14419500Y-12319000I-12500J0D01*
G01*
X14419500Y-12319000D02*
G75*
G02*
X14444500Y-12319000I12500J0D01*
G01*
X14454500Y-12844000D02*
G75*
G02*
X14429500Y-12844000I-12500J0D01*
G01*
X14429500Y-12844000D02*
G75*
G02*
X14454500Y-12844000I12500J0D01*
G01*
X14512500Y-13450000D02*
G75*
G02*
X14487500Y-13450000I-12500J0D01*
G01*
X14487500Y-13450000D02*
G75*
G02*
X14512500Y-13450000I12500J0D01*
G01*
X14554500Y-12844000D02*
G75*
G02*
X14529500Y-12844000I-12500J0D01*
G01*
X14529500Y-12844000D02*
G75*
G02*
X14554500Y-12844000I12500J0D01*
G01*
X14602500Y-12020000D02*
G75*
G02*
X14577500Y-12020000I-12500J0D01*
G01*
X14577500Y-12020000D02*
G75*
G02*
X14602500Y-12020000I12500J0D01*
G01*
X14612500Y-13450000D02*
G75*
G02*
X14587500Y-13450000I-12500J0D01*
G01*
X14587500Y-13450000D02*
G75*
G02*
X14612500Y-13450000I12500J0D01*
G01*
X14654500Y-12844000D02*
G75*
G02*
X14629500Y-12844000I-12500J0D01*
G01*
X14629500Y-12844000D02*
G75*
G02*
X14654500Y-12844000I12500J0D01*
G01*
X14672500Y-11900000D02*
G75*
G02*
X14647500Y-11900000I-12500J0D01*
G01*
X14647500Y-11900000D02*
G75*
G02*
X14672500Y-11900000I12500J0D01*
G01*
X14672500Y-12150000D02*
G75*
G02*
X14647500Y-12150000I-12500J0D01*
G01*
X14647500Y-12150000D02*
G75*
G02*
X14672500Y-12150000I12500J0D01*
G01*
X14712500Y-13450000D02*
G75*
G02*
X14687500Y-13450000I-12500J0D01*
G01*
X14687500Y-13450000D02*
G75*
G02*
X14712500Y-13450000I12500J0D01*
G01*
X14722500Y-11900000D02*
G75*
G02*
X14697500Y-11900000I-12500J0D01*
G01*
X14697500Y-11900000D02*
G75*
G02*
X14722500Y-11900000I12500J0D01*
G01*
X14722500Y-12150000D02*
G75*
G02*
X14697500Y-12150000I-12500J0D01*
G01*
X14697500Y-12150000D02*
G75*
G02*
X14722500Y-12150000I12500J0D01*
G01*
X14754500Y-12844000D02*
G75*
G02*
X14729500Y-12844000I-12500J0D01*
G01*
X14729500Y-12844000D02*
G75*
G02*
X14754500Y-12844000I12500J0D01*
G01*
X14812500Y-13450000D02*
G75*
G02*
X14787500Y-13450000I-12500J0D01*
G01*
X14787500Y-13450000D02*
G75*
G02*
X14812500Y-13450000I12500J0D01*
G01*
X14822500Y-12666000D02*
G75*
G02*
X14797500Y-12666000I-12500J0D01*
G01*
X14797500Y-12666000D02*
G75*
G02*
X14822500Y-12666000I12500J0D01*
G01*
X14912500Y-13450000D02*
G75*
G02*
X14887500Y-13450000I-12500J0D01*
G01*
X14887500Y-13450000D02*
G75*
G02*
X14912500Y-13450000I12500J0D01*
G01*
X15012500Y-12746000D02*
G75*
G02*
X14987500Y-12746000I-12500J0D01*
G01*
X14987500Y-12746000D02*
G75*
G02*
X15012500Y-12746000I12500J0D01*
G01*
X15012500Y-13450000D02*
G75*
G02*
X14987500Y-13450000I-12500J0D01*
G01*
X14987500Y-13450000D02*
G75*
G02*
X15012500Y-13450000I12500J0D01*
G01*
X15022500Y-13593000D02*
G75*
G02*
X14997500Y-13593000I-12500J0D01*
G01*
X14997500Y-13593000D02*
G75*
G02*
X15022500Y-13593000I12500J0D01*
G01*
X15173500Y-11793000D02*
G75*
G02*
X15148500Y-11793000I-12500J0D01*
G01*
X15148500Y-11793000D02*
G75*
G02*
X15173500Y-11793000I12500J0D01*
G01*
X15191500Y-13521000D02*
G75*
G02*
X15166500Y-13521000I-12500J0D01*
G01*
X15166500Y-13521000D02*
G75*
G02*
X15191500Y-13521000I12500J0D01*
G01*
X15262500Y-12882000D02*
G75*
G02*
X15237500Y-12882000I-12500J0D01*
G01*
X15237500Y-12882000D02*
G75*
G02*
X15262500Y-12882000I12500J0D01*
G01*
X15272500Y-11900000D02*
G75*
G02*
X15247500Y-11900000I-12500J0D01*
G01*
X15247500Y-11900000D02*
G75*
G02*
X15272500Y-11900000I12500J0D01*
G01*
X15284500Y-13435000D02*
G75*
G02*
X15259500Y-13435000I-12500J0D01*
G01*
X15259500Y-13435000D02*
G75*
G02*
X15284500Y-13435000I12500J0D01*
G01*
X15417500Y-12881000D02*
G75*
G02*
X15392500Y-12881000I-12500J0D01*
G01*
X15392500Y-12881000D02*
G75*
G02*
X15417500Y-12881000I12500J0D01*
G01*
X15423500Y-12512000D02*
G75*
G02*
X15398500Y-12512000I-12500J0D01*
G01*
X15398500Y-12512000D02*
G75*
G02*
X15423500Y-12512000I12500J0D01*
G01*
X15426500Y-13434000D02*
G75*
G02*
X15401500Y-13434000I-12500J0D01*
G01*
X15401500Y-13434000D02*
G75*
G02*
X15426500Y-13434000I12500J0D01*
G01*
X15510500Y-12837000D02*
G75*
G02*
X15485500Y-12837000I-12500J0D01*
G01*
X15485500Y-12837000D02*
G75*
G02*
X15510500Y-12837000I12500J0D01*
G01*
X15572500Y-12576000D02*
G75*
G02*
X15547500Y-12576000I-12500J0D01*
G01*
X15547500Y-12576000D02*
G75*
G02*
X15572500Y-12576000I12500J0D01*
G01*
X15608500Y-12821000D02*
G75*
G02*
X15583500Y-12821000I-12500J0D01*
G01*
X15583500Y-12821000D02*
G75*
G02*
X15608500Y-12821000I12500J0D01*
G01*
X15627500Y-13434000D02*
G75*
G02*
X15602500Y-13434000I-12500J0D01*
G01*
X15602500Y-13434000D02*
G75*
G02*
X15627500Y-13434000I12500J0D01*
G01*
X15712500Y-12150000D02*
G75*
G02*
X15687500Y-12150000I-12500J0D01*
G01*
X15687500Y-12150000D02*
G75*
G02*
X15712500Y-12150000I12500J0D01*
G01*
X15722500Y-11900000D02*
G75*
G02*
X15697500Y-11900000I-12500J0D01*
G01*
X15697500Y-11900000D02*
G75*
G02*
X15722500Y-11900000I12500J0D01*
G01*
X15731500Y-12808000D02*
G75*
G02*
X15706500Y-12808000I-12500J0D01*
G01*
X15706500Y-12808000D02*
G75*
G02*
X15731500Y-12808000I12500J0D01*
G01*
X15741500Y-12319000D02*
G75*
G02*
X15716500Y-12319000I-12500J0D01*
G01*
X15716500Y-12319000D02*
G75*
G02*
X15741500Y-12319000I12500J0D01*
G01*
X15792500Y-13437000D02*
G75*
G02*
X15767500Y-13437000I-12500J0D01*
G01*
X15767500Y-13437000D02*
G75*
G02*
X15792500Y-13437000I12500J0D01*
G01*
X15823500Y-13347000D02*
G75*
G02*
X15798500Y-13347000I-12500J0D01*
G01*
X15798500Y-13347000D02*
G75*
G02*
X15823500Y-13347000I12500J0D01*
G01*
X15872500Y-11881000D02*
G75*
G02*
X15847500Y-11881000I-12500J0D01*
G01*
X15847500Y-11881000D02*
G75*
G02*
X15872500Y-11881000I12500J0D01*
G01*
X15917500Y-12777000D02*
G75*
G02*
X15892500Y-12777000I-12500J0D01*
G01*
X15892500Y-12777000D02*
G75*
G02*
X15917500Y-12777000I12500J0D01*
G01*
X15958500Y-13435000D02*
G75*
G02*
X15933500Y-13435000I-12500J0D01*
G01*
X15933500Y-13435000D02*
G75*
G02*
X15958500Y-13435000I12500J0D01*
G01*
X16020500Y-12802000D02*
G75*
G02*
X15995500Y-12802000I-12500J0D01*
G01*
X15995500Y-12802000D02*
G75*
G02*
X16020500Y-12802000I12500J0D01*
G01*
X16022500Y-11881000D02*
G75*
G02*
X15997500Y-11881000I-12500J0D01*
G01*
X15997500Y-11881000D02*
G75*
G02*
X16022500Y-11881000I12500J0D01*
G01*
X16022500Y-12171000D02*
G75*
G02*
X15997500Y-12171000I-12500J0D01*
G01*
X15997500Y-12171000D02*
G75*
G02*
X16022500Y-12171000I12500J0D01*
G01*
X16120500Y-12802000D02*
G75*
G02*
X16095500Y-12802000I-12500J0D01*
G01*
X16095500Y-12802000D02*
G75*
G02*
X16120500Y-12802000I12500J0D01*
G01*
X16129500Y-13387000D02*
G75*
G02*
X16104500Y-13387000I-12500J0D01*
G01*
X16104500Y-13387000D02*
G75*
G02*
X16129500Y-13387000I12500J0D01*
G01*
X16133500Y-12175000D02*
G75*
G02*
X16108500Y-12175000I-12500J0D01*
G01*
X16108500Y-12175000D02*
G75*
G02*
X16133500Y-12175000I12500J0D01*
G01*
X16133500Y-12275000D02*
G75*
G02*
X16108500Y-12275000I-12500J0D01*
G01*
X16108500Y-12275000D02*
G75*
G02*
X16133500Y-12275000I12500J0D01*
G01*
X16133500Y-12375000D02*
G75*
G02*
X16108500Y-12375000I-12500J0D01*
G01*
X16108500Y-12375000D02*
G75*
G02*
X16133500Y-12375000I12500J0D01*
G01*
X16133500Y-12475000D02*
G75*
G02*
X16108500Y-12475000I-12500J0D01*
G01*
X16108500Y-12475000D02*
G75*
G02*
X16133500Y-12475000I12500J0D01*
G01*
X16133500Y-12575000D02*
G75*
G02*
X16108500Y-12575000I-12500J0D01*
G01*
X16108500Y-12575000D02*
G75*
G02*
X16133500Y-12575000I12500J0D01*
G01*
X16133500Y-12675000D02*
G75*
G02*
X16108500Y-12675000I-12500J0D01*
G01*
X16108500Y-12675000D02*
G75*
G02*
X16133500Y-12675000I12500J0D01*
G01*
X16172500Y-11881000D02*
G75*
G02*
X16147500Y-11881000I-12500J0D01*
G01*
X16147500Y-11881000D02*
G75*
G02*
X16172500Y-11881000I12500J0D01*
G01*
X16202500Y-13300000D02*
G75*
G02*
X16177500Y-13300000I-12500J0D01*
G01*
X16177500Y-13300000D02*
G75*
G02*
X16202500Y-13300000I12500J0D01*
G01*
X16261500Y-13388000D02*
G75*
G02*
X16236500Y-13388000I-12500J0D01*
G01*
X16236500Y-13388000D02*
G75*
G02*
X16261500Y-13388000I12500J0D01*
G01*
X16266500Y-13259993D02*
G75*
G02*
X16241500Y-13259993I-12500J0D01*
G01*
X16241500Y-13259993D02*
G75*
G02*
X16266500Y-13259993I12500J0D01*
G01*
X16322500Y-11881000D02*
G75*
G02*
X16297500Y-11881000I-12500J0D01*
G01*
X16297500Y-11881000D02*
G75*
G02*
X16322500Y-11881000I12500J0D01*
G01*
X16369237Y-13181852D02*
G75*
G02*
X16344237Y-13181852I-12500J0D01*
G01*
X16344237Y-13181852D02*
G75*
G02*
X16369237Y-13181852I12500J0D01*
G01*
X16370500Y-13294000D02*
G75*
G02*
X16345500Y-13294000I-12500J0D01*
G01*
X16345500Y-13294000D02*
G75*
G02*
X16370500Y-13294000I12500J0D01*
G01*
X16416500Y-13123270D02*
G75*
G02*
X16391500Y-13123270I-12500J0D01*
G01*
X16391500Y-13123270D02*
G75*
G02*
X16416500Y-13123270I12500J0D01*
G01*
X16472500Y-11881000D02*
G75*
G02*
X16447500Y-11881000I-12500J0D01*
G01*
X16447500Y-11881000D02*
G75*
G02*
X16472500Y-11881000I12500J0D01*
G01*
X16477500Y-13219000D02*
G75*
G02*
X16452500Y-13219000I-12500J0D01*
G01*
X16452500Y-13219000D02*
G75*
G02*
X16477500Y-13219000I12500J0D01*
G01*
X16523500Y-13038000D02*
G75*
G02*
X16498500Y-13038000I-12500J0D01*
G01*
X16498500Y-13038000D02*
G75*
G02*
X16523500Y-13038000I12500J0D01*
G01*
X16572500Y-12957000D02*
G75*
G02*
X16547500Y-12957000I-12500J0D01*
G01*
X16547500Y-12957000D02*
G75*
G02*
X16572500Y-12957000I12500J0D01*
G01*
X16584500Y-13130000D02*
G75*
G02*
X16559500Y-13130000I-12500J0D01*
G01*
X16559500Y-13130000D02*
G75*
G02*
X16584500Y-13130000I12500J0D01*
G01*
X16622500Y-11881000D02*
G75*
G02*
X16597500Y-11881000I-12500J0D01*
G01*
X16597500Y-11881000D02*
G75*
G02*
X16622500Y-11881000I12500J0D01*
G01*
X16661500Y-12146000D02*
G75*
G02*
X16636500Y-12146000I-12500J0D01*
G01*
X16636500Y-12146000D02*
G75*
G02*
X16661500Y-12146000I12500J0D01*
G01*
X16662500Y-12239000D02*
G75*
G02*
X16637500Y-12239000I-12500J0D01*
G01*
X16637500Y-12239000D02*
G75*
G02*
X16662500Y-12239000I12500J0D01*
G01*
X16662500Y-12339000D02*
G75*
G02*
X16637500Y-12339000I-12500J0D01*
G01*
X16637500Y-12339000D02*
G75*
G02*
X16662500Y-12339000I12500J0D01*
G01*
X16662500Y-12439000D02*
G75*
G02*
X16637500Y-12439000I-12500J0D01*
G01*
X16637500Y-12439000D02*
G75*
G02*
X16662500Y-12439000I12500J0D01*
G01*
X16662500Y-12539000D02*
G75*
G02*
X16637500Y-12539000I-12500J0D01*
G01*
X16637500Y-12539000D02*
G75*
G02*
X16662500Y-12539000I12500J0D01*
G01*
X16662500Y-12639000D02*
G75*
G02*
X16637500Y-12639000I-12500J0D01*
G01*
X16637500Y-12639000D02*
G75*
G02*
X16662500Y-12639000I12500J0D01*
G01*
X16662500Y-12729000D02*
G75*
G02*
X16637500Y-12729000I-12500J0D01*
G01*
X16637500Y-12729000D02*
G75*
G02*
X16662500Y-12729000I12500J0D01*
G01*
X16662500Y-12829000D02*
G75*
G02*
X16637500Y-12829000I-12500J0D01*
G01*
X16637500Y-12829000D02*
G75*
G02*
X16662500Y-12829000I12500J0D01*
G01*
X16662500Y-12900000D02*
G75*
G02*
X16637500Y-12900000I-12500J0D01*
G01*
X16637500Y-12900000D02*
G75*
G02*
X16662500Y-12900000I12500J0D01*
G01*
X16669500Y-13009000D02*
G75*
G02*
X16644500Y-13009000I-12500J0D01*
G01*
X16644500Y-13009000D02*
G75*
G02*
X16669500Y-13009000I12500J0D01*
G01*
X16692500Y-12020000D02*
G75*
G02*
X16667500Y-12020000I-12500J0D01*
G01*
X16667500Y-12020000D02*
G75*
G02*
X16692500Y-12020000I12500J0D01*
G01*
D11*
X12305777Y-14016484D02*
X12305777Y-13816484D01*
X12305777Y-13816484D02*
X12353396Y-13816484D01*
X12353396Y-13816484D02*
X12381967Y-13826008D01*
X12381967Y-13826008D02*
X12401015Y-13845055D01*
X12401015Y-13845055D02*
X12410539Y-13864103D01*
X12410539Y-13864103D02*
X12420062Y-13902198D01*
X12420062Y-13902198D02*
X12420062Y-13930769D01*
X12420062Y-13930769D02*
X12410539Y-13968865D01*
X12410539Y-13968865D02*
X12401015Y-13987912D01*
X12401015Y-13987912D02*
X12381967Y-14006960D01*
X12381967Y-14006960D02*
X12353396Y-14016484D01*
X12353396Y-14016484D02*
X12305777Y-14016484D01*
X12505777Y-14016484D02*
X12505777Y-13883150D01*
X12505777Y-13921246D02*
X12515301Y-13902198D01*
X12515301Y-13902198D02*
X12524824Y-13892674D01*
X12524824Y-13892674D02*
X12543872Y-13883150D01*
X12543872Y-13883150D02*
X12562920Y-13883150D01*
X12629586Y-14016484D02*
X12629586Y-13883150D01*
X12629586Y-13816484D02*
X12620062Y-13826008D01*
X12620062Y-13826008D02*
X12629586Y-13835531D01*
X12629586Y-13835531D02*
X12639110Y-13826008D01*
X12639110Y-13826008D02*
X12629586Y-13816484D01*
X12629586Y-13816484D02*
X12629586Y-13835531D01*
X12753396Y-14016484D02*
X12734348Y-14006960D01*
X12734348Y-14006960D02*
X12724824Y-13987912D01*
X12724824Y-13987912D02*
X12724824Y-13816484D01*
X12858158Y-14016484D02*
X12839110Y-14006960D01*
X12839110Y-14006960D02*
X12829586Y-13987912D01*
X12829586Y-13987912D02*
X12829586Y-13816484D01*
X13086729Y-14016484D02*
X13086729Y-13816484D01*
X13086729Y-13816484D02*
X13153396Y-13959341D01*
X13153396Y-13959341D02*
X13220062Y-13816484D01*
X13220062Y-13816484D02*
X13220062Y-14016484D01*
X13401015Y-14016484D02*
X13401015Y-13911722D01*
X13401015Y-13911722D02*
X13391491Y-13892674D01*
X13391491Y-13892674D02*
X13372443Y-13883150D01*
X13372443Y-13883150D02*
X13334348Y-13883150D01*
X13334348Y-13883150D02*
X13315301Y-13892674D01*
X13401015Y-14006960D02*
X13381967Y-14016484D01*
X13381967Y-14016484D02*
X13334348Y-14016484D01*
X13334348Y-14016484D02*
X13315301Y-14006960D01*
X13315301Y-14006960D02*
X13305777Y-13987912D01*
X13305777Y-13987912D02*
X13305777Y-13968865D01*
X13305777Y-13968865D02*
X13315301Y-13949817D01*
X13315301Y-13949817D02*
X13334348Y-13940293D01*
X13334348Y-13940293D02*
X13381967Y-13940293D01*
X13381967Y-13940293D02*
X13401015Y-13930769D01*
X13496253Y-13883150D02*
X13496253Y-14083150D01*
X13496253Y-13892674D02*
X13515301Y-13883150D01*
X13515301Y-13883150D02*
X13553396Y-13883150D01*
X13553396Y-13883150D02*
X13572443Y-13892674D01*
X13572443Y-13892674D02*
X13581967Y-13902198D01*
X13581967Y-13902198D02*
X13591491Y-13921246D01*
X13591491Y-13921246D02*
X13591491Y-13978388D01*
X13591491Y-13978388D02*
X13581967Y-13997436D01*
X13581967Y-13997436D02*
X13572443Y-14006960D01*
X13572443Y-14006960D02*
X13553396Y-14016484D01*
X13553396Y-14016484D02*
X13515301Y-14016484D01*
X13515301Y-14016484D02*
X13496253Y-14006960D01*
X13677205Y-13997436D02*
X13686729Y-14006960D01*
X13686729Y-14006960D02*
X13677205Y-14016484D01*
X13677205Y-14016484D02*
X13667682Y-14006960D01*
X13667682Y-14006960D02*
X13677205Y-13997436D01*
X13677205Y-13997436D02*
X13677205Y-14016484D01*
X13677205Y-13892674D02*
X13686729Y-13902198D01*
X13686729Y-13902198D02*
X13677205Y-13911722D01*
X13677205Y-13911722D02*
X13667682Y-13902198D01*
X13667682Y-13902198D02*
X13677205Y-13892674D01*
X13677205Y-13892674D02*
X13677205Y-13911722D01*
D10*
X12025000Y-14335000D02*
X12045000Y-14355000D01*
X12045000Y-14335000D02*
X12025000Y-14355000D01*
D11*
X12343872Y-14236484D02*
X12362920Y-14236484D01*
X12362920Y-14236484D02*
X12381967Y-14246008D01*
X12381967Y-14246008D02*
X12391491Y-14255531D01*
X12391491Y-14255531D02*
X12401015Y-14274579D01*
X12401015Y-14274579D02*
X12410539Y-14312674D01*
X12410539Y-14312674D02*
X12410539Y-14360293D01*
X12410539Y-14360293D02*
X12401015Y-14398388D01*
X12401015Y-14398388D02*
X12391491Y-14417436D01*
X12391491Y-14417436D02*
X12381967Y-14426960D01*
X12381967Y-14426960D02*
X12362920Y-14436484D01*
X12362920Y-14436484D02*
X12343872Y-14436484D01*
X12343872Y-14436484D02*
X12324824Y-14426960D01*
X12324824Y-14426960D02*
X12315301Y-14417436D01*
X12315301Y-14417436D02*
X12305777Y-14398388D01*
X12305777Y-14398388D02*
X12296253Y-14360293D01*
X12296253Y-14360293D02*
X12296253Y-14312674D01*
X12296253Y-14312674D02*
X12305777Y-14274579D01*
X12305777Y-14274579D02*
X12315301Y-14255531D01*
X12315301Y-14255531D02*
X12324824Y-14246008D01*
X12324824Y-14246008D02*
X12343872Y-14236484D01*
X12496253Y-14417436D02*
X12505777Y-14426960D01*
X12505777Y-14426960D02*
X12496253Y-14436484D01*
X12496253Y-14436484D02*
X12486729Y-14426960D01*
X12486729Y-14426960D02*
X12496253Y-14417436D01*
X12496253Y-14417436D02*
X12496253Y-14436484D01*
X12581967Y-14255531D02*
X12591491Y-14246008D01*
X12591491Y-14246008D02*
X12610539Y-14236484D01*
X12610539Y-14236484D02*
X12658158Y-14236484D01*
X12658158Y-14236484D02*
X12677205Y-14246008D01*
X12677205Y-14246008D02*
X12686729Y-14255531D01*
X12686729Y-14255531D02*
X12696253Y-14274579D01*
X12696253Y-14274579D02*
X12696253Y-14293627D01*
X12696253Y-14293627D02*
X12686729Y-14322198D01*
X12686729Y-14322198D02*
X12572443Y-14436484D01*
X12572443Y-14436484D02*
X12696253Y-14436484D01*
X12820062Y-14236484D02*
X12839110Y-14236484D01*
X12839110Y-14236484D02*
X12858158Y-14246008D01*
X12858158Y-14246008D02*
X12867682Y-14255531D01*
X12867682Y-14255531D02*
X12877205Y-14274579D01*
X12877205Y-14274579D02*
X12886729Y-14312674D01*
X12886729Y-14312674D02*
X12886729Y-14360293D01*
X12886729Y-14360293D02*
X12877205Y-14398388D01*
X12877205Y-14398388D02*
X12867682Y-14417436D01*
X12867682Y-14417436D02*
X12858158Y-14426960D01*
X12858158Y-14426960D02*
X12839110Y-14436484D01*
X12839110Y-14436484D02*
X12820062Y-14436484D01*
X12820062Y-14436484D02*
X12801015Y-14426960D01*
X12801015Y-14426960D02*
X12791491Y-14417436D01*
X12791491Y-14417436D02*
X12781967Y-14398388D01*
X12781967Y-14398388D02*
X12772443Y-14360293D01*
X12772443Y-14360293D02*
X12772443Y-14312674D01*
X12772443Y-14312674D02*
X12781967Y-14274579D01*
X12781967Y-14274579D02*
X12791491Y-14255531D01*
X12791491Y-14255531D02*
X12801015Y-14246008D01*
X12801015Y-14246008D02*
X12820062Y-14236484D01*
X13010539Y-14236484D02*
X13029586Y-14236484D01*
X13029586Y-14236484D02*
X13048634Y-14246008D01*
X13048634Y-14246008D02*
X13058158Y-14255531D01*
X13058158Y-14255531D02*
X13067682Y-14274579D01*
X13067682Y-14274579D02*
X13077205Y-14312674D01*
X13077205Y-14312674D02*
X13077205Y-14360293D01*
X13077205Y-14360293D02*
X13067682Y-14398388D01*
X13067682Y-14398388D02*
X13058158Y-14417436D01*
X13058158Y-14417436D02*
X13048634Y-14426960D01*
X13048634Y-14426960D02*
X13029586Y-14436484D01*
X13029586Y-14436484D02*
X13010539Y-14436484D01*
X13010539Y-14436484D02*
X12991491Y-14426960D01*
X12991491Y-14426960D02*
X12981967Y-14417436D01*
X12981967Y-14417436D02*
X12972443Y-14398388D01*
X12972443Y-14398388D02*
X12962920Y-14360293D01*
X12962920Y-14360293D02*
X12962920Y-14312674D01*
X12962920Y-14312674D02*
X12972443Y-14274579D01*
X12972443Y-14274579D02*
X12981967Y-14255531D01*
X12981967Y-14255531D02*
X12991491Y-14246008D01*
X12991491Y-14246008D02*
X13010539Y-14236484D01*
X13162920Y-14436484D02*
X13162920Y-14303150D01*
X13162920Y-14322198D02*
X13172443Y-14312674D01*
X13172443Y-14312674D02*
X13191491Y-14303150D01*
X13191491Y-14303150D02*
X13220063Y-14303150D01*
X13220063Y-14303150D02*
X13239110Y-14312674D01*
X13239110Y-14312674D02*
X13248634Y-14331722D01*
X13248634Y-14331722D02*
X13248634Y-14436484D01*
X13248634Y-14331722D02*
X13258158Y-14312674D01*
X13258158Y-14312674D02*
X13277205Y-14303150D01*
X13277205Y-14303150D02*
X13305777Y-14303150D01*
X13305777Y-14303150D02*
X13324824Y-14312674D01*
X13324824Y-14312674D02*
X13334348Y-14331722D01*
X13334348Y-14331722D02*
X13334348Y-14436484D01*
X13429586Y-14436484D02*
X13429586Y-14303150D01*
X13429586Y-14322198D02*
X13439110Y-14312674D01*
X13439110Y-14312674D02*
X13458158Y-14303150D01*
X13458158Y-14303150D02*
X13486729Y-14303150D01*
X13486729Y-14303150D02*
X13505777Y-14312674D01*
X13505777Y-14312674D02*
X13515301Y-14331722D01*
X13515301Y-14331722D02*
X13515301Y-14436484D01*
X13515301Y-14331722D02*
X13524824Y-14312674D01*
X13524824Y-14312674D02*
X13543872Y-14303150D01*
X13543872Y-14303150D02*
X13572443Y-14303150D01*
X13572443Y-14303150D02*
X13591491Y-14312674D01*
X13591491Y-14312674D02*
X13601015Y-14331722D01*
X13601015Y-14331722D02*
X13601015Y-14436484D01*
X13991491Y-14226960D02*
X13820063Y-14484103D01*
X14248634Y-14236484D02*
X14267682Y-14236484D01*
X14267682Y-14236484D02*
X14286729Y-14246008D01*
X14286729Y-14246008D02*
X14296253Y-14255531D01*
X14296253Y-14255531D02*
X14305777Y-14274579D01*
X14305777Y-14274579D02*
X14315301Y-14312674D01*
X14315301Y-14312674D02*
X14315301Y-14360293D01*
X14315301Y-14360293D02*
X14305777Y-14398388D01*
X14305777Y-14398388D02*
X14296253Y-14417436D01*
X14296253Y-14417436D02*
X14286729Y-14426960D01*
X14286729Y-14426960D02*
X14267682Y-14436484D01*
X14267682Y-14436484D02*
X14248634Y-14436484D01*
X14248634Y-14436484D02*
X14229586Y-14426960D01*
X14229586Y-14426960D02*
X14220063Y-14417436D01*
X14220063Y-14417436D02*
X14210539Y-14398388D01*
X14210539Y-14398388D02*
X14201015Y-14360293D01*
X14201015Y-14360293D02*
X14201015Y-14312674D01*
X14201015Y-14312674D02*
X14210539Y-14274579D01*
X14210539Y-14274579D02*
X14220063Y-14255531D01*
X14220063Y-14255531D02*
X14229586Y-14246008D01*
X14229586Y-14246008D02*
X14248634Y-14236484D01*
X14401015Y-14417436D02*
X14410539Y-14426960D01*
X14410539Y-14426960D02*
X14401015Y-14436484D01*
X14401015Y-14436484D02*
X14391491Y-14426960D01*
X14391491Y-14426960D02*
X14401015Y-14417436D01*
X14401015Y-14417436D02*
X14401015Y-14436484D01*
X14534348Y-14236484D02*
X14553396Y-14236484D01*
X14553396Y-14236484D02*
X14572444Y-14246008D01*
X14572444Y-14246008D02*
X14581967Y-14255531D01*
X14581967Y-14255531D02*
X14591491Y-14274579D01*
X14591491Y-14274579D02*
X14601015Y-14312674D01*
X14601015Y-14312674D02*
X14601015Y-14360293D01*
X14601015Y-14360293D02*
X14591491Y-14398388D01*
X14591491Y-14398388D02*
X14581967Y-14417436D01*
X14581967Y-14417436D02*
X14572444Y-14426960D01*
X14572444Y-14426960D02*
X14553396Y-14436484D01*
X14553396Y-14436484D02*
X14534348Y-14436484D01*
X14534348Y-14436484D02*
X14515301Y-14426960D01*
X14515301Y-14426960D02*
X14505777Y-14417436D01*
X14505777Y-14417436D02*
X14496253Y-14398388D01*
X14496253Y-14398388D02*
X14486729Y-14360293D01*
X14486729Y-14360293D02*
X14486729Y-14312674D01*
X14486729Y-14312674D02*
X14496253Y-14274579D01*
X14496253Y-14274579D02*
X14505777Y-14255531D01*
X14505777Y-14255531D02*
X14515301Y-14246008D01*
X14515301Y-14246008D02*
X14534348Y-14236484D01*
X14724825Y-14236484D02*
X14743872Y-14236484D01*
X14743872Y-14236484D02*
X14762920Y-14246008D01*
X14762920Y-14246008D02*
X14772444Y-14255531D01*
X14772444Y-14255531D02*
X14781967Y-14274579D01*
X14781967Y-14274579D02*
X14791491Y-14312674D01*
X14791491Y-14312674D02*
X14791491Y-14360293D01*
X14791491Y-14360293D02*
X14781967Y-14398388D01*
X14781967Y-14398388D02*
X14772444Y-14417436D01*
X14772444Y-14417436D02*
X14762920Y-14426960D01*
X14762920Y-14426960D02*
X14743872Y-14436484D01*
X14743872Y-14436484D02*
X14724825Y-14436484D01*
X14724825Y-14436484D02*
X14705777Y-14426960D01*
X14705777Y-14426960D02*
X14696253Y-14417436D01*
X14696253Y-14417436D02*
X14686729Y-14398388D01*
X14686729Y-14398388D02*
X14677206Y-14360293D01*
X14677206Y-14360293D02*
X14677206Y-14312674D01*
X14677206Y-14312674D02*
X14686729Y-14274579D01*
X14686729Y-14274579D02*
X14696253Y-14255531D01*
X14696253Y-14255531D02*
X14705777Y-14246008D01*
X14705777Y-14246008D02*
X14724825Y-14236484D01*
X14858158Y-14236484D02*
X14991491Y-14236484D01*
X14991491Y-14236484D02*
X14905777Y-14436484D01*
X15077206Y-14436484D02*
X15115301Y-14436484D01*
X15115301Y-14436484D02*
X15134348Y-14426960D01*
X15134348Y-14426960D02*
X15143872Y-14417436D01*
X15143872Y-14417436D02*
X15162920Y-14388865D01*
X15162920Y-14388865D02*
X15172444Y-14350769D01*
X15172444Y-14350769D02*
X15172444Y-14274579D01*
X15172444Y-14274579D02*
X15162920Y-14255531D01*
X15162920Y-14255531D02*
X15153396Y-14246008D01*
X15153396Y-14246008D02*
X15134348Y-14236484D01*
X15134348Y-14236484D02*
X15096253Y-14236484D01*
X15096253Y-14236484D02*
X15077206Y-14246008D01*
X15077206Y-14246008D02*
X15067682Y-14255531D01*
X15067682Y-14255531D02*
X15058158Y-14274579D01*
X15058158Y-14274579D02*
X15058158Y-14322198D01*
X15058158Y-14322198D02*
X15067682Y-14341246D01*
X15067682Y-14341246D02*
X15077206Y-14350769D01*
X15077206Y-14350769D02*
X15096253Y-14360293D01*
X15096253Y-14360293D02*
X15134348Y-14360293D01*
X15134348Y-14360293D02*
X15153396Y-14350769D01*
X15153396Y-14350769D02*
X15162920Y-14341246D01*
X15162920Y-14341246D02*
X15172444Y-14322198D01*
X15248634Y-14236484D02*
X15248634Y-14274579D01*
X15324825Y-14236484D02*
X15324825Y-14274579D01*
X15620063Y-14512674D02*
X15610539Y-14503150D01*
X15610539Y-14503150D02*
X15591491Y-14474579D01*
X15591491Y-14474579D02*
X15581968Y-14455531D01*
X15581968Y-14455531D02*
X15572444Y-14426960D01*
X15572444Y-14426960D02*
X15562920Y-14379341D01*
X15562920Y-14379341D02*
X15562920Y-14341246D01*
X15562920Y-14341246D02*
X15572444Y-14293627D01*
X15572444Y-14293627D02*
X15581968Y-14265055D01*
X15581968Y-14265055D02*
X15591491Y-14246008D01*
X15591491Y-14246008D02*
X15610539Y-14217436D01*
X15610539Y-14217436D02*
X15620063Y-14207912D01*
X15781968Y-14236484D02*
X15743872Y-14236484D01*
X15743872Y-14236484D02*
X15724825Y-14246008D01*
X15724825Y-14246008D02*
X15715301Y-14255531D01*
X15715301Y-14255531D02*
X15696253Y-14284103D01*
X15696253Y-14284103D02*
X15686729Y-14322198D01*
X15686729Y-14322198D02*
X15686729Y-14398388D01*
X15686729Y-14398388D02*
X15696253Y-14417436D01*
X15696253Y-14417436D02*
X15705777Y-14426960D01*
X15705777Y-14426960D02*
X15724825Y-14436484D01*
X15724825Y-14436484D02*
X15762920Y-14436484D01*
X15762920Y-14436484D02*
X15781968Y-14426960D01*
X15781968Y-14426960D02*
X15791491Y-14417436D01*
X15791491Y-14417436D02*
X15801015Y-14398388D01*
X15801015Y-14398388D02*
X15801015Y-14350769D01*
X15801015Y-14350769D02*
X15791491Y-14331722D01*
X15791491Y-14331722D02*
X15781968Y-14322198D01*
X15781968Y-14322198D02*
X15762920Y-14312674D01*
X15762920Y-14312674D02*
X15724825Y-14312674D01*
X15724825Y-14312674D02*
X15705777Y-14322198D01*
X15705777Y-14322198D02*
X15696253Y-14331722D01*
X15696253Y-14331722D02*
X15686729Y-14350769D01*
X16039110Y-14436484D02*
X16039110Y-14236484D01*
X16124825Y-14436484D02*
X16124825Y-14331722D01*
X16124825Y-14331722D02*
X16115301Y-14312674D01*
X16115301Y-14312674D02*
X16096253Y-14303150D01*
X16096253Y-14303150D02*
X16067682Y-14303150D01*
X16067682Y-14303150D02*
X16048634Y-14312674D01*
X16048634Y-14312674D02*
X16039110Y-14322198D01*
X16248634Y-14436484D02*
X16229587Y-14426960D01*
X16229587Y-14426960D02*
X16220063Y-14417436D01*
X16220063Y-14417436D02*
X16210539Y-14398388D01*
X16210539Y-14398388D02*
X16210539Y-14341246D01*
X16210539Y-14341246D02*
X16220063Y-14322198D01*
X16220063Y-14322198D02*
X16229587Y-14312674D01*
X16229587Y-14312674D02*
X16248634Y-14303150D01*
X16248634Y-14303150D02*
X16277206Y-14303150D01*
X16277206Y-14303150D02*
X16296253Y-14312674D01*
X16296253Y-14312674D02*
X16305777Y-14322198D01*
X16305777Y-14322198D02*
X16315301Y-14341246D01*
X16315301Y-14341246D02*
X16315301Y-14398388D01*
X16315301Y-14398388D02*
X16305777Y-14417436D01*
X16305777Y-14417436D02*
X16296253Y-14426960D01*
X16296253Y-14426960D02*
X16277206Y-14436484D01*
X16277206Y-14436484D02*
X16248634Y-14436484D01*
X16429587Y-14436484D02*
X16410539Y-14426960D01*
X16410539Y-14426960D02*
X16401015Y-14407912D01*
X16401015Y-14407912D02*
X16401015Y-14236484D01*
X16581968Y-14426960D02*
X16562920Y-14436484D01*
X16562920Y-14436484D02*
X16524825Y-14436484D01*
X16524825Y-14436484D02*
X16505777Y-14426960D01*
X16505777Y-14426960D02*
X16496253Y-14407912D01*
X16496253Y-14407912D02*
X16496253Y-14331722D01*
X16496253Y-14331722D02*
X16505777Y-14312674D01*
X16505777Y-14312674D02*
X16524825Y-14303150D01*
X16524825Y-14303150D02*
X16562920Y-14303150D01*
X16562920Y-14303150D02*
X16581968Y-14312674D01*
X16581968Y-14312674D02*
X16591491Y-14331722D01*
X16591491Y-14331722D02*
X16591491Y-14350769D01*
X16591491Y-14350769D02*
X16496253Y-14369817D01*
X16667682Y-14426960D02*
X16686730Y-14436484D01*
X16686730Y-14436484D02*
X16724825Y-14436484D01*
X16724825Y-14436484D02*
X16743872Y-14426960D01*
X16743872Y-14426960D02*
X16753396Y-14407912D01*
X16753396Y-14407912D02*
X16753396Y-14398388D01*
X16753396Y-14398388D02*
X16743872Y-14379341D01*
X16743872Y-14379341D02*
X16724825Y-14369817D01*
X16724825Y-14369817D02*
X16696253Y-14369817D01*
X16696253Y-14369817D02*
X16677206Y-14360293D01*
X16677206Y-14360293D02*
X16667682Y-14341246D01*
X16667682Y-14341246D02*
X16667682Y-14331722D01*
X16667682Y-14331722D02*
X16677206Y-14312674D01*
X16677206Y-14312674D02*
X16696253Y-14303150D01*
X16696253Y-14303150D02*
X16724825Y-14303150D01*
X16724825Y-14303150D02*
X16743872Y-14312674D01*
X16820063Y-14512674D02*
X16829587Y-14503150D01*
X16829587Y-14503150D02*
X16848634Y-14474579D01*
X16848634Y-14474579D02*
X16858158Y-14455531D01*
X16858158Y-14455531D02*
X16867682Y-14426960D01*
X16867682Y-14426960D02*
X16877206Y-14379341D01*
X16877206Y-14379341D02*
X16877206Y-14341246D01*
X16877206Y-14341246D02*
X16867682Y-14293627D01*
X16867682Y-14293627D02*
X16858158Y-14265055D01*
X16858158Y-14265055D02*
X16848634Y-14246008D01*
X16848634Y-14246008D02*
X16829587Y-14217436D01*
X16829587Y-14217436D02*
X16820063Y-14207912D01*
D10*
X12045000Y-14609000D02*
G75*
G02*
X12020000Y-14609000I-12500J0D01*
G01*
X12020000Y-14609000D02*
G75*
G02*
X12045000Y-14609000I12500J0D01*
G01*
D11*
X12343872Y-14500484D02*
X12362920Y-14500484D01*
X12362920Y-14500484D02*
X12381967Y-14510008D01*
X12381967Y-14510008D02*
X12391491Y-14519531D01*
X12391491Y-14519531D02*
X12401015Y-14538579D01*
X12401015Y-14538579D02*
X12410539Y-14576674D01*
X12410539Y-14576674D02*
X12410539Y-14624293D01*
X12410539Y-14624293D02*
X12401015Y-14662388D01*
X12401015Y-14662388D02*
X12391491Y-14681436D01*
X12391491Y-14681436D02*
X12381967Y-14690960D01*
X12381967Y-14690960D02*
X12362920Y-14700484D01*
X12362920Y-14700484D02*
X12343872Y-14700484D01*
X12343872Y-14700484D02*
X12324824Y-14690960D01*
X12324824Y-14690960D02*
X12315301Y-14681436D01*
X12315301Y-14681436D02*
X12305777Y-14662388D01*
X12305777Y-14662388D02*
X12296253Y-14624293D01*
X12296253Y-14624293D02*
X12296253Y-14576674D01*
X12296253Y-14576674D02*
X12305777Y-14538579D01*
X12305777Y-14538579D02*
X12315301Y-14519531D01*
X12315301Y-14519531D02*
X12324824Y-14510008D01*
X12324824Y-14510008D02*
X12343872Y-14500484D01*
X12496253Y-14681436D02*
X12505777Y-14690960D01*
X12505777Y-14690960D02*
X12496253Y-14700484D01*
X12496253Y-14700484D02*
X12486729Y-14690960D01*
X12486729Y-14690960D02*
X12496253Y-14681436D01*
X12496253Y-14681436D02*
X12496253Y-14700484D01*
X12581967Y-14519531D02*
X12591491Y-14510008D01*
X12591491Y-14510008D02*
X12610539Y-14500484D01*
X12610539Y-14500484D02*
X12658158Y-14500484D01*
X12658158Y-14500484D02*
X12677205Y-14510008D01*
X12677205Y-14510008D02*
X12686729Y-14519531D01*
X12686729Y-14519531D02*
X12696253Y-14538579D01*
X12696253Y-14538579D02*
X12696253Y-14557627D01*
X12696253Y-14557627D02*
X12686729Y-14586198D01*
X12686729Y-14586198D02*
X12572443Y-14700484D01*
X12572443Y-14700484D02*
X12696253Y-14700484D01*
X12877205Y-14500484D02*
X12781967Y-14500484D01*
X12781967Y-14500484D02*
X12772443Y-14595722D01*
X12772443Y-14595722D02*
X12781967Y-14586198D01*
X12781967Y-14586198D02*
X12801015Y-14576674D01*
X12801015Y-14576674D02*
X12848634Y-14576674D01*
X12848634Y-14576674D02*
X12867682Y-14586198D01*
X12867682Y-14586198D02*
X12877205Y-14595722D01*
X12877205Y-14595722D02*
X12886729Y-14614769D01*
X12886729Y-14614769D02*
X12886729Y-14662388D01*
X12886729Y-14662388D02*
X12877205Y-14681436D01*
X12877205Y-14681436D02*
X12867682Y-14690960D01*
X12867682Y-14690960D02*
X12848634Y-14700484D01*
X12848634Y-14700484D02*
X12801015Y-14700484D01*
X12801015Y-14700484D02*
X12781967Y-14690960D01*
X12781967Y-14690960D02*
X12772443Y-14681436D01*
X13010539Y-14500484D02*
X13029586Y-14500484D01*
X13029586Y-14500484D02*
X13048634Y-14510008D01*
X13048634Y-14510008D02*
X13058158Y-14519531D01*
X13058158Y-14519531D02*
X13067682Y-14538579D01*
X13067682Y-14538579D02*
X13077205Y-14576674D01*
X13077205Y-14576674D02*
X13077205Y-14624293D01*
X13077205Y-14624293D02*
X13067682Y-14662388D01*
X13067682Y-14662388D02*
X13058158Y-14681436D01*
X13058158Y-14681436D02*
X13048634Y-14690960D01*
X13048634Y-14690960D02*
X13029586Y-14700484D01*
X13029586Y-14700484D02*
X13010539Y-14700484D01*
X13010539Y-14700484D02*
X12991491Y-14690960D01*
X12991491Y-14690960D02*
X12981967Y-14681436D01*
X12981967Y-14681436D02*
X12972443Y-14662388D01*
X12972443Y-14662388D02*
X12962920Y-14624293D01*
X12962920Y-14624293D02*
X12962920Y-14576674D01*
X12962920Y-14576674D02*
X12972443Y-14538579D01*
X12972443Y-14538579D02*
X12981967Y-14519531D01*
X12981967Y-14519531D02*
X12991491Y-14510008D01*
X12991491Y-14510008D02*
X13010539Y-14500484D01*
X13162920Y-14700484D02*
X13162920Y-14567150D01*
X13162920Y-14586198D02*
X13172443Y-14576674D01*
X13172443Y-14576674D02*
X13191491Y-14567150D01*
X13191491Y-14567150D02*
X13220063Y-14567150D01*
X13220063Y-14567150D02*
X13239110Y-14576674D01*
X13239110Y-14576674D02*
X13248634Y-14595722D01*
X13248634Y-14595722D02*
X13248634Y-14700484D01*
X13248634Y-14595722D02*
X13258158Y-14576674D01*
X13258158Y-14576674D02*
X13277205Y-14567150D01*
X13277205Y-14567150D02*
X13305777Y-14567150D01*
X13305777Y-14567150D02*
X13324824Y-14576674D01*
X13324824Y-14576674D02*
X13334348Y-14595722D01*
X13334348Y-14595722D02*
X13334348Y-14700484D01*
X13429586Y-14700484D02*
X13429586Y-14567150D01*
X13429586Y-14586198D02*
X13439110Y-14576674D01*
X13439110Y-14576674D02*
X13458158Y-14567150D01*
X13458158Y-14567150D02*
X13486729Y-14567150D01*
X13486729Y-14567150D02*
X13505777Y-14576674D01*
X13505777Y-14576674D02*
X13515301Y-14595722D01*
X13515301Y-14595722D02*
X13515301Y-14700484D01*
X13515301Y-14595722D02*
X13524824Y-14576674D01*
X13524824Y-14576674D02*
X13543872Y-14567150D01*
X13543872Y-14567150D02*
X13572443Y-14567150D01*
X13572443Y-14567150D02*
X13591491Y-14576674D01*
X13591491Y-14576674D02*
X13601015Y-14595722D01*
X13601015Y-14595722D02*
X13601015Y-14700484D01*
X13991491Y-14490960D02*
X13820063Y-14748103D01*
X14248634Y-14500484D02*
X14267682Y-14500484D01*
X14267682Y-14500484D02*
X14286729Y-14510008D01*
X14286729Y-14510008D02*
X14296253Y-14519531D01*
X14296253Y-14519531D02*
X14305777Y-14538579D01*
X14305777Y-14538579D02*
X14315301Y-14576674D01*
X14315301Y-14576674D02*
X14315301Y-14624293D01*
X14315301Y-14624293D02*
X14305777Y-14662388D01*
X14305777Y-14662388D02*
X14296253Y-14681436D01*
X14296253Y-14681436D02*
X14286729Y-14690960D01*
X14286729Y-14690960D02*
X14267682Y-14700484D01*
X14267682Y-14700484D02*
X14248634Y-14700484D01*
X14248634Y-14700484D02*
X14229586Y-14690960D01*
X14229586Y-14690960D02*
X14220063Y-14681436D01*
X14220063Y-14681436D02*
X14210539Y-14662388D01*
X14210539Y-14662388D02*
X14201015Y-14624293D01*
X14201015Y-14624293D02*
X14201015Y-14576674D01*
X14201015Y-14576674D02*
X14210539Y-14538579D01*
X14210539Y-14538579D02*
X14220063Y-14519531D01*
X14220063Y-14519531D02*
X14229586Y-14510008D01*
X14229586Y-14510008D02*
X14248634Y-14500484D01*
X14401015Y-14681436D02*
X14410539Y-14690960D01*
X14410539Y-14690960D02*
X14401015Y-14700484D01*
X14401015Y-14700484D02*
X14391491Y-14690960D01*
X14391491Y-14690960D02*
X14401015Y-14681436D01*
X14401015Y-14681436D02*
X14401015Y-14700484D01*
X14534348Y-14500484D02*
X14553396Y-14500484D01*
X14553396Y-14500484D02*
X14572444Y-14510008D01*
X14572444Y-14510008D02*
X14581967Y-14519531D01*
X14581967Y-14519531D02*
X14591491Y-14538579D01*
X14591491Y-14538579D02*
X14601015Y-14576674D01*
X14601015Y-14576674D02*
X14601015Y-14624293D01*
X14601015Y-14624293D02*
X14591491Y-14662388D01*
X14591491Y-14662388D02*
X14581967Y-14681436D01*
X14581967Y-14681436D02*
X14572444Y-14690960D01*
X14572444Y-14690960D02*
X14553396Y-14700484D01*
X14553396Y-14700484D02*
X14534348Y-14700484D01*
X14534348Y-14700484D02*
X14515301Y-14690960D01*
X14515301Y-14690960D02*
X14505777Y-14681436D01*
X14505777Y-14681436D02*
X14496253Y-14662388D01*
X14496253Y-14662388D02*
X14486729Y-14624293D01*
X14486729Y-14624293D02*
X14486729Y-14576674D01*
X14486729Y-14576674D02*
X14496253Y-14538579D01*
X14496253Y-14538579D02*
X14505777Y-14519531D01*
X14505777Y-14519531D02*
X14515301Y-14510008D01*
X14515301Y-14510008D02*
X14534348Y-14500484D01*
X14724825Y-14500484D02*
X14743872Y-14500484D01*
X14743872Y-14500484D02*
X14762920Y-14510008D01*
X14762920Y-14510008D02*
X14772444Y-14519531D01*
X14772444Y-14519531D02*
X14781967Y-14538579D01*
X14781967Y-14538579D02*
X14791491Y-14576674D01*
X14791491Y-14576674D02*
X14791491Y-14624293D01*
X14791491Y-14624293D02*
X14781967Y-14662388D01*
X14781967Y-14662388D02*
X14772444Y-14681436D01*
X14772444Y-14681436D02*
X14762920Y-14690960D01*
X14762920Y-14690960D02*
X14743872Y-14700484D01*
X14743872Y-14700484D02*
X14724825Y-14700484D01*
X14724825Y-14700484D02*
X14705777Y-14690960D01*
X14705777Y-14690960D02*
X14696253Y-14681436D01*
X14696253Y-14681436D02*
X14686729Y-14662388D01*
X14686729Y-14662388D02*
X14677206Y-14624293D01*
X14677206Y-14624293D02*
X14677206Y-14576674D01*
X14677206Y-14576674D02*
X14686729Y-14538579D01*
X14686729Y-14538579D02*
X14696253Y-14519531D01*
X14696253Y-14519531D02*
X14705777Y-14510008D01*
X14705777Y-14510008D02*
X14724825Y-14500484D01*
X14886729Y-14700484D02*
X14924825Y-14700484D01*
X14924825Y-14700484D02*
X14943872Y-14690960D01*
X14943872Y-14690960D02*
X14953396Y-14681436D01*
X14953396Y-14681436D02*
X14972444Y-14652865D01*
X14972444Y-14652865D02*
X14981967Y-14614769D01*
X14981967Y-14614769D02*
X14981967Y-14538579D01*
X14981967Y-14538579D02*
X14972444Y-14519531D01*
X14972444Y-14519531D02*
X14962920Y-14510008D01*
X14962920Y-14510008D02*
X14943872Y-14500484D01*
X14943872Y-14500484D02*
X14905777Y-14500484D01*
X14905777Y-14500484D02*
X14886729Y-14510008D01*
X14886729Y-14510008D02*
X14877206Y-14519531D01*
X14877206Y-14519531D02*
X14867682Y-14538579D01*
X14867682Y-14538579D02*
X14867682Y-14586198D01*
X14867682Y-14586198D02*
X14877206Y-14605246D01*
X14877206Y-14605246D02*
X14886729Y-14614769D01*
X14886729Y-14614769D02*
X14905777Y-14624293D01*
X14905777Y-14624293D02*
X14943872Y-14624293D01*
X14943872Y-14624293D02*
X14962920Y-14614769D01*
X14962920Y-14614769D02*
X14972444Y-14605246D01*
X14972444Y-14605246D02*
X14981967Y-14586198D01*
X15096253Y-14586198D02*
X15077206Y-14576674D01*
X15077206Y-14576674D02*
X15067682Y-14567150D01*
X15067682Y-14567150D02*
X15058158Y-14548103D01*
X15058158Y-14548103D02*
X15058158Y-14538579D01*
X15058158Y-14538579D02*
X15067682Y-14519531D01*
X15067682Y-14519531D02*
X15077206Y-14510008D01*
X15077206Y-14510008D02*
X15096253Y-14500484D01*
X15096253Y-14500484D02*
X15134348Y-14500484D01*
X15134348Y-14500484D02*
X15153396Y-14510008D01*
X15153396Y-14510008D02*
X15162920Y-14519531D01*
X15162920Y-14519531D02*
X15172444Y-14538579D01*
X15172444Y-14538579D02*
X15172444Y-14548103D01*
X15172444Y-14548103D02*
X15162920Y-14567150D01*
X15162920Y-14567150D02*
X15153396Y-14576674D01*
X15153396Y-14576674D02*
X15134348Y-14586198D01*
X15134348Y-14586198D02*
X15096253Y-14586198D01*
X15096253Y-14586198D02*
X15077206Y-14595722D01*
X15077206Y-14595722D02*
X15067682Y-14605246D01*
X15067682Y-14605246D02*
X15058158Y-14624293D01*
X15058158Y-14624293D02*
X15058158Y-14662388D01*
X15058158Y-14662388D02*
X15067682Y-14681436D01*
X15067682Y-14681436D02*
X15077206Y-14690960D01*
X15077206Y-14690960D02*
X15096253Y-14700484D01*
X15096253Y-14700484D02*
X15134348Y-14700484D01*
X15134348Y-14700484D02*
X15153396Y-14690960D01*
X15153396Y-14690960D02*
X15162920Y-14681436D01*
X15162920Y-14681436D02*
X15172444Y-14662388D01*
X15172444Y-14662388D02*
X15172444Y-14624293D01*
X15172444Y-14624293D02*
X15162920Y-14605246D01*
X15162920Y-14605246D02*
X15153396Y-14595722D01*
X15153396Y-14595722D02*
X15134348Y-14586198D01*
X15248634Y-14500484D02*
X15248634Y-14538579D01*
X15324825Y-14500484D02*
X15324825Y-14538579D01*
X15620063Y-14776674D02*
X15610539Y-14767150D01*
X15610539Y-14767150D02*
X15591491Y-14738579D01*
X15591491Y-14738579D02*
X15581968Y-14719531D01*
X15581968Y-14719531D02*
X15572444Y-14690960D01*
X15572444Y-14690960D02*
X15562920Y-14643341D01*
X15562920Y-14643341D02*
X15562920Y-14605246D01*
X15562920Y-14605246D02*
X15572444Y-14557627D01*
X15572444Y-14557627D02*
X15581968Y-14529055D01*
X15581968Y-14529055D02*
X15591491Y-14510008D01*
X15591491Y-14510008D02*
X15610539Y-14481436D01*
X15610539Y-14481436D02*
X15620063Y-14471912D01*
X15801015Y-14700484D02*
X15686729Y-14700484D01*
X15743872Y-14700484D02*
X15743872Y-14500484D01*
X15743872Y-14500484D02*
X15724825Y-14529055D01*
X15724825Y-14529055D02*
X15705777Y-14548103D01*
X15705777Y-14548103D02*
X15686729Y-14557627D01*
X15991491Y-14700484D02*
X15877206Y-14700484D01*
X15934348Y-14700484D02*
X15934348Y-14500484D01*
X15934348Y-14500484D02*
X15915301Y-14529055D01*
X15915301Y-14529055D02*
X15896253Y-14548103D01*
X15896253Y-14548103D02*
X15877206Y-14557627D01*
X16086729Y-14700484D02*
X16124825Y-14700484D01*
X16124825Y-14700484D02*
X16143872Y-14690960D01*
X16143872Y-14690960D02*
X16153396Y-14681436D01*
X16153396Y-14681436D02*
X16172444Y-14652865D01*
X16172444Y-14652865D02*
X16181968Y-14614769D01*
X16181968Y-14614769D02*
X16181968Y-14538579D01*
X16181968Y-14538579D02*
X16172444Y-14519531D01*
X16172444Y-14519531D02*
X16162920Y-14510008D01*
X16162920Y-14510008D02*
X16143872Y-14500484D01*
X16143872Y-14500484D02*
X16105777Y-14500484D01*
X16105777Y-14500484D02*
X16086729Y-14510008D01*
X16086729Y-14510008D02*
X16077206Y-14519531D01*
X16077206Y-14519531D02*
X16067682Y-14538579D01*
X16067682Y-14538579D02*
X16067682Y-14586198D01*
X16067682Y-14586198D02*
X16077206Y-14605246D01*
X16077206Y-14605246D02*
X16086729Y-14614769D01*
X16086729Y-14614769D02*
X16105777Y-14624293D01*
X16105777Y-14624293D02*
X16143872Y-14624293D01*
X16143872Y-14624293D02*
X16162920Y-14614769D01*
X16162920Y-14614769D02*
X16172444Y-14605246D01*
X16172444Y-14605246D02*
X16181968Y-14586198D01*
X16420063Y-14700484D02*
X16420063Y-14500484D01*
X16505777Y-14700484D02*
X16505777Y-14595722D01*
X16505777Y-14595722D02*
X16496253Y-14576674D01*
X16496253Y-14576674D02*
X16477206Y-14567150D01*
X16477206Y-14567150D02*
X16448634Y-14567150D01*
X16448634Y-14567150D02*
X16429587Y-14576674D01*
X16429587Y-14576674D02*
X16420063Y-14586198D01*
X16629587Y-14700484D02*
X16610539Y-14690960D01*
X16610539Y-14690960D02*
X16601015Y-14681436D01*
X16601015Y-14681436D02*
X16591491Y-14662388D01*
X16591491Y-14662388D02*
X16591491Y-14605246D01*
X16591491Y-14605246D02*
X16601015Y-14586198D01*
X16601015Y-14586198D02*
X16610539Y-14576674D01*
X16610539Y-14576674D02*
X16629587Y-14567150D01*
X16629587Y-14567150D02*
X16658158Y-14567150D01*
X16658158Y-14567150D02*
X16677206Y-14576674D01*
X16677206Y-14576674D02*
X16686730Y-14586198D01*
X16686730Y-14586198D02*
X16696253Y-14605246D01*
X16696253Y-14605246D02*
X16696253Y-14662388D01*
X16696253Y-14662388D02*
X16686730Y-14681436D01*
X16686730Y-14681436D02*
X16677206Y-14690960D01*
X16677206Y-14690960D02*
X16658158Y-14700484D01*
X16658158Y-14700484D02*
X16629587Y-14700484D01*
X16810539Y-14700484D02*
X16791492Y-14690960D01*
X16791492Y-14690960D02*
X16781968Y-14671912D01*
X16781968Y-14671912D02*
X16781968Y-14500484D01*
X16962920Y-14690960D02*
X16943873Y-14700484D01*
X16943873Y-14700484D02*
X16905777Y-14700484D01*
X16905777Y-14700484D02*
X16886730Y-14690960D01*
X16886730Y-14690960D02*
X16877206Y-14671912D01*
X16877206Y-14671912D02*
X16877206Y-14595722D01*
X16877206Y-14595722D02*
X16886730Y-14576674D01*
X16886730Y-14576674D02*
X16905777Y-14567150D01*
X16905777Y-14567150D02*
X16943873Y-14567150D01*
X16943873Y-14567150D02*
X16962920Y-14576674D01*
X16962920Y-14576674D02*
X16972444Y-14595722D01*
X16972444Y-14595722D02*
X16972444Y-14614769D01*
X16972444Y-14614769D02*
X16877206Y-14633817D01*
X17048634Y-14690960D02*
X17067682Y-14700484D01*
X17067682Y-14700484D02*
X17105777Y-14700484D01*
X17105777Y-14700484D02*
X17124825Y-14690960D01*
X17124825Y-14690960D02*
X17134349Y-14671912D01*
X17134349Y-14671912D02*
X17134349Y-14662388D01*
X17134349Y-14662388D02*
X17124825Y-14643341D01*
X17124825Y-14643341D02*
X17105777Y-14633817D01*
X17105777Y-14633817D02*
X17077206Y-14633817D01*
X17077206Y-14633817D02*
X17058158Y-14624293D01*
X17058158Y-14624293D02*
X17048634Y-14605246D01*
X17048634Y-14605246D02*
X17048634Y-14595722D01*
X17048634Y-14595722D02*
X17058158Y-14576674D01*
X17058158Y-14576674D02*
X17077206Y-14567150D01*
X17077206Y-14567150D02*
X17105777Y-14567150D01*
X17105777Y-14567150D02*
X17124825Y-14576674D01*
X17201015Y-14776674D02*
X17210539Y-14767150D01*
X17210539Y-14767150D02*
X17229587Y-14738579D01*
X17229587Y-14738579D02*
X17239111Y-14719531D01*
X17239111Y-14719531D02*
X17248634Y-14690960D01*
X17248634Y-14690960D02*
X17258158Y-14643341D01*
X17258158Y-14643341D02*
X17258158Y-14605246D01*
X17258158Y-14605246D02*
X17248634Y-14557627D01*
X17248634Y-14557627D02*
X17239111Y-14529055D01*
X17239111Y-14529055D02*
X17229587Y-14510008D01*
X17229587Y-14510008D02*
X17210539Y-14481436D01*
X17210539Y-14481436D02*
X17201015Y-14471912D01*
M02*
