%TF.GenerationSoftware,KiCad,Pcbnew,8.0.0*%
%TF.CreationDate,2024-03-06T23:01:12+04:00*%
%TF.ProjectId,gbc-cm4-aio-flex,6762632d-636d-4342-9d61-696f2d666c65,rev?*%
%TF.SameCoordinates,Original*%
%TF.FileFunction,Paste,Top*%
%TF.FilePolarity,Positive*%
%FSLAX46Y46*%
G04 Gerber Fmt 4.6, Leading zero omitted, Abs format (unit mm)*
G04 Created by KiCad (PCBNEW 8.0.0) date 2024-03-06 23:01:12*
%MOMM*%
%LPD*%
G01*
G04 APERTURE LIST*
G04 Aperture macros list*
%AMRoundRect*
0 Rectangle with rounded corners*
0 $1 Rounding radius*
0 $2 $3 $4 $5 $6 $7 $8 $9 X,Y pos of 4 corners*
0 Add a 4 corners polygon primitive as box body*
4,1,4,$2,$3,$4,$5,$6,$7,$8,$9,$2,$3,0*
0 Add four circle primitives for the rounded corners*
1,1,$1+$1,$2,$3*
1,1,$1+$1,$4,$5*
1,1,$1+$1,$6,$7*
1,1,$1+$1,$8,$9*
0 Add four rect primitives between the rounded corners*
20,1,$1+$1,$2,$3,$4,$5,0*
20,1,$1+$1,$4,$5,$6,$7,0*
20,1,$1+$1,$6,$7,$8,$9,0*
20,1,$1+$1,$8,$9,$2,$3,0*%
G04 Aperture macros list end*
%ADD10R,0.750000X0.550000*%
%ADD11R,0.220000X0.500000*%
%ADD12R,0.300000X1.300000*%
%ADD13R,2.000000X4.000000*%
%ADD14RoundRect,0.200000X0.200000X0.275000X-0.200000X0.275000X-0.200000X-0.275000X0.200000X-0.275000X0*%
%ADD15RoundRect,0.200000X-0.275000X0.200000X-0.275000X-0.200000X0.275000X-0.200000X0.275000X0.200000X0*%
%ADD16RoundRect,0.150000X0.587500X0.150000X-0.587500X0.150000X-0.587500X-0.150000X0.587500X-0.150000X0*%
%ADD17RoundRect,0.200000X0.275000X-0.200000X0.275000X0.200000X-0.275000X0.200000X-0.275000X-0.200000X0*%
G04 APERTURE END LIST*
D10*
%TO.C,J2*%
X152585000Y-138715000D03*
X152585000Y-141065000D03*
X143335000Y-141065000D03*
X143335000Y-138715000D03*
D11*
X151760000Y-138690000D03*
X151760000Y-141090000D03*
X151360000Y-138690000D03*
X151360000Y-141090000D03*
X150960000Y-138690000D03*
X150960000Y-141090000D03*
X150560000Y-138690000D03*
X150560000Y-141090000D03*
X150160000Y-138690000D03*
X150160000Y-141090000D03*
X149760000Y-138690000D03*
X149760000Y-141090000D03*
X149360000Y-138690000D03*
X149360000Y-141090000D03*
X148960000Y-138690000D03*
X148960000Y-141090000D03*
X148560000Y-138690000D03*
X148560000Y-141090000D03*
X148160000Y-138690000D03*
X148160000Y-141090000D03*
X147760000Y-138690000D03*
X147760000Y-141090000D03*
X147360000Y-138690000D03*
X147360000Y-141090000D03*
X146960000Y-138690000D03*
X146960000Y-141090000D03*
X146560000Y-138690000D03*
X146560000Y-141090000D03*
X146160000Y-138690000D03*
X146160000Y-141090000D03*
X145760000Y-138690000D03*
X145760000Y-141090000D03*
X145360000Y-138690000D03*
X145360000Y-141090000D03*
X144960000Y-138690000D03*
X144960000Y-141090000D03*
X144560000Y-138690000D03*
X144560000Y-141090000D03*
X144160000Y-138690000D03*
X144160000Y-141090000D03*
%TD*%
D12*
%TO.C,J3*%
X166100000Y-120250000D03*
X165600000Y-120250000D03*
X165100000Y-120250000D03*
X164100000Y-120250000D03*
X163600000Y-120250000D03*
X163100000Y-120250000D03*
X162600000Y-120250000D03*
X162100000Y-120250000D03*
X161600000Y-120250000D03*
X161100000Y-120250000D03*
X160600000Y-120250000D03*
X160100000Y-120250000D03*
X159600000Y-120250000D03*
X159100000Y-120250000D03*
X158600000Y-120250000D03*
X158100000Y-120250000D03*
X157600000Y-120250000D03*
X157100000Y-120250000D03*
X156600000Y-120250000D03*
X156100000Y-120250000D03*
X155600000Y-120250000D03*
X155100000Y-120250000D03*
X154600000Y-120250000D03*
X154100000Y-120250000D03*
X153600000Y-120250000D03*
X153100000Y-120250000D03*
X152600000Y-120250000D03*
X152100000Y-120250000D03*
X151600000Y-120250000D03*
X151100000Y-120250000D03*
X150600000Y-120250000D03*
X150100000Y-120250000D03*
X149600000Y-120250000D03*
X149100000Y-120250000D03*
X148600000Y-120250000D03*
X148100000Y-120250000D03*
X147600000Y-120250000D03*
X147100000Y-120250000D03*
X146600000Y-120250000D03*
D13*
X168000000Y-118100000D03*
X144700000Y-118100000D03*
D12*
X164600000Y-120250000D03*
%TD*%
D14*
%TO.C,R3*%
X143440000Y-123210000D03*
X141790000Y-123210000D03*
%TD*%
D15*
%TO.C,R2*%
X141790000Y-119920000D03*
X141790000Y-121570000D03*
%TD*%
D16*
%TO.C,Q1*%
X139680000Y-123170000D03*
X139680000Y-121270000D03*
X137805000Y-122220000D03*
%TD*%
D17*
%TO.C,R1*%
X137800000Y-119580000D03*
X137800000Y-117930000D03*
%TD*%
M02*
