%TF.GenerationSoftware,KiCad,Pcbnew,8.0.0*%
%TF.CreationDate,2024-03-06T23:01:12+04:00*%
%TF.ProjectId,gbc-cm4-aio-flex,6762632d-636d-4342-9d61-696f2d666c65,rev?*%
%TF.SameCoordinates,Original*%
%TF.FileFunction,Copper,L1,Top*%
%TF.FilePolarity,Positive*%
%FSLAX46Y46*%
G04 Gerber Fmt 4.6, Leading zero omitted, Abs format (unit mm)*
G04 Created by KiCad (PCBNEW 8.0.0) date 2024-03-06 23:01:12*
%MOMM*%
%LPD*%
G01*
G04 APERTURE LIST*
G04 Aperture macros list*
%AMRoundRect*
0 Rectangle with rounded corners*
0 $1 Rounding radius*
0 $2 $3 $4 $5 $6 $7 $8 $9 X,Y pos of 4 corners*
0 Add a 4 corners polygon primitive as box body*
4,1,4,$2,$3,$4,$5,$6,$7,$8,$9,$2,$3,0*
0 Add four circle primitives for the rounded corners*
1,1,$1+$1,$2,$3*
1,1,$1+$1,$4,$5*
1,1,$1+$1,$6,$7*
1,1,$1+$1,$8,$9*
0 Add four rect primitives between the rounded corners*
20,1,$1+$1,$2,$3,$4,$5,0*
20,1,$1+$1,$4,$5,$6,$7,0*
20,1,$1+$1,$6,$7,$8,$9,0*
20,1,$1+$1,$8,$9,$2,$3,0*%
G04 Aperture macros list end*
%TA.AperFunction,SMDPad,CuDef*%
%ADD10R,0.750000X0.550000*%
%TD*%
%TA.AperFunction,SMDPad,CuDef*%
%ADD11R,0.220000X0.500000*%
%TD*%
%TA.AperFunction,SMDPad,CuDef*%
%ADD12R,0.300000X1.300000*%
%TD*%
%TA.AperFunction,SMDPad,CuDef*%
%ADD13R,2.000000X4.000000*%
%TD*%
%TA.AperFunction,SMDPad,CuDef*%
%ADD14C,1.000000*%
%TD*%
%TA.AperFunction,SMDPad,CuDef*%
%ADD15RoundRect,0.200000X0.200000X0.275000X-0.200000X0.275000X-0.200000X-0.275000X0.200000X-0.275000X0*%
%TD*%
%TA.AperFunction,SMDPad,CuDef*%
%ADD16RoundRect,0.200000X-0.275000X0.200000X-0.275000X-0.200000X0.275000X-0.200000X0.275000X0.200000X0*%
%TD*%
%TA.AperFunction,SMDPad,CuDef*%
%ADD17RoundRect,0.150000X0.587500X0.150000X-0.587500X0.150000X-0.587500X-0.150000X0.587500X-0.150000X0*%
%TD*%
%TA.AperFunction,SMDPad,CuDef*%
%ADD18RoundRect,0.200000X0.275000X-0.200000X0.275000X0.200000X-0.275000X0.200000X-0.275000X-0.200000X0*%
%TD*%
%TA.AperFunction,ViaPad*%
%ADD19C,0.500000*%
%TD*%
%TA.AperFunction,Conductor*%
%ADD20C,0.200000*%
%TD*%
%TA.AperFunction,Conductor*%
%ADD21C,0.150000*%
%TD*%
%TA.AperFunction,Conductor*%
%ADD22C,0.180000*%
%TD*%
%TA.AperFunction,Conductor*%
%ADD23C,0.250000*%
%TD*%
%TA.AperFunction,Conductor*%
%ADD24C,0.350000*%
%TD*%
G04 APERTURE END LIST*
D10*
%TO.P,J2,S4,SHIELD*%
%TO.N,GND*%
X152585000Y-138715000D03*
%TO.P,J2,S3,SHIELD*%
X152585000Y-141065000D03*
%TO.P,J2,S2,SHIELD*%
X143335000Y-141065000D03*
%TO.P,J2,S1,SHIELD*%
X143335000Y-138715000D03*
D11*
%TO.P,J2,21,21*%
%TO.N,+1V8*%
X151760000Y-138690000D03*
%TO.P,J2,20,20*%
%TO.N,GND*%
X151760000Y-141090000D03*
%TO.P,J2,22,22*%
%TO.N,+5V*%
X151360000Y-138690000D03*
%TO.P,J2,19,19*%
%TO.N,GND*%
X151360000Y-141090000D03*
%TO.P,J2,23,23*%
%TO.N,+1V8*%
X150960000Y-138690000D03*
%TO.P,J2,18,18*%
%TO.N,GND*%
X150960000Y-141090000D03*
%TO.P,J2,24,24*%
%TO.N,+1V8*%
X150560000Y-138690000D03*
%TO.P,J2,17,17*%
%TO.N,GND*%
X150560000Y-141090000D03*
%TO.P,J2,25,25*%
X150160000Y-138690000D03*
%TO.P,J2,16,16*%
X150160000Y-141090000D03*
%TO.P,J2,26,26*%
X149760000Y-138690000D03*
%TO.P,J2,15,15*%
X149760000Y-141090000D03*
%TO.P,J2,27,27*%
X149360000Y-138690000D03*
%TO.P,J2,14,14*%
X149360000Y-141090000D03*
%TO.P,J2,28,28*%
X148960000Y-138690000D03*
%TO.P,J2,13,13*%
X148960000Y-141090000D03*
%TO.P,J2,29,29*%
%TO.N,/RESET*%
X148560000Y-138690000D03*
%TO.P,J2,12,12*%
%TO.N,GND*%
X148560000Y-141090000D03*
%TO.P,J2,30,30*%
%TO.N,unconnected-(J2-Pad30)*%
X148160000Y-138690000D03*
%TO.P,J2,11,11*%
%TO.N,GND*%
X148160000Y-141090000D03*
%TO.P,J2,31,31*%
%TO.N,unconnected-(J2-Pad31)*%
X147760000Y-138690000D03*
%TO.P,J2,10,10*%
%TO.N,/D2_P*%
X147760000Y-141090000D03*
%TO.P,J2,32,32*%
%TO.N,/PWM*%
X147360000Y-138690000D03*
%TO.P,J2,9,9*%
%TO.N,/D2_N*%
X147360000Y-141090000D03*
%TO.P,J2,33,33*%
%TO.N,GND*%
X146960000Y-138690000D03*
%TO.P,J2,8,8*%
%TO.N,/D1_P*%
X146960000Y-141090000D03*
%TO.P,J2,34,34*%
%TO.N,GND*%
X146560000Y-138690000D03*
%TO.P,J2,7,7*%
%TO.N,/D1_N*%
X146560000Y-141090000D03*
%TO.P,J2,35,35*%
%TO.N,GND*%
X146160000Y-138690000D03*
%TO.P,J2,6,6*%
%TO.N,/CLK_P*%
X146160000Y-141090000D03*
%TO.P,J2,36,36*%
%TO.N,-5V*%
X145760000Y-138690000D03*
%TO.P,J2,5,5*%
%TO.N,/CLK_N*%
X145760000Y-141090000D03*
%TO.P,J2,37,37*%
%TO.N,/LCD_K*%
X145360000Y-138690000D03*
%TO.P,J2,4,4*%
%TO.N,/D0_P*%
X145360000Y-141090000D03*
%TO.P,J2,38,38*%
%TO.N,/LCD_K*%
X144960000Y-138690000D03*
%TO.P,J2,3,3*%
%TO.N,/D0_N*%
X144960000Y-141090000D03*
%TO.P,J2,39,39*%
%TO.N,/LCD_A*%
X144560000Y-138690000D03*
%TO.P,J2,2,2*%
%TO.N,/D3_P*%
X144560000Y-141090000D03*
%TO.P,J2,40,40*%
%TO.N,/LCD_A*%
X144160000Y-138690000D03*
%TO.P,J2,1,1*%
%TO.N,/D3_N*%
X144160000Y-141090000D03*
%TD*%
D12*
%TO.P,J3,1,Pin_1*%
%TO.N,GND*%
X166100000Y-120250000D03*
%TO.P,J3,2,Pin_2*%
%TO.N,/D0_P*%
X165600000Y-120250000D03*
%TO.P,J3,3,Pin_3*%
%TO.N,/D0_N*%
X165100000Y-120250000D03*
%TO.P,J3,5,Pin_5*%
%TO.N,/D1_P*%
X164100000Y-120250000D03*
%TO.P,J3,6,Pin_6*%
%TO.N,/D1_N*%
X163600000Y-120250000D03*
%TO.P,J3,7,Pin_7*%
%TO.N,GND*%
X163100000Y-120250000D03*
%TO.P,J3,8,Pin_8*%
%TO.N,/CLK_P*%
X162600000Y-120250000D03*
%TO.P,J3,9,Pin_9*%
%TO.N,/CLK_N*%
X162100000Y-120250000D03*
%TO.P,J3,10,Pin_10*%
%TO.N,GND*%
X161600000Y-120250000D03*
%TO.P,J3,11,Pin_11*%
%TO.N,/D2_P*%
X161100000Y-120250000D03*
%TO.P,J3,12,Pin_12*%
%TO.N,/D2_N*%
X160600000Y-120250000D03*
%TO.P,J3,13,Pin_13*%
%TO.N,GND*%
X160100000Y-120250000D03*
%TO.P,J3,14,Pin_14*%
%TO.N,/D3_P*%
X159600000Y-120250000D03*
%TO.P,J3,15,Pin_15*%
%TO.N,/D3_N*%
X159100000Y-120250000D03*
%TO.P,J3,16,Pin_16*%
%TO.N,GND*%
X158600000Y-120250000D03*
%TO.P,J3,17,Pin_17*%
%TO.N,/PWM*%
X158100000Y-120250000D03*
%TO.P,J3,18,Pin_18*%
%TO.N,Net-(J3-Pin_18)*%
X157600000Y-120250000D03*
%TO.P,J3,19,Pin_19*%
%TO.N,GND*%
X157100000Y-120250000D03*
%TO.P,J3,20,Pin_20*%
%TO.N,/LCD_A*%
X156600000Y-120250000D03*
%TO.P,J3,21,Pin_21*%
X156100000Y-120250000D03*
%TO.P,J3,22,Pin_22*%
X155600000Y-120250000D03*
%TO.P,J3,23,Pin_23*%
X155100000Y-120250000D03*
%TO.P,J3,24,Pin_24*%
%TO.N,/LCD_K*%
X154600000Y-120250000D03*
%TO.P,J3,25,Pin_25*%
X154100000Y-120250000D03*
%TO.P,J3,26,Pin_26*%
X153600000Y-120250000D03*
%TO.P,J3,27,Pin_27*%
X153100000Y-120250000D03*
%TO.P,J3,28,Pin_28*%
%TO.N,GND*%
X152600000Y-120250000D03*
%TO.P,J3,29,Pin_29*%
%TO.N,+1V8*%
X152100000Y-120250000D03*
%TO.P,J3,30,Pin_30*%
X151600000Y-120250000D03*
%TO.P,J3,31,Pin_31*%
%TO.N,unconnected-(J3-Pin_31-Pad31)*%
X151100000Y-120250000D03*
%TO.P,J3,32,Pin_32*%
%TO.N,-5V*%
X150600000Y-120250000D03*
%TO.P,J3,33,Pin_33*%
%TO.N,unconnected-(J3-Pin_33-Pad33)*%
X150100000Y-120250000D03*
%TO.P,J3,34,Pin_34*%
%TO.N,unconnected-(J3-Pin_34-Pad34)*%
X149600000Y-120250000D03*
%TO.P,J3,35,Pin_35*%
%TO.N,unconnected-(J3-Pin_35-Pad35)*%
X149100000Y-120250000D03*
%TO.P,J3,36,Pin_36*%
%TO.N,+5V*%
X148600000Y-120250000D03*
%TO.P,J3,37,Pin_37*%
X148100000Y-120250000D03*
%TO.P,J3,38,Pin_38*%
X147600000Y-120250000D03*
%TO.P,J3,39,Pin_39*%
%TO.N,GND*%
X147100000Y-120250000D03*
%TO.P,J3,40,Pin_40*%
X146600000Y-120250000D03*
D13*
%TO.P,J3,MP*%
%TO.N,N/C*%
X168000000Y-118100000D03*
X144700000Y-118100000D03*
D12*
%TO.P,J3,b*%
X164600000Y-120250000D03*
%TD*%
D14*
%TO.P,RST1,1,1*%
%TO.N,/RESET*%
X137790000Y-128480000D03*
%TD*%
%TO.P,K1,1,1*%
%TO.N,/LCD_K*%
X154590000Y-122850000D03*
%TD*%
%TO.P,A1,1,1*%
%TO.N,/LCD_A*%
X156360000Y-122840000D03*
%TD*%
%TO.P,PWM1,1,1*%
%TO.N,/PWM*%
X158100000Y-122820000D03*
%TD*%
D15*
%TO.P,R3,1*%
%TO.N,Net-(J3-Pin_18)*%
X143440000Y-123210000D03*
%TO.P,R3,2*%
%TO.N,Net-(Q1-B)*%
X141790000Y-123210000D03*
%TD*%
D16*
%TO.P,R2,1*%
%TO.N,GND*%
X141790000Y-119920000D03*
%TO.P,R2,2*%
%TO.N,Net-(Q1-B)*%
X141790000Y-121570000D03*
%TD*%
D14*
%TO.P,1V8,1,1*%
%TO.N,+1V8*%
X152820000Y-122810000D03*
%TD*%
D17*
%TO.P,Q1,1,B*%
%TO.N,Net-(Q1-B)*%
X139680000Y-123170000D03*
%TO.P,Q1,2,E*%
%TO.N,GND*%
X139680000Y-121270000D03*
%TO.P,Q1,3,C*%
%TO.N,/RESET*%
X137805000Y-122220000D03*
%TD*%
D14*
%TO.P,+5V1,1,1*%
%TO.N,+5V*%
X148100000Y-122840000D03*
%TD*%
D18*
%TO.P,R1,1*%
%TO.N,/RESET*%
X137800000Y-119580000D03*
%TO.P,R1,2*%
%TO.N,+1V8*%
X137800000Y-117930000D03*
%TD*%
D14*
%TO.P,GND1,1,1*%
%TO.N,GND*%
X167930000Y-122930000D03*
%TD*%
%TO.P,-5V1,1,1*%
%TO.N,-5V*%
X150610000Y-122830000D03*
%TD*%
D19*
%TO.N,GND*%
X167940000Y-122940000D03*
X166750000Y-121510000D03*
X166720000Y-122720000D03*
X166750000Y-123960000D03*
X166710000Y-125190000D03*
X166700000Y-126570000D03*
X166440000Y-128030000D03*
X165750000Y-128770000D03*
X165050000Y-129570000D03*
X164290000Y-130240000D03*
X163580000Y-131000000D03*
X162870000Y-131720000D03*
X162140000Y-132610000D03*
X161330000Y-133410000D03*
X160100000Y-133840000D03*
X158840000Y-133850000D03*
X153250000Y-142140000D03*
X153890000Y-141540000D03*
X153890000Y-140400000D03*
X153840000Y-139230000D03*
X153820000Y-138250000D03*
X153240000Y-137620000D03*
X147100000Y-122760000D03*
X146530000Y-123870000D03*
X145380000Y-123920000D03*
X144270000Y-124240000D03*
X143460000Y-125000000D03*
X142690000Y-125740000D03*
X142120000Y-126600000D03*
X142090000Y-127940000D03*
X142000000Y-129020000D03*
X142000000Y-130040000D03*
X142000000Y-130950000D03*
X141990000Y-131900000D03*
X142010000Y-132740000D03*
X142050000Y-133710000D03*
X142050000Y-135070000D03*
X142050000Y-136040000D03*
X142070000Y-137090000D03*
X142040000Y-137990000D03*
X142150000Y-138960000D03*
X142130000Y-139930000D03*
X142020000Y-140980000D03*
X152450000Y-142180000D03*
X151320000Y-142210000D03*
X150340000Y-142210000D03*
X150640000Y-143380000D03*
X150120000Y-144190000D03*
X149320000Y-144680000D03*
X148030000Y-144500000D03*
X146970000Y-144790000D03*
X145910000Y-144590000D03*
X145130000Y-144880000D03*
X143980000Y-144900000D03*
X143030000Y-144630000D03*
X142320000Y-144080000D03*
X141750000Y-143320000D03*
X141640000Y-142530000D03*
X142070000Y-141910000D03*
%TO.N,Net-(J3-Pin_18)*%
X144360000Y-123210000D03*
X157750000Y-118560000D03*
%TO.N,+5V*%
X148100000Y-121780000D03*
%TO.N,/RESET*%
X148940000Y-137580000D03*
X148950000Y-134410000D03*
%TO.N,+1V8*%
X151850000Y-121770000D03*
X150640000Y-137670000D03*
%TO.N,+5V*%
X151430000Y-137590000D03*
%TO.N,+1V8*%
X152180000Y-137670000D03*
%TO.N,-5V*%
X152030000Y-136380000D03*
X150600000Y-121770000D03*
%TO.N,/PWM*%
X158100000Y-121820000D03*
X158100000Y-137050000D03*
%TO.N,/LCD_A*%
X155860000Y-121820000D03*
X155860000Y-135040000D03*
%TO.N,/LCD_K*%
X153840000Y-121820000D03*
X153840000Y-135630000D03*
%TO.N,/D3_P*%
X144035070Y-127049620D03*
%TO.N,/D3_N*%
X143285070Y-127049620D03*
%TO.N,/D2_P*%
X150583199Y-127091278D03*
%TO.N,/D2_N*%
X150583199Y-126341278D03*
%TO.N,/D0_P*%
X144928622Y-143614527D03*
%TO.N,/D0_N*%
X144178622Y-143614527D03*
X144540000Y-132980000D03*
%TO.N,/D0_P*%
X145155166Y-133435166D03*
%TO.N,/D1_P*%
X147725166Y-143044834D03*
%TO.N,/D1_N*%
X147194834Y-143575166D03*
%TO.N,/D1_P*%
X147335166Y-131705166D03*
%TO.N,/D1_N*%
X146804834Y-131174834D03*
%TO.N,/CLK_P*%
X146355000Y-143240000D03*
%TO.N,/CLK_N*%
X145605000Y-143240000D03*
X145605000Y-129790000D03*
%TO.N,/CLK_P*%
X146355000Y-129790000D03*
%TO.N,/D2_N*%
X148833448Y-143519915D03*
%TO.N,/D2_P*%
X149363780Y-142989583D03*
%TO.N,/D3_N*%
X142917339Y-142802421D03*
%TO.N,/D3_P*%
X143447671Y-143332753D03*
%TO.N,GND*%
X166100000Y-118810000D03*
X146600000Y-121500000D03*
X161600000Y-118810000D03*
X158600000Y-118810000D03*
X163100000Y-118810000D03*
X147100000Y-121500000D03*
X152600000Y-119000000D03*
X166800000Y-120200000D03*
X157100000Y-119000000D03*
X164600000Y-118810000D03*
X160100000Y-118810000D03*
%TO.N,+1V8*%
X139010000Y-117930000D03*
X151610000Y-117930000D03*
%TD*%
D20*
%TO.N,-5V*%
X152030000Y-136380000D02*
X146160000Y-136380000D01*
X146160000Y-136380000D02*
X145760000Y-136780000D01*
X145760000Y-136780000D02*
X145760000Y-138690000D01*
D21*
%TO.N,/RESET*%
X137800000Y-133460000D02*
X137800000Y-121550000D01*
X138750000Y-134410000D02*
X137800000Y-133460000D01*
X148950000Y-134410000D02*
X138750000Y-134410000D01*
X148940000Y-137900000D02*
X148560000Y-138280000D01*
X148940000Y-137580000D02*
X148940000Y-137900000D01*
X148560000Y-138280000D02*
X148560000Y-138690000D01*
D20*
%TO.N,/D3_P*%
X145246600Y-125461600D02*
X143885071Y-126823129D01*
X159600000Y-121225001D02*
X159575000Y-121250001D01*
X150090000Y-124995000D02*
X150090000Y-125545000D01*
X150540000Y-124795000D02*
X150190000Y-124795000D01*
%TO.N,/D3_N*%
X146190000Y-124995000D02*
X145076800Y-124995000D01*
X144928400Y-125143400D02*
X143435069Y-126636731D01*
%TO.N,/D3_P*%
X148640000Y-125445000D02*
X148640000Y-124895000D01*
%TO.N,/D3_N*%
X147640000Y-124995000D02*
X147640000Y-125545000D01*
%TO.N,/D3_P*%
X159575000Y-121250001D02*
X159575000Y-124363200D01*
X159575000Y-124363200D02*
X158493200Y-125445000D01*
X158493200Y-125445000D02*
X151190000Y-125445000D01*
%TO.N,/D3_N*%
X143435069Y-126636731D02*
X143435069Y-126899621D01*
X158306800Y-124995000D02*
X151190000Y-124995000D01*
%TO.N,/D3_P*%
X148640000Y-125545000D02*
X148640000Y-125445000D01*
%TO.N,/D3_N*%
X149640000Y-124995000D02*
X149640000Y-125545000D01*
X159100000Y-120250000D02*
X159100000Y-121225001D01*
%TO.N,/D3_P*%
X148540000Y-124795000D02*
X148190000Y-124795000D01*
X148090000Y-124895000D02*
X148090000Y-124995000D01*
X149540000Y-126095000D02*
X149190000Y-126095000D01*
X148090000Y-124995000D02*
X148090000Y-125545000D01*
%TO.N,/D3_N*%
X149640000Y-124895000D02*
X149640000Y-124995000D01*
%TO.N,/D3_P*%
X147540000Y-126095000D02*
X147190000Y-126095000D01*
X146540000Y-125445000D02*
X146190000Y-125445000D01*
X146190000Y-125445000D02*
X145263200Y-125445000D01*
X145263200Y-125445000D02*
X145246600Y-125461600D01*
X143885071Y-126823129D02*
X143885071Y-126899621D01*
X143885071Y-126899621D02*
X144035070Y-127049620D01*
%TO.N,/D3_N*%
X159125000Y-124176800D02*
X158306800Y-124995000D01*
X159100000Y-121225001D02*
X159125000Y-121250001D01*
%TO.N,/D3_P*%
X150090000Y-124895000D02*
X150090000Y-124995000D01*
X159600000Y-120250000D02*
X159600000Y-121225001D01*
%TO.N,/D3_N*%
X145076800Y-124995000D02*
X144928400Y-125143400D01*
X159125000Y-121250001D02*
X159125000Y-124176800D01*
X150540000Y-124345000D02*
X150190000Y-124345000D01*
X149540000Y-125645000D02*
X149190000Y-125645000D01*
X147640000Y-124895000D02*
X147640000Y-124995000D01*
X149090000Y-125545000D02*
X149090000Y-125445000D01*
X149090000Y-125445000D02*
X149090000Y-124895000D01*
X148540000Y-124345000D02*
X148190000Y-124345000D01*
X147540000Y-125645000D02*
X147190000Y-125645000D01*
X146540000Y-124995000D02*
X146190000Y-124995000D01*
X143435069Y-126899621D02*
X143285070Y-127049620D01*
%TO.N,/D3_P*%
X150090000Y-125545000D02*
G75*
G02*
X149540000Y-126095000I-550000J0D01*
G01*
X149190000Y-126095000D02*
G75*
G02*
X148640000Y-125545000I0J550000D01*
G01*
X150190000Y-124795000D02*
G75*
G03*
X150090000Y-124895000I0J-100000D01*
G01*
X148090000Y-125545000D02*
G75*
G02*
X147540000Y-126095000I-550000J0D01*
G01*
X147190000Y-126095000D02*
G75*
G02*
X146640000Y-125545000I0J550000D01*
G01*
X148640000Y-124895000D02*
G75*
G03*
X148540000Y-124795000I-100000J0D01*
G01*
X146640000Y-125545000D02*
G75*
G03*
X146540000Y-125445000I-100000J0D01*
G01*
X150640000Y-124895000D02*
G75*
G03*
X150540000Y-124795000I-100000J0D01*
G01*
X148190000Y-124795000D02*
G75*
G03*
X148090000Y-124895000I0J-100000D01*
G01*
%TO.N,/D3_N*%
X149640000Y-125545000D02*
G75*
G02*
X149540000Y-125645000I-100000J0D01*
G01*
X149190000Y-125645000D02*
G75*
G02*
X149090000Y-125545000I0J100000D01*
G01*
X150190000Y-124345000D02*
G75*
G03*
X149640000Y-124895000I0J-550000D01*
G01*
X149090000Y-124895000D02*
G75*
G03*
X148540000Y-124345000I-550000J0D01*
G01*
X147640000Y-125545000D02*
G75*
G02*
X147540000Y-125645000I-100000J0D01*
G01*
X147190000Y-125645000D02*
G75*
G02*
X147090000Y-125545000I0J100000D01*
G01*
X151190000Y-124995000D02*
G75*
G02*
X151090000Y-124895000I0J100000D01*
G01*
X151090000Y-124895000D02*
G75*
G03*
X150540000Y-124345000I-550000J0D01*
G01*
X148190000Y-124345000D02*
G75*
G03*
X147640000Y-124895000I0J-550000D01*
G01*
X147090000Y-125545000D02*
G75*
G03*
X146540000Y-124995000I-550000J0D01*
G01*
%TO.N,/D3_P*%
X151190000Y-125445000D02*
G75*
G02*
X150640000Y-124895000I0J550000D01*
G01*
D21*
%TO.N,-5V*%
X150610000Y-122830000D02*
X150610000Y-121780000D01*
X150610000Y-121780000D02*
X150600000Y-121770000D01*
%TO.N,+5V*%
X148100000Y-122840000D02*
X148100000Y-121780000D01*
D20*
%TO.N,/D1_P*%
X151002023Y-130395000D02*
X148433200Y-130395000D01*
%TO.N,/D1_N*%
X155550000Y-129845000D02*
X155550000Y-129945000D01*
X155200000Y-130495000D02*
X155200000Y-130395000D01*
%TO.N,/D1_P*%
X147335166Y-131493033D02*
X147335166Y-131705166D01*
X164075000Y-121250001D02*
X164075000Y-126073200D01*
%TO.N,/D1_N*%
X155550000Y-129945000D02*
X155550000Y-130495000D01*
%TO.N,/D1_P*%
X156000000Y-129945000D02*
X156000000Y-130495000D01*
X164100000Y-120250000D02*
X164100000Y-121225001D01*
X154750000Y-130495000D02*
X154750000Y-130395000D01*
X156350000Y-130495000D02*
X156350000Y-130395000D01*
%TO.N,/D1_N*%
X163600000Y-121225001D02*
X163625000Y-121250001D01*
%TO.N,/D1_P*%
X164100000Y-121225001D02*
X164075000Y-121250001D01*
X154650000Y-129745000D02*
X154500000Y-129745000D01*
X154750000Y-130395000D02*
X154750000Y-129845000D01*
X153700000Y-130395000D02*
X151002023Y-130395000D01*
X155450000Y-131045000D02*
X155300000Y-131045000D01*
%TO.N,/D1_N*%
X163625000Y-125886800D02*
X159566800Y-129945000D01*
X163625000Y-121250001D02*
X163625000Y-125886800D01*
%TO.N,/D1_P*%
X148433200Y-130395000D02*
X147335166Y-131493033D01*
%TO.N,/D1_N*%
X151002023Y-129945000D02*
X148246800Y-129945000D01*
X157050000Y-130595000D02*
X156900000Y-130595000D01*
%TO.N,/D1_P*%
X157050000Y-131045000D02*
X156900000Y-131045000D01*
%TO.N,/D1_N*%
X148246800Y-129945000D02*
X147016967Y-131174834D01*
%TO.N,/D1_P*%
X153850000Y-130395000D02*
X153700000Y-130395000D01*
X156000000Y-129845000D02*
X156000000Y-129945000D01*
%TO.N,/D1_N*%
X163600000Y-120250000D02*
X163600000Y-121225001D01*
%TO.N,/D1_P*%
X164075000Y-126073200D02*
X159753200Y-130395000D01*
X159753200Y-130395000D02*
X157700000Y-130395000D01*
%TO.N,/D1_N*%
X155200000Y-130395000D02*
X155200000Y-129845000D01*
%TO.N,/D1_P*%
X156250000Y-129745000D02*
X156100000Y-129745000D01*
%TO.N,/D1_N*%
X156800000Y-130495000D02*
X156800000Y-130395000D01*
%TO.N,/D1_P*%
X156350000Y-130395000D02*
X156350000Y-129845000D01*
%TO.N,/D1_N*%
X147016967Y-131174834D02*
X146804834Y-131174834D01*
X159566800Y-129945000D02*
X157700000Y-129945000D01*
X153700000Y-129945000D02*
X151002023Y-129945000D01*
X154650000Y-129295000D02*
X154500000Y-129295000D01*
X155450000Y-130595000D02*
X155300000Y-130595000D01*
X156250000Y-129295000D02*
X156100000Y-129295000D01*
X153850000Y-129945000D02*
X153700000Y-129945000D01*
X156800000Y-130395000D02*
X156800000Y-129845000D01*
%TO.N,/D1_P*%
X157700000Y-130395000D02*
G75*
G03*
X157600000Y-130495000I0J-100000D01*
G01*
X156350000Y-129845000D02*
G75*
G03*
X156250000Y-129745000I-100000J0D01*
G01*
X156100000Y-129745000D02*
G75*
G03*
X156000000Y-129845000I0J-100000D01*
G01*
%TO.N,/D1_N*%
X155300000Y-130595000D02*
G75*
G02*
X155200000Y-130495000I0J100000D01*
G01*
%TO.N,/D1_P*%
X156900000Y-131045000D02*
G75*
G02*
X156350000Y-130495000I0J550000D01*
G01*
X154500000Y-129745000D02*
G75*
G03*
X154400000Y-129845000I0J-100000D01*
G01*
X154400000Y-129845000D02*
G75*
G02*
X153850000Y-130395000I-550000J0D01*
G01*
X156000000Y-130495000D02*
G75*
G02*
X155450000Y-131045000I-550000J0D01*
G01*
X157600000Y-130495000D02*
G75*
G02*
X157050000Y-131045000I-550000J0D01*
G01*
X155300000Y-131045000D02*
G75*
G02*
X154750000Y-130495000I0J550000D01*
G01*
%TO.N,/D1_N*%
X157700000Y-129945000D02*
G75*
G03*
X157150000Y-130495000I0J-550000D01*
G01*
%TO.N,/D1_P*%
X154750000Y-129845000D02*
G75*
G03*
X154650000Y-129745000I-100000J0D01*
G01*
%TO.N,/D1_N*%
X156900000Y-130595000D02*
G75*
G02*
X156800000Y-130495000I0J100000D01*
G01*
X156800000Y-129845000D02*
G75*
G03*
X156250000Y-129295000I-550000J0D01*
G01*
X156100000Y-129295000D02*
G75*
G03*
X155550000Y-129845000I0J-550000D01*
G01*
X155550000Y-130495000D02*
G75*
G02*
X155450000Y-130595000I-100000J0D01*
G01*
X155200000Y-129845000D02*
G75*
G03*
X154650000Y-129295000I-550000J0D01*
G01*
X157150000Y-130495000D02*
G75*
G02*
X157050000Y-130595000I-100000J0D01*
G01*
X154500000Y-129295000D02*
G75*
G03*
X153950000Y-129845000I0J-550000D01*
G01*
X153950000Y-129845000D02*
G75*
G02*
X153850000Y-129945000I-100000J0D01*
G01*
D22*
%TO.N,/CLK_P*%
X149770000Y-128085000D02*
X149380000Y-128085000D01*
X153290000Y-128265000D02*
X153290000Y-128785000D01*
X159509056Y-128695000D02*
X154380000Y-128695000D01*
%TO.N,/CLK_N*%
X152290000Y-128695000D02*
X152290000Y-128175000D01*
X151770000Y-127655000D02*
X151380000Y-127655000D01*
X145765000Y-129230944D02*
X145765000Y-129630000D01*
%TO.N,/CLK_P*%
X148770000Y-128695000D02*
X148380000Y-128695000D01*
X162565000Y-121260001D02*
X162565000Y-125639056D01*
%TO.N,/CLK_N*%
X162135000Y-125460944D02*
X159330944Y-128265000D01*
X150290000Y-128785000D02*
X150290000Y-128695000D01*
%TO.N,/CLK_P*%
X162600000Y-121225001D02*
X162565000Y-121260001D01*
%TO.N,/CLK_N*%
X152860000Y-128265000D02*
X152860000Y-128785000D01*
%TO.N,/CLK_P*%
X150770000Y-129305000D02*
X150380000Y-129305000D01*
X151860000Y-128785000D02*
X151860000Y-128695000D01*
X153290000Y-128175000D02*
X153290000Y-128265000D01*
X153770000Y-128085000D02*
X153380000Y-128085000D01*
X146909056Y-128695000D02*
X146842028Y-128762028D01*
X152770000Y-129305000D02*
X152380000Y-129305000D01*
%TO.N,/CLK_N*%
X146730944Y-128265000D02*
X146537972Y-128457972D01*
%TO.N,/CLK_P*%
X149860000Y-128785000D02*
X149860000Y-128695000D01*
%TO.N,/CLK_N*%
X150770000Y-128875000D02*
X150380000Y-128875000D01*
%TO.N,/CLK_P*%
X146195000Y-129630000D02*
X146355000Y-129790000D01*
X151860000Y-128695000D02*
X151860000Y-128175000D01*
X151770000Y-128085000D02*
X151380000Y-128085000D01*
%TO.N,/CLK_N*%
X150860000Y-128175000D02*
X150860000Y-128265000D01*
%TO.N,/CLK_P*%
X151290000Y-128175000D02*
X151290000Y-128265000D01*
X151290000Y-128265000D02*
X151290000Y-128785000D01*
X149860000Y-128695000D02*
X149860000Y-128175000D01*
X148380000Y-128695000D02*
X146909056Y-128695000D01*
%TO.N,/CLK_N*%
X159330944Y-128265000D02*
X154380000Y-128265000D01*
%TO.N,/CLK_P*%
X146842028Y-128762028D02*
X146195000Y-129409056D01*
X162565000Y-125639056D02*
X159509056Y-128695000D01*
%TO.N,/CLK_N*%
X152770000Y-128875000D02*
X152380000Y-128875000D01*
%TO.N,/CLK_P*%
X146195000Y-129409056D02*
X146195000Y-129630000D01*
%TO.N,/CLK_N*%
X162100000Y-121225001D02*
X162135000Y-121260001D01*
X162100000Y-120250000D02*
X162100000Y-121225001D01*
X162135000Y-121260001D02*
X162135000Y-125460944D01*
%TO.N,/CLK_P*%
X162600000Y-120250000D02*
X162600000Y-121225001D01*
%TO.N,/CLK_N*%
X146537972Y-128457972D02*
X145765000Y-129230944D01*
X150290000Y-128695000D02*
X150290000Y-128175000D01*
X153770000Y-127655000D02*
X153380000Y-127655000D01*
X152860000Y-128175000D02*
X152860000Y-128265000D01*
X152290000Y-128785000D02*
X152290000Y-128695000D01*
X150860000Y-128265000D02*
X150860000Y-128785000D01*
X149770000Y-127655000D02*
X149380000Y-127655000D01*
X148770000Y-128265000D02*
X148380000Y-128265000D01*
X148380000Y-128265000D02*
X146730944Y-128265000D01*
X145765000Y-129630000D02*
X145605000Y-129790000D01*
X148860000Y-128175000D02*
G75*
G02*
X148770000Y-128265000I-90000J0D01*
G01*
%TO.N,/CLK_P*%
X151860000Y-128175000D02*
G75*
G03*
X151770000Y-128085000I-90000J0D01*
G01*
%TO.N,/CLK_N*%
X150380000Y-128875000D02*
G75*
G02*
X150290000Y-128785000I0J90000D01*
G01*
%TO.N,/CLK_P*%
X150380000Y-129305000D02*
G75*
G02*
X149860000Y-128785000I0J520000D01*
G01*
%TO.N,/CLK_N*%
X149380000Y-127655000D02*
G75*
G03*
X148860000Y-128175000I0J-520000D01*
G01*
%TO.N,/CLK_P*%
X149290000Y-128175000D02*
G75*
G02*
X148770000Y-128695000I-520000J0D01*
G01*
X153860000Y-128175000D02*
G75*
G03*
X153770000Y-128085000I-90000J0D01*
G01*
%TO.N,/CLK_N*%
X152380000Y-128875000D02*
G75*
G02*
X152290000Y-128785000I0J90000D01*
G01*
X152290000Y-128175000D02*
G75*
G03*
X151770000Y-127655000I-520000J0D01*
G01*
X150860000Y-128785000D02*
G75*
G02*
X150770000Y-128875000I-90000J0D01*
G01*
%TO.N,/CLK_P*%
X153290000Y-128785000D02*
G75*
G02*
X152770000Y-129305000I-520000J0D01*
G01*
X151290000Y-128785000D02*
G75*
G02*
X150770000Y-129305000I-520000J0D01*
G01*
%TO.N,/CLK_N*%
X152860000Y-128785000D02*
G75*
G02*
X152770000Y-128875000I-90000J0D01*
G01*
X151380000Y-127655000D02*
G75*
G03*
X150860000Y-128175000I0J-520000D01*
G01*
%TO.N,/CLK_P*%
X153380000Y-128085000D02*
G75*
G03*
X153290000Y-128175000I0J-90000D01*
G01*
%TO.N,/CLK_N*%
X154290000Y-128175000D02*
G75*
G03*
X153770000Y-127655000I-520000J0D01*
G01*
X154380000Y-128265000D02*
G75*
G02*
X154290000Y-128175000I0J90000D01*
G01*
%TO.N,/CLK_P*%
X149860000Y-128175000D02*
G75*
G03*
X149770000Y-128085000I-90000J0D01*
G01*
X152380000Y-129305000D02*
G75*
G02*
X151860000Y-128785000I0J520000D01*
G01*
X154380000Y-128695000D02*
G75*
G02*
X153860000Y-128175000I0J520000D01*
G01*
X151380000Y-128085000D02*
G75*
G03*
X151290000Y-128175000I0J-90000D01*
G01*
%TO.N,/CLK_N*%
X153380000Y-127655000D02*
G75*
G03*
X152860000Y-128175000I0J-520000D01*
G01*
X150290000Y-128175000D02*
G75*
G03*
X149770000Y-127655000I-520000J0D01*
G01*
%TO.N,/CLK_P*%
X149380000Y-128085000D02*
G75*
G03*
X149290000Y-128175000I0J-90000D01*
G01*
D21*
%TO.N,/LCD_K*%
X153840000Y-121820000D02*
X153840000Y-122440000D01*
X153840000Y-122440000D02*
X154250000Y-122850000D01*
X154250000Y-122850000D02*
X154590000Y-122850000D01*
%TO.N,+1V8*%
X151850000Y-121770000D02*
X151850000Y-122520000D01*
X152140000Y-122810000D02*
X152820000Y-122810000D01*
X151850000Y-122520000D02*
X152140000Y-122810000D01*
%TO.N,/LCD_A*%
X155860000Y-121820000D02*
X155860000Y-122340000D01*
X155860000Y-122340000D02*
X156360000Y-122840000D01*
%TO.N,/PWM*%
X158100000Y-122820000D02*
X158100000Y-121820000D01*
D20*
%TO.N,/D2_P*%
X161100000Y-120250000D02*
X161100000Y-121225001D01*
%TO.N,/D2_N*%
X156569998Y-126391277D02*
X156569998Y-126491277D01*
X153111855Y-126491277D02*
X150733198Y-126491277D01*
%TO.N,/D2_P*%
X161075000Y-124883200D02*
X159016921Y-126941279D01*
X161075000Y-121250001D02*
X161075000Y-124883200D01*
X156469998Y-127591281D02*
X156120000Y-127591281D01*
X154469998Y-126941279D02*
X154120000Y-126941279D01*
X150733198Y-126941279D02*
X150583199Y-127091278D01*
X155569998Y-126941279D02*
X155569998Y-126391277D01*
X155469998Y-126291277D02*
X155120000Y-126291277D01*
%TO.N,/D2_N*%
X160625000Y-124696800D02*
X158830523Y-126491277D01*
X150733198Y-126491277D02*
X150583199Y-126341278D01*
%TO.N,/D2_P*%
X155569998Y-127041279D02*
X155569998Y-126941279D01*
%TO.N,/D2_N*%
X160600000Y-121225001D02*
X160625000Y-121250001D01*
X158830523Y-126491277D02*
X158120000Y-126491277D01*
X160625000Y-121250001D02*
X160625000Y-124696800D01*
%TO.N,/D2_P*%
X153111855Y-126941279D02*
X150733198Y-126941279D01*
%TO.N,/D2_N*%
X156569998Y-126491277D02*
X156569998Y-127041279D01*
X156020000Y-127041279D02*
X156020000Y-126941279D01*
X155469998Y-125841275D02*
X155120000Y-125841275D01*
%TO.N,/D2_P*%
X161100000Y-121225001D02*
X161075000Y-121250001D01*
X157020000Y-126491277D02*
X157020000Y-127041279D01*
X157469998Y-126291277D02*
X157120000Y-126291277D01*
%TO.N,/D2_N*%
X156469998Y-127141279D02*
X156120000Y-127141279D01*
X154469998Y-126491277D02*
X154120000Y-126491277D01*
X157469998Y-125841275D02*
X157120000Y-125841275D01*
%TO.N,/D2_P*%
X157020000Y-126391277D02*
X157020000Y-126491277D01*
%TO.N,/D2_N*%
X160600000Y-120250000D02*
X160600000Y-121225001D01*
X154120000Y-126491277D02*
X153111855Y-126491277D01*
X156020000Y-126941279D02*
X156020000Y-126391277D01*
%TO.N,/D2_P*%
X159016921Y-126941279D02*
X158120000Y-126941279D01*
X154120000Y-126941279D02*
X153111855Y-126941279D01*
%TO.N,/D2_N*%
X156569998Y-127041279D02*
G75*
G02*
X156469998Y-127141298I-99998J-21D01*
G01*
X155120000Y-125841275D02*
G75*
G03*
X154569975Y-126391277I0J-550025D01*
G01*
X154569998Y-126391277D02*
G75*
G02*
X154469998Y-126491298I-99998J-23D01*
G01*
X156020000Y-126391277D02*
G75*
G03*
X155469998Y-125841300I-550000J-23D01*
G01*
%TO.N,/D2_P*%
X155569998Y-126391277D02*
G75*
G03*
X155469998Y-126291302I-99998J-23D01*
G01*
X156120000Y-127591281D02*
G75*
G02*
X155570019Y-127041279I0J549981D01*
G01*
X155120000Y-126291277D02*
G75*
G03*
X155019977Y-126391277I0J-100023D01*
G01*
X158120000Y-126941279D02*
G75*
G02*
X157570021Y-126391277I0J549979D01*
G01*
X157020000Y-127041279D02*
G75*
G02*
X156469998Y-127591300I-550000J-21D01*
G01*
X155020000Y-126391277D02*
G75*
G02*
X154469998Y-126941300I-550000J-23D01*
G01*
X157120000Y-126291277D02*
G75*
G03*
X157019977Y-126391277I0J-100023D01*
G01*
%TO.N,/D2_N*%
X158020000Y-126391277D02*
G75*
G03*
X157469998Y-125841300I-550000J-23D01*
G01*
X156120000Y-127141279D02*
G75*
G02*
X156020021Y-127041279I0J99979D01*
G01*
X157120000Y-125841275D02*
G75*
G03*
X156569975Y-126391277I0J-550025D01*
G01*
X158120000Y-126491277D02*
G75*
G02*
X158020023Y-126391277I0J99977D01*
G01*
%TO.N,/D2_P*%
X157569998Y-126391277D02*
G75*
G03*
X157469998Y-126291302I-99998J-23D01*
G01*
D21*
%TO.N,GND*%
X148160000Y-141090000D02*
X148160000Y-140070000D01*
X148560000Y-141090000D02*
X148560000Y-140150000D01*
X151760000Y-141090000D02*
X151760000Y-139970000D01*
X151360000Y-141090000D02*
X151360000Y-139890000D01*
X150960000Y-141090000D02*
X150960000Y-140010000D01*
X150560000Y-141090000D02*
X150560000Y-140040000D01*
X146160000Y-138690000D02*
X146160000Y-139680000D01*
X146560000Y-138690000D02*
X146560000Y-139780000D01*
X146960000Y-138690000D02*
X146960000Y-139840000D01*
X150160000Y-138690000D02*
X150160000Y-141090000D01*
X149760000Y-138690000D02*
X149760000Y-141090000D01*
X149360000Y-138690000D02*
X149360000Y-141090000D01*
X148960000Y-138690000D02*
X148960000Y-141090000D01*
X146160000Y-138690000D02*
X146560000Y-138690000D01*
X146560000Y-138690000D02*
X146960000Y-138690000D01*
X151760000Y-141090000D02*
X148160000Y-141090000D01*
X148960000Y-138690000D02*
X150160000Y-138690000D01*
%TO.N,+1V8*%
X152450000Y-122810000D02*
X152820000Y-122810000D01*
%TO.N,Net-(J3-Pin_18)*%
X144360000Y-123210000D02*
X143440000Y-123210000D01*
X157600000Y-119249534D02*
X157750000Y-119099534D01*
X157600000Y-120250000D02*
X157600000Y-119249534D01*
X157750000Y-119099534D02*
X157750000Y-118560000D01*
D20*
%TO.N,+5V*%
X148100000Y-121780000D02*
X148100000Y-120250000D01*
D23*
%TO.N,/RESET*%
X137800000Y-119580000D02*
X137800000Y-121550000D01*
X137800000Y-121550000D02*
X137800000Y-122215000D01*
D20*
%TO.N,-5V*%
X150600000Y-121770000D02*
X150600000Y-120250000D01*
D24*
%TO.N,+1V8*%
X151850000Y-121770000D02*
X151850000Y-120250000D01*
D23*
X151850000Y-120250000D02*
X152100000Y-120250000D01*
X151600000Y-120250000D02*
X151850000Y-120250000D01*
D21*
X150560000Y-138690000D02*
X150760000Y-138690000D01*
X150760000Y-137790000D02*
X150640000Y-137670000D01*
D24*
X150760000Y-138690000D02*
X150760000Y-137790000D01*
D21*
X150760000Y-138690000D02*
X150960000Y-138690000D01*
%TO.N,+5V*%
X151360000Y-137660000D02*
X151430000Y-137590000D01*
D20*
X151360000Y-138690000D02*
X151360000Y-137660000D01*
D21*
%TO.N,+1V8*%
X151760000Y-138090000D02*
X152180000Y-137670000D01*
X151760000Y-138690000D02*
X151760000Y-138090000D01*
%TO.N,/PWM*%
X158100000Y-137050000D02*
X147670000Y-137050000D01*
X147670000Y-137050000D02*
X147360000Y-137360000D01*
X147360000Y-137360000D02*
X147360000Y-138690000D01*
X158100000Y-120250000D02*
X158100000Y-121820000D01*
D24*
%TO.N,/LCD_A*%
X144360000Y-135540000D02*
X144860000Y-135040000D01*
X144860000Y-135040000D02*
X155860000Y-135040000D01*
X144360000Y-138690000D02*
X144360000Y-135540000D01*
D21*
X144360000Y-138690000D02*
X144560000Y-138690000D01*
D23*
X156600000Y-120250000D02*
X155860000Y-120250000D01*
D21*
X144160000Y-138690000D02*
X144360000Y-138690000D01*
D23*
X155860000Y-120250000D02*
X155100000Y-120250000D01*
D24*
X155860000Y-121820000D02*
X155860000Y-120250000D01*
D23*
%TO.N,/LCD_K*%
X153840000Y-120250000D02*
X153100000Y-120250000D01*
X154600000Y-120250000D02*
X153840000Y-120250000D01*
D24*
X153840000Y-121820000D02*
X153840000Y-120250000D01*
D21*
X145160000Y-138690000D02*
X145360000Y-138690000D01*
X144960000Y-138690000D02*
X145160000Y-138690000D01*
D24*
X145160000Y-138690000D02*
X145160000Y-136020000D01*
X145160000Y-136020000D02*
X145550000Y-135630000D01*
X145550000Y-135630000D02*
X153840000Y-135630000D01*
D20*
%TO.N,/D0_N*%
X165125000Y-121250001D02*
X165100000Y-121225001D01*
X145416801Y-132325000D02*
X160036800Y-132325000D01*
X144540000Y-132980000D02*
X144761801Y-132980000D01*
X144761801Y-132980000D02*
X145416801Y-132325000D01*
X160036800Y-132325000D02*
X165125000Y-127236800D01*
X165125000Y-127236800D02*
X165125000Y-121250001D01*
X165100000Y-121225001D02*
X165100000Y-120250000D01*
%TO.N,/D0_P*%
X165575000Y-121250001D02*
X165600000Y-121225001D01*
X145155166Y-133223033D02*
X145603199Y-132775000D01*
X145603199Y-132775000D02*
X160223200Y-132775000D01*
X160223200Y-132775000D02*
X165575000Y-127423200D01*
X165575000Y-127423200D02*
X165575000Y-121250001D01*
X145155166Y-133435166D02*
X145155166Y-133223033D01*
X165600000Y-121225001D02*
X165600000Y-120250000D01*
%TO.N,/D0_N*%
X144178622Y-143614527D02*
X144328621Y-143464528D01*
X144328621Y-143464528D02*
X144328621Y-142963179D01*
X144960000Y-142331800D02*
X144960000Y-141090000D01*
X144328621Y-142963179D02*
X144960000Y-142331800D01*
%TO.N,/D0_P*%
X144928622Y-143614527D02*
X144778623Y-143464528D01*
X145360000Y-142568200D02*
X145360000Y-141090000D01*
X144778623Y-143464528D02*
X144778623Y-143149577D01*
X144778623Y-143149577D02*
X145360000Y-142568200D01*
%TO.N,/CLK_N*%
X145605000Y-143240000D02*
X145760000Y-143085000D01*
X145760000Y-143085000D02*
X145760000Y-141090000D01*
%TO.N,/CLK_P*%
X146355000Y-143240000D02*
X146160000Y-143045000D01*
X146160000Y-143045000D02*
X146160000Y-141090000D01*
%TO.N,/D1_P*%
X147725166Y-143044834D02*
X147581091Y-143044834D01*
X147581091Y-143044834D02*
X146960000Y-142423743D01*
X146960000Y-142423743D02*
X146960000Y-141090000D01*
%TO.N,/D1_N*%
X147194834Y-143575166D02*
X147194834Y-143294945D01*
X147194834Y-143294945D02*
X146560000Y-142660111D01*
X146560000Y-142660111D02*
X146560000Y-141090000D01*
%TO.N,/D2_N*%
X148833448Y-143519915D02*
X148833448Y-143307782D01*
X148833448Y-143307782D02*
X147360000Y-141834334D01*
X147360000Y-141834334D02*
X147360000Y-141090000D01*
%TO.N,/D2_P*%
X149363780Y-142989583D02*
X149151647Y-142989583D01*
X149151647Y-142989583D02*
X147760000Y-141597936D01*
X147760000Y-141597936D02*
X147760000Y-141090000D01*
X161100000Y-120250000D02*
X161075001Y-120274999D01*
%TO.N,/D2_N*%
X160600000Y-120250000D02*
X160624999Y-120274999D01*
%TO.N,/D3_P*%
X143447671Y-143332753D02*
X143447671Y-143120620D01*
X143447671Y-143120620D02*
X144560000Y-142008291D01*
X144560000Y-142008291D02*
X144560000Y-141090000D01*
%TO.N,/D3_N*%
X142917339Y-142802421D02*
X143129472Y-142802421D01*
X144160000Y-141771893D02*
X144160000Y-141090000D01*
X143129472Y-142802421D02*
X144160000Y-141771893D01*
X159100000Y-120250000D02*
X159124999Y-120274999D01*
%TO.N,/D3_P*%
X159600000Y-120250000D02*
X159575001Y-120274999D01*
D22*
%TO.N,/D0_P*%
X165600000Y-120250000D02*
X165540000Y-120310000D01*
X165600000Y-120250000D02*
X165540000Y-120310000D01*
D23*
%TO.N,GND*%
X166100000Y-120250000D02*
X166100000Y-118810000D01*
X161600000Y-120250000D02*
X161600000Y-118810000D01*
X163100000Y-120250000D02*
X163100000Y-118810000D01*
X158600000Y-120250000D02*
X158600000Y-118810000D01*
X164600000Y-120250000D02*
X164600000Y-118810000D01*
X160100000Y-120250000D02*
X160100000Y-118810000D01*
D22*
%TO.N,/D1_P*%
X164040000Y-120310000D02*
X164100000Y-120250000D01*
D20*
%TO.N,/D1_N*%
X163650000Y-120300000D02*
X163600000Y-120250000D01*
D22*
%TO.N,/CLK_P*%
X162540000Y-120310000D02*
X162600000Y-120250000D01*
%TO.N,/CLK_N*%
X162160000Y-120310000D02*
X162100000Y-120250000D01*
D23*
%TO.N,/RESET*%
X137800000Y-122215000D02*
X137805000Y-122220000D01*
%TO.N,+1V8*%
X151610000Y-120240000D02*
X151600000Y-120250000D01*
X137800000Y-117930000D02*
X139010000Y-117930000D01*
X151610000Y-117930000D02*
X151610000Y-120240000D01*
%TO.N,*%
X149100000Y-120250000D02*
X150100000Y-120250000D01*
%TO.N,+5V*%
X147600000Y-120250000D02*
X148600000Y-120250000D01*
%TO.N,Net-(Q1-B)*%
X141790000Y-123210000D02*
X139720000Y-123210000D01*
X139720000Y-123210000D02*
X139680000Y-123170000D01*
X141790000Y-123210000D02*
X141790000Y-121570000D01*
%TD*%
%TA.AperFunction,Conductor*%
%TO.N,GND*%
G36*
X170203039Y-113899685D02*
G01*
X170248794Y-113952489D01*
X170260000Y-114004000D01*
X170260000Y-145096000D01*
X170240315Y-145163039D01*
X170187511Y-145208794D01*
X170136000Y-145220000D01*
X136104000Y-145220000D01*
X136036961Y-145200315D01*
X135991206Y-145147511D01*
X135980000Y-145096000D01*
X135980000Y-142802421D01*
X142062154Y-142802421D01*
X142080842Y-142980226D01*
X142080843Y-142980228D01*
X142136086Y-143150250D01*
X142136089Y-143150256D01*
X142225480Y-143305086D01*
X142254587Y-143337412D01*
X142345103Y-143437942D01*
X142345106Y-143437944D01*
X142345109Y-143437947D01*
X142489746Y-143543033D01*
X142489749Y-143543035D01*
X142593611Y-143589276D01*
X142646849Y-143634525D01*
X142661108Y-143664237D01*
X142666419Y-143680584D01*
X142666421Y-143680588D01*
X142755812Y-143835418D01*
X142770209Y-143851407D01*
X142875435Y-143968274D01*
X142875438Y-143968276D01*
X142875441Y-143968279D01*
X143020078Y-144073365D01*
X143183404Y-144146082D01*
X143358280Y-144183253D01*
X143358281Y-144183253D01*
X143491036Y-144183253D01*
X143558075Y-144202938D01*
X143583186Y-144224281D01*
X143606386Y-144250048D01*
X143606389Y-144250050D01*
X143606392Y-144250053D01*
X143751029Y-144355139D01*
X143914355Y-144427856D01*
X144089231Y-144465027D01*
X144089232Y-144465027D01*
X144268011Y-144465027D01*
X144268013Y-144465027D01*
X144442889Y-144427856D01*
X144503186Y-144401010D01*
X144572436Y-144391725D01*
X144604059Y-144401010D01*
X144664355Y-144427856D01*
X144839231Y-144465027D01*
X144839232Y-144465027D01*
X145018011Y-144465027D01*
X145018013Y-144465027D01*
X145192889Y-144427856D01*
X145356215Y-144355139D01*
X145500852Y-144250053D01*
X145524058Y-144224281D01*
X145607573Y-144131528D01*
X145667059Y-144094879D01*
X145688016Y-144092069D01*
X145687923Y-144091180D01*
X145694389Y-144090500D01*
X145694391Y-144090500D01*
X145869267Y-144053329D01*
X145929564Y-144026483D01*
X145998814Y-144017198D01*
X146030437Y-144026483D01*
X146090733Y-144053329D01*
X146265609Y-144090500D01*
X146265610Y-144090500D01*
X146444382Y-144090500D01*
X146444391Y-144090500D01*
X146444399Y-144090498D01*
X146445485Y-144090384D01*
X146446120Y-144090500D01*
X146450890Y-144090500D01*
X146450890Y-144091372D01*
X146514215Y-144102948D01*
X146550607Y-144130732D01*
X146622598Y-144210687D01*
X146622601Y-144210689D01*
X146622604Y-144210692D01*
X146767241Y-144315778D01*
X146930567Y-144388495D01*
X147105443Y-144425666D01*
X147105444Y-144425666D01*
X147284223Y-144425666D01*
X147284225Y-144425666D01*
X147459101Y-144388495D01*
X147622427Y-144315778D01*
X147767064Y-144210692D01*
X147886693Y-144077831D01*
X147922705Y-144015457D01*
X147973269Y-143967244D01*
X148041876Y-143954020D01*
X148106741Y-143979988D01*
X148137476Y-144015457D01*
X148140673Y-144020993D01*
X148141589Y-144022580D01*
X148169274Y-144053327D01*
X148261212Y-144155436D01*
X148261215Y-144155438D01*
X148261218Y-144155441D01*
X148405855Y-144260527D01*
X148569181Y-144333244D01*
X148744057Y-144370415D01*
X148744058Y-144370415D01*
X148922837Y-144370415D01*
X148922839Y-144370415D01*
X149097715Y-144333244D01*
X149261041Y-144260527D01*
X149405678Y-144155441D01*
X149427210Y-144131528D01*
X149460208Y-144094879D01*
X149525307Y-144022580D01*
X149614698Y-143867750D01*
X149620008Y-143851404D01*
X149659441Y-143793729D01*
X149687498Y-143776441D01*
X149791373Y-143730195D01*
X149936010Y-143625109D01*
X150055639Y-143492248D01*
X150145030Y-143337418D01*
X150200277Y-143167386D01*
X150218965Y-142989583D01*
X150200277Y-142811780D01*
X150145030Y-142641748D01*
X150055639Y-142486918D01*
X150008783Y-142434879D01*
X149936015Y-142354061D01*
X149936012Y-142354059D01*
X149936011Y-142354058D01*
X149936010Y-142354057D01*
X149791373Y-142248971D01*
X149628047Y-142176254D01*
X149628045Y-142176253D01*
X149500374Y-142149116D01*
X149453171Y-142139083D01*
X149453170Y-142139083D01*
X149343166Y-142139083D01*
X149276127Y-142119398D01*
X149255485Y-142102764D01*
X149204402Y-142051681D01*
X149170917Y-141990358D01*
X149175901Y-141920666D01*
X149217773Y-141864733D01*
X149283237Y-141840316D01*
X149292083Y-141840000D01*
X149517818Y-141840000D01*
X149517837Y-141839998D01*
X149546745Y-141836891D01*
X149573255Y-141836891D01*
X149602162Y-141839998D01*
X149602182Y-141840000D01*
X149917818Y-141840000D01*
X149917837Y-141839998D01*
X149946745Y-141836891D01*
X149973255Y-141836891D01*
X150002162Y-141839998D01*
X150002182Y-141840000D01*
X150317818Y-141840000D01*
X150317837Y-141839998D01*
X150346745Y-141836891D01*
X150373255Y-141836891D01*
X150402162Y-141839998D01*
X150402182Y-141840000D01*
X150717818Y-141840000D01*
X150717837Y-141839998D01*
X150746745Y-141836891D01*
X150773255Y-141836891D01*
X150802162Y-141839998D01*
X150802182Y-141840000D01*
X151117818Y-141840000D01*
X151117837Y-141839998D01*
X151146745Y-141836891D01*
X151173255Y-141836891D01*
X151202162Y-141839998D01*
X151202182Y-141840000D01*
X151517818Y-141840000D01*
X151517837Y-141839998D01*
X151546745Y-141836891D01*
X151573255Y-141836891D01*
X151602162Y-141839998D01*
X151602182Y-141840000D01*
X151917828Y-141840000D01*
X151917844Y-141839999D01*
X151977372Y-141833598D01*
X151977375Y-141833597D01*
X151996665Y-141826403D01*
X152066357Y-141821417D01*
X152083335Y-141826403D01*
X152102624Y-141833597D01*
X152102627Y-141833598D01*
X152162155Y-141839999D01*
X152162172Y-141840000D01*
X152335000Y-141840000D01*
X152335000Y-141315000D01*
X152835000Y-141315000D01*
X152835000Y-141840000D01*
X153007828Y-141840000D01*
X153007844Y-141839999D01*
X153067372Y-141833598D01*
X153067379Y-141833596D01*
X153202086Y-141783354D01*
X153202093Y-141783350D01*
X153317187Y-141697190D01*
X153317190Y-141697187D01*
X153403350Y-141582093D01*
X153403354Y-141582086D01*
X153453596Y-141447379D01*
X153453598Y-141447372D01*
X153459999Y-141387844D01*
X153460000Y-141387827D01*
X153460000Y-141315000D01*
X152835000Y-141315000D01*
X152335000Y-141315000D01*
X152335000Y-140846362D01*
X152340000Y-140829334D01*
X152340000Y-140290000D01*
X152835000Y-140290000D01*
X152835000Y-140815000D01*
X153460000Y-140815000D01*
X153460000Y-140742172D01*
X153459999Y-140742155D01*
X153453598Y-140682627D01*
X153453596Y-140682620D01*
X153403354Y-140547913D01*
X153403350Y-140547906D01*
X153317190Y-140432812D01*
X153317187Y-140432809D01*
X153202093Y-140346649D01*
X153202086Y-140346645D01*
X153067379Y-140296403D01*
X153067372Y-140296401D01*
X153007844Y-140290000D01*
X152835000Y-140290000D01*
X152340000Y-140290000D01*
X152340000Y-140270000D01*
X148087746Y-140270000D01*
X148040294Y-140260561D01*
X148026765Y-140254957D01*
X148026760Y-140254955D01*
X147909361Y-140239500D01*
X147610636Y-140239500D01*
X147576186Y-140244036D01*
X147543818Y-140244036D01*
X147509371Y-140239501D01*
X147509366Y-140239500D01*
X147509361Y-140239500D01*
X147509354Y-140239500D01*
X147210636Y-140239500D01*
X147176186Y-140244036D01*
X147143818Y-140244036D01*
X147109371Y-140239501D01*
X147109366Y-140239500D01*
X147109361Y-140239500D01*
X147109354Y-140239500D01*
X146810636Y-140239500D01*
X146776186Y-140244036D01*
X146743818Y-140244036D01*
X146709371Y-140239501D01*
X146709366Y-140239500D01*
X146709361Y-140239500D01*
X146709354Y-140239500D01*
X146410636Y-140239500D01*
X146376186Y-140244036D01*
X146343818Y-140244036D01*
X146309371Y-140239501D01*
X146309366Y-140239500D01*
X146309361Y-140239500D01*
X146309354Y-140239500D01*
X146010636Y-140239500D01*
X145976186Y-140244036D01*
X145943818Y-140244036D01*
X145909371Y-140239501D01*
X145909366Y-140239500D01*
X145909361Y-140239500D01*
X145909354Y-140239500D01*
X145610636Y-140239500D01*
X145576186Y-140244036D01*
X145543818Y-140244036D01*
X145509371Y-140239501D01*
X145509366Y-140239500D01*
X145509361Y-140239500D01*
X145509354Y-140239500D01*
X145210636Y-140239500D01*
X145176186Y-140244036D01*
X145143818Y-140244036D01*
X145109371Y-140239501D01*
X145109366Y-140239500D01*
X145109361Y-140239500D01*
X145109354Y-140239500D01*
X144810636Y-140239500D01*
X144776186Y-140244036D01*
X144743818Y-140244036D01*
X144709371Y-140239501D01*
X144709366Y-140239500D01*
X144709361Y-140239500D01*
X144709354Y-140239500D01*
X144410636Y-140239500D01*
X144376186Y-140244036D01*
X144343818Y-140244036D01*
X144309371Y-140239501D01*
X144309366Y-140239500D01*
X144309361Y-140239500D01*
X144309354Y-140239500D01*
X144010636Y-140239500D01*
X143893246Y-140254953D01*
X143893234Y-140254957D01*
X143879706Y-140260561D01*
X143832254Y-140270000D01*
X143590000Y-140270000D01*
X143585000Y-140275000D01*
X143585000Y-140417477D01*
X143565315Y-140484516D01*
X143559376Y-140492963D01*
X143525464Y-140537157D01*
X143464956Y-140683237D01*
X143464955Y-140683239D01*
X143449500Y-140800638D01*
X143449501Y-141191000D01*
X143429817Y-141258039D01*
X143377013Y-141303794D01*
X143325501Y-141315000D01*
X142460000Y-141315000D01*
X142460000Y-141387844D01*
X142466401Y-141447372D01*
X142466403Y-141447379D01*
X142516645Y-141582086D01*
X142516649Y-141582093D01*
X142602809Y-141697186D01*
X142698887Y-141769111D01*
X142740758Y-141825045D01*
X142745742Y-141894737D01*
X142712257Y-141956060D01*
X142658674Y-141985316D01*
X142659249Y-141987085D01*
X142653067Y-141989093D01*
X142489747Y-142061808D01*
X142345107Y-142166896D01*
X142225479Y-142299757D01*
X142136089Y-142454585D01*
X142136086Y-142454591D01*
X142080843Y-142624613D01*
X142080842Y-142624615D01*
X142062154Y-142802421D01*
X135980000Y-142802421D01*
X135980000Y-140815000D01*
X142460000Y-140815000D01*
X143085000Y-140815000D01*
X143085000Y-140290000D01*
X142912155Y-140290000D01*
X142852627Y-140296401D01*
X142852620Y-140296403D01*
X142717913Y-140346645D01*
X142717906Y-140346649D01*
X142602812Y-140432809D01*
X142602809Y-140432812D01*
X142516649Y-140547906D01*
X142516645Y-140547913D01*
X142466403Y-140682620D01*
X142466401Y-140682627D01*
X142460000Y-140742155D01*
X142460000Y-140815000D01*
X135980000Y-140815000D01*
X135980000Y-138965000D01*
X142460000Y-138965000D01*
X142460000Y-139037844D01*
X142466401Y-139097372D01*
X142466403Y-139097379D01*
X142516645Y-139232086D01*
X142516649Y-139232093D01*
X142602809Y-139347187D01*
X142602812Y-139347190D01*
X142717906Y-139433350D01*
X142717913Y-139433354D01*
X142852620Y-139483596D01*
X142852627Y-139483598D01*
X142912155Y-139489999D01*
X142912172Y-139490000D01*
X143085000Y-139490000D01*
X143085000Y-138965000D01*
X142460000Y-138965000D01*
X135980000Y-138965000D01*
X135980000Y-122403260D01*
X136867000Y-122403260D01*
X136876926Y-122471391D01*
X136928303Y-122576485D01*
X137011014Y-122659196D01*
X137011015Y-122659196D01*
X137011017Y-122659198D01*
X137116107Y-122710573D01*
X137150173Y-122715536D01*
X137184239Y-122720500D01*
X137184240Y-122720500D01*
X137400500Y-122720500D01*
X137467539Y-122740185D01*
X137513294Y-122792989D01*
X137524500Y-122844500D01*
X137524500Y-127753266D01*
X137504815Y-127820305D01*
X137458127Y-127863062D01*
X137389149Y-127899265D01*
X137261816Y-128012072D01*
X137165182Y-128152068D01*
X137104860Y-128311125D01*
X137104859Y-128311130D01*
X137084355Y-128480000D01*
X137104859Y-128648869D01*
X137104860Y-128648874D01*
X137165182Y-128807931D01*
X137227475Y-128898177D01*
X137261817Y-128947929D01*
X137389148Y-129060734D01*
X137389150Y-129060735D01*
X137458126Y-129096937D01*
X137508338Y-129145521D01*
X137524500Y-129206733D01*
X137524500Y-133514800D01*
X137566223Y-133615526D01*
X137566251Y-133615594D01*
X137566443Y-133616059D01*
X138048566Y-134098181D01*
X138516443Y-134566058D01*
X138593942Y-134643557D01*
X138695200Y-134685500D01*
X142327232Y-134685500D01*
X142394271Y-134705185D01*
X142440026Y-134757989D01*
X142451229Y-134808822D01*
X142452491Y-135040000D01*
X142470278Y-138301084D01*
X142466958Y-138330268D01*
X142466402Y-138332620D01*
X142460000Y-138392155D01*
X142460000Y-138465000D01*
X143461000Y-138465000D01*
X143528039Y-138484685D01*
X143573794Y-138537489D01*
X143585000Y-138589000D01*
X143585000Y-139505000D01*
X143590000Y-139510000D01*
X152340000Y-139510000D01*
X152340000Y-138965000D01*
X152835000Y-138965000D01*
X152835000Y-139490000D01*
X153007828Y-139490000D01*
X153007844Y-139489999D01*
X153067372Y-139483598D01*
X153067379Y-139483596D01*
X153202086Y-139433354D01*
X153202093Y-139433350D01*
X153317187Y-139347190D01*
X153317190Y-139347187D01*
X153403350Y-139232093D01*
X153403354Y-139232086D01*
X153453596Y-139097379D01*
X153453598Y-139097372D01*
X153459999Y-139037844D01*
X153460000Y-139037827D01*
X153460000Y-138965000D01*
X152835000Y-138965000D01*
X152340000Y-138965000D01*
X152340000Y-138963962D01*
X152337834Y-138959996D01*
X152335000Y-138933638D01*
X152335000Y-138589000D01*
X152354685Y-138521961D01*
X152407489Y-138476206D01*
X152459000Y-138465000D01*
X153460000Y-138465000D01*
X153460000Y-138392172D01*
X153459999Y-138392155D01*
X153453598Y-138332627D01*
X153453596Y-138332620D01*
X153403354Y-138197913D01*
X153403350Y-138197906D01*
X153317190Y-138082812D01*
X153317187Y-138082809D01*
X153202093Y-137996649D01*
X153202086Y-137996645D01*
X153067379Y-137946403D01*
X153067372Y-137946401D01*
X153007844Y-137940000D01*
X152739417Y-137940000D01*
X152672378Y-137920315D01*
X152626623Y-137867511D01*
X152616679Y-137798353D01*
X152621548Y-137764489D01*
X152635133Y-137670000D01*
X152616697Y-137541774D01*
X152598080Y-137501010D01*
X152588137Y-137431854D01*
X152617161Y-137368298D01*
X152675939Y-137330523D01*
X152710875Y-137325500D01*
X157685995Y-137325500D01*
X157753034Y-137345185D01*
X157779709Y-137368298D01*
X157801951Y-137393967D01*
X157910931Y-137464004D01*
X158034108Y-137500171D01*
X158035225Y-137500499D01*
X158035227Y-137500500D01*
X158035228Y-137500500D01*
X158164773Y-137500500D01*
X158164773Y-137500499D01*
X158289069Y-137464004D01*
X158398049Y-137393967D01*
X158482882Y-137296063D01*
X158536697Y-137178226D01*
X158555133Y-137050000D01*
X158536697Y-136921774D01*
X158482882Y-136803937D01*
X158398049Y-136706033D01*
X158289069Y-136635996D01*
X158289065Y-136635994D01*
X158289064Y-136635994D01*
X158164774Y-136599500D01*
X158164772Y-136599500D01*
X158035228Y-136599500D01*
X158035226Y-136599500D01*
X157910935Y-136635994D01*
X157910932Y-136635995D01*
X157910931Y-136635996D01*
X157859677Y-136668934D01*
X157801950Y-136706033D01*
X157779709Y-136731702D01*
X157720931Y-136769477D01*
X157685995Y-136774500D01*
X155904000Y-136774500D01*
X155836961Y-136754815D01*
X155791206Y-136702011D01*
X155780000Y-136650500D01*
X155780000Y-135614500D01*
X155799685Y-135547461D01*
X155852489Y-135501706D01*
X155904000Y-135490500D01*
X155924773Y-135490500D01*
X155924773Y-135490499D01*
X156049069Y-135454004D01*
X156158049Y-135383967D01*
X156242882Y-135286063D01*
X156296697Y-135168226D01*
X156315133Y-135040000D01*
X156296697Y-134911774D01*
X156242882Y-134793937D01*
X156158049Y-134696033D01*
X156049069Y-134625996D01*
X156049065Y-134625994D01*
X156049064Y-134625994D01*
X155924774Y-134589500D01*
X155924772Y-134589500D01*
X155904000Y-134589500D01*
X155836961Y-134569815D01*
X155791206Y-134517011D01*
X155780000Y-134465500D01*
X155780000Y-133599500D01*
X155799685Y-133532461D01*
X155852489Y-133486706D01*
X155904000Y-133475500D01*
X160292196Y-133475500D01*
X160383240Y-133457389D01*
X160427528Y-133448580D01*
X160491269Y-133422177D01*
X160555007Y-133395777D01*
X160555008Y-133395776D01*
X160555011Y-133395775D01*
X160669743Y-133319114D01*
X166119114Y-127869743D01*
X166195775Y-127755011D01*
X166248580Y-127627529D01*
X166254032Y-127600121D01*
X166275500Y-127492193D01*
X166275500Y-123792075D01*
X167421476Y-123792075D01*
X167545462Y-123858348D01*
X167733969Y-123915531D01*
X167733965Y-123915531D01*
X167930000Y-123934838D01*
X168126032Y-123915531D01*
X168314537Y-123858348D01*
X168438523Y-123792076D01*
X168438523Y-123792075D01*
X167930001Y-123283553D01*
X167930000Y-123283553D01*
X167421476Y-123792075D01*
X166275500Y-123792075D01*
X166275500Y-122930000D01*
X166925161Y-122930000D01*
X166944468Y-123126032D01*
X167001651Y-123314537D01*
X167067923Y-123438522D01*
X167576447Y-122930000D01*
X168283553Y-122930000D01*
X168792075Y-123438523D01*
X168792076Y-123438523D01*
X168858348Y-123314537D01*
X168915531Y-123126032D01*
X168934838Y-122930000D01*
X168915531Y-122733967D01*
X168858348Y-122545462D01*
X168792075Y-122421476D01*
X168283553Y-122929999D01*
X168283553Y-122930000D01*
X167576447Y-122930000D01*
X167067923Y-122421476D01*
X167001649Y-122545466D01*
X166944468Y-122733967D01*
X166925161Y-122930000D01*
X166275500Y-122930000D01*
X166275500Y-122067923D01*
X167421476Y-122067923D01*
X167930000Y-122576447D01*
X167930001Y-122576447D01*
X168438522Y-122067923D01*
X168314537Y-122001651D01*
X168126030Y-121944468D01*
X168126034Y-121944468D01*
X167930000Y-121925161D01*
X167733967Y-121944468D01*
X167545466Y-122001649D01*
X167421476Y-122067923D01*
X166275500Y-122067923D01*
X166275500Y-121431887D01*
X166277883Y-121407695D01*
X166280884Y-121392611D01*
X166289332Y-121350138D01*
X166300500Y-121293994D01*
X166300500Y-121173074D01*
X166320185Y-121106035D01*
X166355609Y-121069972D01*
X166394191Y-121044191D01*
X166438396Y-120978034D01*
X166438397Y-120978033D01*
X166449999Y-120919702D01*
X166450000Y-120919699D01*
X166450000Y-120400000D01*
X166439815Y-120389815D01*
X166407461Y-120380315D01*
X166361706Y-120327511D01*
X166350500Y-120276002D01*
X166350499Y-120224002D01*
X166370182Y-120156963D01*
X166413124Y-120119752D01*
X166799500Y-120119752D01*
X166811131Y-120178229D01*
X166811132Y-120178230D01*
X166855447Y-120244552D01*
X166921769Y-120288867D01*
X166921770Y-120288868D01*
X166980247Y-120300499D01*
X166980250Y-120300500D01*
X166980252Y-120300500D01*
X169019750Y-120300500D01*
X169019751Y-120300499D01*
X169034568Y-120297552D01*
X169078229Y-120288868D01*
X169078229Y-120288867D01*
X169078231Y-120288867D01*
X169144552Y-120244552D01*
X169188867Y-120178231D01*
X169188867Y-120178229D01*
X169188868Y-120178229D01*
X169200499Y-120119752D01*
X169200500Y-120119750D01*
X169200500Y-116080249D01*
X169200499Y-116080247D01*
X169188868Y-116021770D01*
X169188867Y-116021769D01*
X169144552Y-115955447D01*
X169078230Y-115911132D01*
X169078229Y-115911131D01*
X169019752Y-115899500D01*
X169019748Y-115899500D01*
X166980252Y-115899500D01*
X166980247Y-115899500D01*
X166921770Y-115911131D01*
X166921769Y-115911132D01*
X166855447Y-115955447D01*
X166811132Y-116021769D01*
X166811131Y-116021770D01*
X166799500Y-116080247D01*
X166799500Y-120119752D01*
X166413124Y-120119752D01*
X166422985Y-120111207D01*
X166443188Y-120106811D01*
X166450000Y-120100000D01*
X166450000Y-119580301D01*
X166449999Y-119580297D01*
X166438397Y-119521966D01*
X166438396Y-119521965D01*
X166394191Y-119455808D01*
X166350883Y-119426870D01*
X166306078Y-119373258D01*
X166305213Y-119371220D01*
X166274537Y-119297161D01*
X166274536Y-119297160D01*
X166274536Y-119297159D01*
X166178282Y-119171718D01*
X166052841Y-119075464D01*
X166052546Y-119075342D01*
X165906762Y-119014956D01*
X165906760Y-119014955D01*
X165789361Y-118999500D01*
X165410644Y-118999500D01*
X165380593Y-119003456D01*
X165366183Y-119005352D01*
X165333820Y-119005352D01*
X165289364Y-118999500D01*
X164910636Y-118999500D01*
X164793246Y-119014953D01*
X164793234Y-119014957D01*
X164647452Y-119075342D01*
X164577983Y-119082811D01*
X164552548Y-119075342D01*
X164406765Y-119014957D01*
X164406760Y-119014955D01*
X164289361Y-118999500D01*
X163910644Y-118999500D01*
X163880593Y-119003456D01*
X163866183Y-119005352D01*
X163833820Y-119005352D01*
X163789364Y-118999500D01*
X163410636Y-118999500D01*
X163293246Y-119014953D01*
X163293234Y-119014957D01*
X163147452Y-119075342D01*
X163077983Y-119082811D01*
X163052548Y-119075342D01*
X162906765Y-119014957D01*
X162906760Y-119014955D01*
X162789361Y-118999500D01*
X162410644Y-118999500D01*
X162380593Y-119003456D01*
X162366183Y-119005352D01*
X162333820Y-119005352D01*
X162289364Y-118999500D01*
X161910636Y-118999500D01*
X161793246Y-119014953D01*
X161793234Y-119014957D01*
X161647452Y-119075342D01*
X161577983Y-119082811D01*
X161552548Y-119075342D01*
X161406765Y-119014957D01*
X161406760Y-119014955D01*
X161289361Y-118999500D01*
X160910644Y-118999500D01*
X160880593Y-119003456D01*
X160866183Y-119005352D01*
X160833820Y-119005352D01*
X160789364Y-118999500D01*
X160410636Y-118999500D01*
X160293246Y-119014953D01*
X160293234Y-119014957D01*
X160147452Y-119075342D01*
X160077983Y-119082811D01*
X160052548Y-119075342D01*
X159906765Y-119014957D01*
X159906760Y-119014955D01*
X159789361Y-118999500D01*
X159410644Y-118999500D01*
X159380593Y-119003456D01*
X159366183Y-119005352D01*
X159333820Y-119005352D01*
X159289364Y-118999500D01*
X158910636Y-118999500D01*
X158793246Y-119014953D01*
X158793237Y-119014956D01*
X158647158Y-119075464D01*
X158607989Y-119105519D01*
X158542819Y-119130712D01*
X158474375Y-119116673D01*
X158451825Y-119100000D01*
X158402155Y-119100000D01*
X158342627Y-119106401D01*
X158342620Y-119106403D01*
X158199601Y-119159746D01*
X158199040Y-119158243D01*
X158140645Y-119170942D01*
X158075183Y-119146521D01*
X158033315Y-119090585D01*
X158025500Y-119047259D01*
X158025500Y-118976238D01*
X158045185Y-118909199D01*
X158055777Y-118895047D01*
X158132882Y-118806063D01*
X158186697Y-118688226D01*
X158205133Y-118560000D01*
X158186697Y-118431774D01*
X158132882Y-118313937D01*
X158048049Y-118216033D01*
X157939069Y-118145996D01*
X157939065Y-118145994D01*
X157939064Y-118145994D01*
X157814774Y-118109500D01*
X157814772Y-118109500D01*
X157685228Y-118109500D01*
X157685226Y-118109500D01*
X157560935Y-118145994D01*
X157560932Y-118145995D01*
X157560931Y-118145996D01*
X157514149Y-118176061D01*
X157451950Y-118216033D01*
X157367118Y-118313937D01*
X157367117Y-118313938D01*
X157313302Y-118431774D01*
X157294867Y-118560000D01*
X157313302Y-118688225D01*
X157367117Y-118806061D01*
X157367120Y-118806067D01*
X157424630Y-118872437D01*
X157453655Y-118935993D01*
X157443711Y-119005151D01*
X157418598Y-119041320D01*
X157395842Y-119064076D01*
X157334519Y-119097561D01*
X157301195Y-119099384D01*
X157301153Y-119100178D01*
X157297828Y-119100000D01*
X157250000Y-119100000D01*
X157250000Y-119569084D01*
X157249500Y-119579262D01*
X157249500Y-120276000D01*
X157229815Y-120343039D01*
X157177011Y-120388794D01*
X157125500Y-120400000D01*
X157074500Y-120400000D01*
X157007461Y-120380315D01*
X156961706Y-120327511D01*
X156950500Y-120276000D01*
X156950500Y-119579262D01*
X156950000Y-119569084D01*
X156950000Y-119100000D01*
X156902155Y-119100000D01*
X156842627Y-119106401D01*
X156842620Y-119106403D01*
X156707913Y-119156645D01*
X156707906Y-119156649D01*
X156592812Y-119242809D01*
X156511856Y-119350951D01*
X156455922Y-119392821D01*
X156436049Y-119397430D01*
X156436225Y-119398312D01*
X156374190Y-119410651D01*
X156325810Y-119410651D01*
X156269748Y-119399500D01*
X155930252Y-119399500D01*
X155874190Y-119410651D01*
X155825810Y-119410651D01*
X155769748Y-119399500D01*
X155430252Y-119399500D01*
X155374190Y-119410651D01*
X155325810Y-119410651D01*
X155269748Y-119399500D01*
X154930252Y-119399500D01*
X154874190Y-119410651D01*
X154825810Y-119410651D01*
X154769748Y-119399500D01*
X154430252Y-119399500D01*
X154374190Y-119410651D01*
X154325810Y-119410651D01*
X154269748Y-119399500D01*
X153930252Y-119399500D01*
X153874190Y-119410651D01*
X153825810Y-119410651D01*
X153769748Y-119399500D01*
X153430252Y-119399500D01*
X153374190Y-119410651D01*
X153325810Y-119410651D01*
X153263775Y-119398312D01*
X153264307Y-119395632D01*
X153210426Y-119373848D01*
X153188143Y-119350950D01*
X153107190Y-119242812D01*
X153107187Y-119242809D01*
X152992093Y-119156649D01*
X152992086Y-119156645D01*
X152857379Y-119106403D01*
X152857372Y-119106401D01*
X152797844Y-119100000D01*
X152750000Y-119100000D01*
X152750000Y-119569084D01*
X152749500Y-119579262D01*
X152749500Y-120276000D01*
X152729815Y-120343039D01*
X152677011Y-120388794D01*
X152625500Y-120400000D01*
X152574500Y-120400000D01*
X152507461Y-120380315D01*
X152461706Y-120327511D01*
X152450500Y-120276000D01*
X152450500Y-119579262D01*
X152450000Y-119569084D01*
X152450000Y-119100000D01*
X152402155Y-119100000D01*
X152342627Y-119106401D01*
X152342620Y-119106403D01*
X152207913Y-119156645D01*
X152207910Y-119156647D01*
X152133811Y-119212118D01*
X152068346Y-119236535D01*
X152000074Y-119221683D01*
X151950668Y-119172278D01*
X151935500Y-119112851D01*
X151935500Y-118288535D01*
X151955185Y-118221496D01*
X151965783Y-118207336D01*
X151992882Y-118176063D01*
X152046697Y-118058226D01*
X152065133Y-117930000D01*
X152046697Y-117801774D01*
X151992882Y-117683937D01*
X151908049Y-117586033D01*
X151799069Y-117515996D01*
X151799065Y-117515994D01*
X151799064Y-117515994D01*
X151674774Y-117479500D01*
X151674772Y-117479500D01*
X151545228Y-117479500D01*
X151545226Y-117479500D01*
X151420935Y-117515994D01*
X151420932Y-117515995D01*
X151420931Y-117515996D01*
X151388567Y-117536795D01*
X151311950Y-117586033D01*
X151227118Y-117683937D01*
X151227117Y-117683938D01*
X151173302Y-117801774D01*
X151154867Y-117930000D01*
X151173302Y-118058225D01*
X151220475Y-118161517D01*
X151227118Y-118176063D01*
X151254213Y-118207333D01*
X151283238Y-118270888D01*
X151284500Y-118288535D01*
X151284500Y-119275500D01*
X151264815Y-119342539D01*
X151212011Y-119388294D01*
X151160500Y-119399500D01*
X150930252Y-119399500D01*
X150874190Y-119410651D01*
X150825810Y-119410651D01*
X150769748Y-119399500D01*
X150430252Y-119399500D01*
X150374190Y-119410651D01*
X150325810Y-119410651D01*
X150269748Y-119399500D01*
X149930252Y-119399500D01*
X149874190Y-119410651D01*
X149825810Y-119410651D01*
X149769748Y-119399500D01*
X149430252Y-119399500D01*
X149374190Y-119410651D01*
X149325810Y-119410651D01*
X149269748Y-119399500D01*
X148930252Y-119399500D01*
X148874190Y-119410651D01*
X148825810Y-119410651D01*
X148769748Y-119399500D01*
X148430252Y-119399500D01*
X148374190Y-119410651D01*
X148325810Y-119410651D01*
X148269748Y-119399500D01*
X147930252Y-119399500D01*
X147874190Y-119410651D01*
X147825810Y-119410651D01*
X147769748Y-119399500D01*
X147430252Y-119399500D01*
X147372908Y-119410906D01*
X147324528Y-119410906D01*
X147269697Y-119400000D01*
X147250000Y-119400000D01*
X147250000Y-119569084D01*
X147249500Y-119579262D01*
X147249500Y-120920747D01*
X147250000Y-120930915D01*
X147250000Y-121100000D01*
X147269699Y-121100000D01*
X147269699Y-121099999D01*
X147324526Y-121089094D01*
X147372910Y-121089094D01*
X147430249Y-121100500D01*
X147675500Y-121100500D01*
X147742539Y-121120185D01*
X147788294Y-121172989D01*
X147799500Y-121224500D01*
X147799500Y-121392611D01*
X147779815Y-121459650D01*
X147769214Y-121473812D01*
X147717120Y-121533932D01*
X147717117Y-121533938D01*
X147663302Y-121651774D01*
X147644867Y-121780000D01*
X147663302Y-121908225D01*
X147671037Y-121925161D01*
X147717118Y-122026063D01*
X147747919Y-122061610D01*
X147776944Y-122125165D01*
X147767000Y-122194323D01*
X147721246Y-122247127D01*
X147711836Y-122252606D01*
X147699152Y-122259263D01*
X147699148Y-122259266D01*
X147571816Y-122372072D01*
X147475182Y-122512068D01*
X147414860Y-122671125D01*
X147414859Y-122671130D01*
X147394355Y-122840000D01*
X147414859Y-123008869D01*
X147414860Y-123008874D01*
X147475182Y-123167931D01*
X147504221Y-123210000D01*
X147571817Y-123307929D01*
X147677505Y-123401560D01*
X147699150Y-123420736D01*
X147813821Y-123480920D01*
X147864033Y-123529504D01*
X147880008Y-123597523D01*
X147856673Y-123663381D01*
X147801437Y-123706168D01*
X147794515Y-123708647D01*
X147709969Y-123736118D01*
X147534594Y-123825476D01*
X147443741Y-123891485D01*
X147375354Y-123941172D01*
X147375352Y-123941174D01*
X147375351Y-123941174D01*
X147236174Y-124080351D01*
X147236174Y-124080352D01*
X147236172Y-124080354D01*
X147178324Y-124159974D01*
X147120474Y-124239597D01*
X147090235Y-124298944D01*
X147042260Y-124349739D01*
X146974439Y-124366534D01*
X146941433Y-124360579D01*
X146832828Y-124325291D01*
X146638422Y-124294500D01*
X146638417Y-124294500D01*
X146608993Y-124294500D01*
X146258993Y-124294500D01*
X145007807Y-124294500D01*
X145007803Y-124294500D01*
X144899390Y-124316065D01*
X144899389Y-124316065D01*
X144885931Y-124318742D01*
X144872473Y-124321419D01*
X144835130Y-124336887D01*
X144744992Y-124374223D01*
X144676551Y-124419954D01*
X144630256Y-124450886D01*
X144556057Y-124525086D01*
X144481857Y-124599286D01*
X142890957Y-126190184D01*
X142890954Y-126190187D01*
X142814297Y-126304913D01*
X142814290Y-126304927D01*
X142806661Y-126323344D01*
X142764989Y-126376204D01*
X142712839Y-126414094D01*
X142593210Y-126546956D01*
X142503820Y-126701784D01*
X142503817Y-126701790D01*
X142448574Y-126871812D01*
X142448573Y-126871814D01*
X142429885Y-127049620D01*
X142440511Y-127150717D01*
X142427942Y-127219447D01*
X142423508Y-127227495D01*
X142409999Y-127250000D01*
X142446872Y-134009824D01*
X142427554Y-134076969D01*
X142375000Y-134123012D01*
X142322874Y-134134500D01*
X138915477Y-134134500D01*
X138848438Y-134114815D01*
X138827796Y-134098181D01*
X138111819Y-133382204D01*
X138078334Y-133320881D01*
X138075500Y-133294523D01*
X138075500Y-129196236D01*
X138095185Y-129129197D01*
X138141871Y-129086441D01*
X138190852Y-129060734D01*
X138318183Y-128947929D01*
X138414818Y-128807930D01*
X138475140Y-128648872D01*
X138495645Y-128480000D01*
X138475140Y-128311128D01*
X138414818Y-128152070D01*
X138318183Y-128012071D01*
X138190852Y-127899266D01*
X138184204Y-127895777D01*
X138141872Y-127873558D01*
X138091661Y-127824973D01*
X138075500Y-127763763D01*
X138075500Y-123353260D01*
X138742000Y-123353260D01*
X138751926Y-123421391D01*
X138803303Y-123526485D01*
X138886014Y-123609196D01*
X138886015Y-123609196D01*
X138886017Y-123609198D01*
X138991107Y-123660573D01*
X139025173Y-123665536D01*
X139059239Y-123670500D01*
X139059240Y-123670500D01*
X140300761Y-123670500D01*
X140323471Y-123667191D01*
X140368893Y-123660573D01*
X140473983Y-123609198D01*
X140511361Y-123571820D01*
X140572684Y-123538334D01*
X140599043Y-123535500D01*
X141090253Y-123535500D01*
X141157292Y-123555185D01*
X141200738Y-123603205D01*
X141204353Y-123610300D01*
X141204354Y-123610304D01*
X141261950Y-123723342D01*
X141261951Y-123723343D01*
X141261954Y-123723347D01*
X141351652Y-123813045D01*
X141351654Y-123813046D01*
X141351658Y-123813050D01*
X141464694Y-123870645D01*
X141464698Y-123870647D01*
X141558475Y-123885499D01*
X141558481Y-123885500D01*
X142021518Y-123885499D01*
X142115304Y-123870646D01*
X142228342Y-123813050D01*
X142318050Y-123723342D01*
X142375646Y-123610304D01*
X142375646Y-123610302D01*
X142375647Y-123610301D01*
X142388791Y-123527307D01*
X142390500Y-123516519D01*
X142390500Y-123516517D01*
X142839500Y-123516517D01*
X142848259Y-123571820D01*
X142854354Y-123610304D01*
X142911950Y-123723342D01*
X142911952Y-123723344D01*
X142911954Y-123723347D01*
X143001652Y-123813045D01*
X143001654Y-123813046D01*
X143001658Y-123813050D01*
X143114694Y-123870645D01*
X143114698Y-123870647D01*
X143208475Y-123885499D01*
X143208481Y-123885500D01*
X143671518Y-123885499D01*
X143765304Y-123870646D01*
X143878342Y-123813050D01*
X143968050Y-123723342D01*
X143994003Y-123672405D01*
X144041976Y-123621611D01*
X144109797Y-123604815D01*
X144162342Y-123621475D01*
X144162869Y-123620322D01*
X144170933Y-123624005D01*
X144295225Y-123660499D01*
X144295227Y-123660500D01*
X144295228Y-123660500D01*
X144424773Y-123660500D01*
X144424773Y-123660499D01*
X144549069Y-123624004D01*
X144658049Y-123553967D01*
X144742882Y-123456063D01*
X144796697Y-123338226D01*
X144815133Y-123210000D01*
X144796697Y-123081774D01*
X144742882Y-122963937D01*
X144658049Y-122866033D01*
X144549069Y-122795996D01*
X144549065Y-122795994D01*
X144549064Y-122795994D01*
X144424774Y-122759500D01*
X144424772Y-122759500D01*
X144295228Y-122759500D01*
X144295226Y-122759500D01*
X144170933Y-122795994D01*
X144162869Y-122799678D01*
X144162256Y-122798336D01*
X144104480Y-122815298D01*
X144037442Y-122795610D01*
X143994003Y-122747595D01*
X143968050Y-122696658D01*
X143968048Y-122696656D01*
X143968045Y-122696652D01*
X143878347Y-122606954D01*
X143878344Y-122606952D01*
X143878342Y-122606950D01*
X143801517Y-122567805D01*
X143765301Y-122549352D01*
X143671524Y-122534500D01*
X143208482Y-122534500D01*
X143127519Y-122547323D01*
X143114696Y-122549354D01*
X143001658Y-122606950D01*
X143001657Y-122606951D01*
X143001652Y-122606954D01*
X142911954Y-122696652D01*
X142911951Y-122696657D01*
X142854352Y-122809698D01*
X142839500Y-122903475D01*
X142839500Y-123516517D01*
X142390500Y-123516517D01*
X142390499Y-122903482D01*
X142375646Y-122809696D01*
X142318050Y-122696658D01*
X142318046Y-122696654D01*
X142318045Y-122696652D01*
X142228343Y-122606950D01*
X142183204Y-122583950D01*
X142132409Y-122535975D01*
X142115500Y-122473466D01*
X142115500Y-122269748D01*
X142135185Y-122202709D01*
X142183205Y-122159263D01*
X142190304Y-122155646D01*
X142303342Y-122098050D01*
X142393050Y-122008342D01*
X142450646Y-121895304D01*
X142450646Y-121895302D01*
X142450647Y-121895301D01*
X142465499Y-121801524D01*
X142465500Y-121801519D01*
X142465499Y-121338482D01*
X142450646Y-121244696D01*
X142393050Y-121131658D01*
X142393046Y-121131654D01*
X142393045Y-121131652D01*
X142303347Y-121041954D01*
X142303344Y-121041952D01*
X142303342Y-121041950D01*
X142226517Y-121002805D01*
X142190301Y-120984352D01*
X142096524Y-120969500D01*
X141483482Y-120969500D01*
X141402519Y-120982323D01*
X141389696Y-120984354D01*
X141276658Y-121041950D01*
X141276657Y-121041951D01*
X141276652Y-121041954D01*
X141186954Y-121131652D01*
X141186951Y-121131657D01*
X141129352Y-121244698D01*
X141114500Y-121338475D01*
X141114500Y-121801517D01*
X141124319Y-121863514D01*
X141129354Y-121895304D01*
X141186950Y-122008342D01*
X141186952Y-122008344D01*
X141186954Y-122008347D01*
X141276652Y-122098045D01*
X141276656Y-122098048D01*
X141276658Y-122098050D01*
X141389696Y-122155646D01*
X141389699Y-122155646D01*
X141396795Y-122159262D01*
X141447591Y-122207236D01*
X141464500Y-122269747D01*
X141464500Y-122473466D01*
X141444815Y-122540505D01*
X141396796Y-122583950D01*
X141351656Y-122606950D01*
X141261954Y-122696652D01*
X141261952Y-122696656D01*
X141261950Y-122696658D01*
X141204354Y-122809696D01*
X141200737Y-122816795D01*
X141152762Y-122867591D01*
X141090252Y-122884500D01*
X140668804Y-122884500D01*
X140601765Y-122864815D01*
X140563213Y-122821488D01*
X140562668Y-122821878D01*
X140559048Y-122816807D01*
X140557403Y-122814959D01*
X140556697Y-122813515D01*
X140473985Y-122730803D01*
X140368891Y-122679426D01*
X140300761Y-122669500D01*
X140300760Y-122669500D01*
X139059240Y-122669500D01*
X139059239Y-122669500D01*
X138991108Y-122679426D01*
X138886014Y-122730803D01*
X138803303Y-122813514D01*
X138751926Y-122918608D01*
X138742000Y-122986739D01*
X138742000Y-123353260D01*
X138075500Y-123353260D01*
X138075500Y-122844500D01*
X138095185Y-122777461D01*
X138147989Y-122731706D01*
X138199500Y-122720500D01*
X138425761Y-122720500D01*
X138448471Y-122717191D01*
X138493893Y-122710573D01*
X138598983Y-122659198D01*
X138681698Y-122576483D01*
X138733073Y-122471393D01*
X138743000Y-122403260D01*
X138743000Y-122036740D01*
X138733073Y-121968607D01*
X138681698Y-121863517D01*
X138681696Y-121863515D01*
X138681696Y-121863514D01*
X138598985Y-121780803D01*
X138493891Y-121729426D01*
X138425761Y-121719500D01*
X138425760Y-121719500D01*
X138249500Y-121719500D01*
X138182461Y-121699815D01*
X138136706Y-121647011D01*
X138125500Y-121595500D01*
X138125500Y-121520000D01*
X138752230Y-121520000D01*
X138752411Y-121521249D01*
X138803712Y-121626188D01*
X138886311Y-121708787D01*
X138991248Y-121760087D01*
X138991251Y-121760088D01*
X139059280Y-121769999D01*
X139429999Y-121769999D01*
X139430000Y-121769998D01*
X139430000Y-121520000D01*
X139930000Y-121520000D01*
X139930000Y-121769999D01*
X140300718Y-121769999D01*
X140368749Y-121760087D01*
X140473691Y-121708784D01*
X140556287Y-121626188D01*
X140607588Y-121521249D01*
X140607770Y-121520000D01*
X139930000Y-121520000D01*
X139430000Y-121520000D01*
X138752230Y-121520000D01*
X138125500Y-121520000D01*
X138125500Y-121019999D01*
X138752229Y-121019999D01*
X138752230Y-121020000D01*
X139430000Y-121020000D01*
X139430000Y-120770000D01*
X139930000Y-120770000D01*
X139930000Y-121020000D01*
X140607770Y-121020000D01*
X140607770Y-121019999D01*
X140607588Y-121018750D01*
X140556287Y-120913811D01*
X140473688Y-120831212D01*
X140368751Y-120779912D01*
X140368748Y-120779911D01*
X140300720Y-120770000D01*
X139930000Y-120770000D01*
X139430000Y-120770000D01*
X139059287Y-120770000D01*
X138991251Y-120779912D01*
X138886308Y-120831215D01*
X138803712Y-120913811D01*
X138752411Y-121018750D01*
X138752229Y-121019999D01*
X138125500Y-121019999D01*
X138125500Y-120279748D01*
X138145185Y-120212709D01*
X138192390Y-120170000D01*
X141117935Y-120170000D01*
X141129835Y-120245149D01*
X141129837Y-120245155D01*
X141187356Y-120358041D01*
X141187363Y-120358050D01*
X141276949Y-120447636D01*
X141276953Y-120447639D01*
X141389855Y-120505166D01*
X141483514Y-120519999D01*
X141539999Y-120519998D01*
X141540000Y-120519998D01*
X141540000Y-120170000D01*
X142040000Y-120170000D01*
X142040000Y-120519999D01*
X142096479Y-120519999D01*
X142190149Y-120505164D01*
X142190155Y-120505162D01*
X142303041Y-120447643D01*
X142303050Y-120447636D01*
X142350686Y-120400000D01*
X146250000Y-120400000D01*
X146250000Y-120919702D01*
X146261602Y-120978033D01*
X146261603Y-120978034D01*
X146305808Y-121044191D01*
X146371965Y-121088396D01*
X146371966Y-121088397D01*
X146430297Y-121099999D01*
X146430301Y-121100000D01*
X146450000Y-121100000D01*
X146450000Y-120400000D01*
X146750000Y-120400000D01*
X146750000Y-121100000D01*
X146769699Y-121100000D01*
X146769699Y-121099999D01*
X146825808Y-121088839D01*
X146874192Y-121088839D01*
X146930300Y-121099999D01*
X146930301Y-121100000D01*
X146950000Y-121100000D01*
X146950000Y-120400000D01*
X146750000Y-120400000D01*
X146450000Y-120400000D01*
X146250000Y-120400000D01*
X142350686Y-120400000D01*
X142392636Y-120358050D01*
X142392639Y-120358046D01*
X142450166Y-120245144D01*
X142462068Y-120170000D01*
X142040000Y-120170000D01*
X141540000Y-120170000D01*
X141117935Y-120170000D01*
X138192390Y-120170000D01*
X138193205Y-120169263D01*
X138200304Y-120165646D01*
X138290376Y-120119752D01*
X143499500Y-120119752D01*
X143511131Y-120178229D01*
X143511132Y-120178230D01*
X143555447Y-120244552D01*
X143621769Y-120288867D01*
X143621770Y-120288868D01*
X143680247Y-120300499D01*
X143680250Y-120300500D01*
X143680252Y-120300500D01*
X145719750Y-120300500D01*
X145719751Y-120300499D01*
X145734568Y-120297552D01*
X145778229Y-120288868D01*
X145778229Y-120288867D01*
X145778231Y-120288867D01*
X145844552Y-120244552D01*
X145888867Y-120178231D01*
X145888867Y-120178229D01*
X145888868Y-120178229D01*
X145900499Y-120119752D01*
X145900500Y-120119750D01*
X145900500Y-120100000D01*
X146250000Y-120100000D01*
X146450000Y-120100000D01*
X146450000Y-119400000D01*
X146750000Y-119400000D01*
X146750000Y-120100000D01*
X146950000Y-120100000D01*
X146950000Y-119400000D01*
X146930303Y-119400000D01*
X146874190Y-119411161D01*
X146825810Y-119411161D01*
X146769697Y-119400000D01*
X146750000Y-119400000D01*
X146450000Y-119400000D01*
X146430297Y-119400000D01*
X146371966Y-119411602D01*
X146371965Y-119411603D01*
X146305808Y-119455808D01*
X146261603Y-119521965D01*
X146261602Y-119521966D01*
X146250000Y-119580297D01*
X146250000Y-120100000D01*
X145900500Y-120100000D01*
X145900500Y-116080249D01*
X145900499Y-116080247D01*
X145888868Y-116021770D01*
X145888867Y-116021769D01*
X145844552Y-115955447D01*
X145778230Y-115911132D01*
X145778229Y-115911131D01*
X145719752Y-115899500D01*
X145719748Y-115899500D01*
X143680252Y-115899500D01*
X143680247Y-115899500D01*
X143621770Y-115911131D01*
X143621769Y-115911132D01*
X143555447Y-115955447D01*
X143511132Y-116021769D01*
X143511131Y-116021770D01*
X143499500Y-116080247D01*
X143499500Y-120119752D01*
X138290376Y-120119752D01*
X138313342Y-120108050D01*
X138403050Y-120018342D01*
X138460646Y-119905304D01*
X138460646Y-119905302D01*
X138460647Y-119905301D01*
X138475499Y-119811524D01*
X138475500Y-119811519D01*
X138475500Y-119670000D01*
X141117932Y-119670000D01*
X141540000Y-119670000D01*
X141540000Y-119320000D01*
X142040000Y-119320000D01*
X142040000Y-119670000D01*
X142462065Y-119670000D01*
X142450164Y-119594850D01*
X142450162Y-119594844D01*
X142392643Y-119481958D01*
X142392636Y-119481949D01*
X142303050Y-119392363D01*
X142303046Y-119392360D01*
X142190144Y-119334833D01*
X142096486Y-119320000D01*
X142040000Y-119320000D01*
X141540000Y-119320000D01*
X141539999Y-119319999D01*
X141483521Y-119320000D01*
X141389849Y-119334835D01*
X141389844Y-119334837D01*
X141276958Y-119392356D01*
X141276949Y-119392363D01*
X141187363Y-119481949D01*
X141187360Y-119481953D01*
X141129833Y-119594855D01*
X141117932Y-119670000D01*
X138475500Y-119670000D01*
X138475499Y-119348482D01*
X138460646Y-119254696D01*
X138403050Y-119141658D01*
X138403046Y-119141654D01*
X138403045Y-119141652D01*
X138313347Y-119051954D01*
X138313344Y-119051952D01*
X138313342Y-119051950D01*
X138221889Y-119005352D01*
X138200301Y-118994352D01*
X138106524Y-118979500D01*
X137493482Y-118979500D01*
X137412519Y-118992323D01*
X137399696Y-118994354D01*
X137286658Y-119051950D01*
X137286657Y-119051951D01*
X137286652Y-119051954D01*
X137196954Y-119141652D01*
X137196951Y-119141657D01*
X137196950Y-119141658D01*
X137187734Y-119159746D01*
X137139352Y-119254698D01*
X137124500Y-119348475D01*
X137124500Y-119811517D01*
X137135292Y-119879657D01*
X137139354Y-119905304D01*
X137196950Y-120018342D01*
X137196952Y-120018344D01*
X137196954Y-120018347D01*
X137286652Y-120108045D01*
X137286656Y-120108048D01*
X137286658Y-120108050D01*
X137399696Y-120165646D01*
X137399699Y-120165646D01*
X137406795Y-120169262D01*
X137457591Y-120217236D01*
X137474500Y-120279747D01*
X137474500Y-121595500D01*
X137454815Y-121662539D01*
X137402011Y-121708294D01*
X137350500Y-121719500D01*
X137184239Y-121719500D01*
X137116108Y-121729426D01*
X137011014Y-121780803D01*
X136928303Y-121863514D01*
X136876926Y-121968608D01*
X136867000Y-122036739D01*
X136867000Y-122403260D01*
X135980000Y-122403260D01*
X135980000Y-118161517D01*
X137124500Y-118161517D01*
X137134000Y-118221496D01*
X137139354Y-118255304D01*
X137196950Y-118368342D01*
X137196952Y-118368344D01*
X137196954Y-118368347D01*
X137286652Y-118458045D01*
X137286654Y-118458046D01*
X137286658Y-118458050D01*
X137399694Y-118515645D01*
X137399698Y-118515647D01*
X137493475Y-118530499D01*
X137493481Y-118530500D01*
X138106518Y-118530499D01*
X138200304Y-118515646D01*
X138313342Y-118458050D01*
X138403050Y-118368342D01*
X138426049Y-118323203D01*
X138474023Y-118272409D01*
X138536533Y-118255500D01*
X138646806Y-118255500D01*
X138713844Y-118275183D01*
X138820931Y-118344004D01*
X138903821Y-118368342D01*
X138945225Y-118380499D01*
X138945227Y-118380500D01*
X138945228Y-118380500D01*
X139074773Y-118380500D01*
X139074773Y-118380499D01*
X139199069Y-118344004D01*
X139308049Y-118273967D01*
X139392882Y-118176063D01*
X139446697Y-118058226D01*
X139465133Y-117930000D01*
X139446697Y-117801774D01*
X139392882Y-117683937D01*
X139308049Y-117586033D01*
X139199069Y-117515996D01*
X139199065Y-117515994D01*
X139199064Y-117515994D01*
X139074774Y-117479500D01*
X139074772Y-117479500D01*
X138945228Y-117479500D01*
X138945226Y-117479500D01*
X138820935Y-117515994D01*
X138820932Y-117515995D01*
X138820931Y-117515996D01*
X138713845Y-117584816D01*
X138646806Y-117604500D01*
X138536533Y-117604500D01*
X138469494Y-117584815D01*
X138426049Y-117536796D01*
X138403050Y-117491658D01*
X138403046Y-117491654D01*
X138403045Y-117491652D01*
X138313347Y-117401954D01*
X138313344Y-117401952D01*
X138313342Y-117401950D01*
X138236517Y-117362805D01*
X138200301Y-117344352D01*
X138106524Y-117329500D01*
X137493482Y-117329500D01*
X137412519Y-117342323D01*
X137399696Y-117344354D01*
X137286658Y-117401950D01*
X137286657Y-117401951D01*
X137286652Y-117401954D01*
X137196954Y-117491652D01*
X137196951Y-117491657D01*
X137139352Y-117604698D01*
X137124500Y-117698475D01*
X137124500Y-118161517D01*
X135980000Y-118161517D01*
X135980000Y-114004000D01*
X135999685Y-113936961D01*
X136052489Y-113891206D01*
X136104000Y-113880000D01*
X170136000Y-113880000D01*
X170203039Y-113899685D01*
G37*
%TD.AperFunction*%
%TD*%
M02*
