%TF.GenerationSoftware,KiCad,Pcbnew,8.0.0*%
%TF.CreationDate,2024-03-06T21:04:31+04:00*%
%TF.ProjectId,gbc-cm4-aio-flex,6762632d-636d-4342-9d61-696f2d666c65,rev?*%
%TF.SameCoordinates,Original*%
%TF.FileFunction,Drillmap*%
%TF.FilePolarity,Positive*%
%FSLAX45Y45*%
G04 Gerber Fmt 4.5, Leading zero omitted, Abs format (unit mm)*
G04 Created by KiCad (PCBNEW 8.0.0) date 2024-03-06 21:04:31*
%MOMM*%
%LPD*%
G01*
G04 APERTURE LIST*
%ADD10C,0.100000*%
%ADD11C,0.200000*%
G04 APERTURE END LIST*
D10*
X16955000Y-11456000D02*
X16950000Y-12850000D01*
X16100000Y-13700000D01*
X12050000Y-13700000D01*
X12050000Y-11650000D01*
X12250000Y-11450000D01*
X16955000Y-11456000D01*
D11*
X12305777Y-14016484D02*
X12305777Y-13816484D01*
X12305777Y-13816484D02*
X12353396Y-13816484D01*
X12353396Y-13816484D02*
X12381967Y-13826008D01*
X12381967Y-13826008D02*
X12401015Y-13845055D01*
X12401015Y-13845055D02*
X12410539Y-13864103D01*
X12410539Y-13864103D02*
X12420062Y-13902198D01*
X12420062Y-13902198D02*
X12420062Y-13930769D01*
X12420062Y-13930769D02*
X12410539Y-13968865D01*
X12410539Y-13968865D02*
X12401015Y-13987912D01*
X12401015Y-13987912D02*
X12381967Y-14006960D01*
X12381967Y-14006960D02*
X12353396Y-14016484D01*
X12353396Y-14016484D02*
X12305777Y-14016484D01*
X12505777Y-14016484D02*
X12505777Y-13883150D01*
X12505777Y-13921246D02*
X12515301Y-13902198D01*
X12515301Y-13902198D02*
X12524824Y-13892674D01*
X12524824Y-13892674D02*
X12543872Y-13883150D01*
X12543872Y-13883150D02*
X12562920Y-13883150D01*
X12629586Y-14016484D02*
X12629586Y-13883150D01*
X12629586Y-13816484D02*
X12620062Y-13826008D01*
X12620062Y-13826008D02*
X12629586Y-13835531D01*
X12629586Y-13835531D02*
X12639110Y-13826008D01*
X12639110Y-13826008D02*
X12629586Y-13816484D01*
X12629586Y-13816484D02*
X12629586Y-13835531D01*
X12753396Y-14016484D02*
X12734348Y-14006960D01*
X12734348Y-14006960D02*
X12724824Y-13987912D01*
X12724824Y-13987912D02*
X12724824Y-13816484D01*
X12858158Y-14016484D02*
X12839110Y-14006960D01*
X12839110Y-14006960D02*
X12829586Y-13987912D01*
X12829586Y-13987912D02*
X12829586Y-13816484D01*
X13086729Y-14016484D02*
X13086729Y-13816484D01*
X13086729Y-13816484D02*
X13153396Y-13959341D01*
X13153396Y-13959341D02*
X13220062Y-13816484D01*
X13220062Y-13816484D02*
X13220062Y-14016484D01*
X13401015Y-14016484D02*
X13401015Y-13911722D01*
X13401015Y-13911722D02*
X13391491Y-13892674D01*
X13391491Y-13892674D02*
X13372443Y-13883150D01*
X13372443Y-13883150D02*
X13334348Y-13883150D01*
X13334348Y-13883150D02*
X13315301Y-13892674D01*
X13401015Y-14006960D02*
X13381967Y-14016484D01*
X13381967Y-14016484D02*
X13334348Y-14016484D01*
X13334348Y-14016484D02*
X13315301Y-14006960D01*
X13315301Y-14006960D02*
X13305777Y-13987912D01*
X13305777Y-13987912D02*
X13305777Y-13968865D01*
X13305777Y-13968865D02*
X13315301Y-13949817D01*
X13315301Y-13949817D02*
X13334348Y-13940293D01*
X13334348Y-13940293D02*
X13381967Y-13940293D01*
X13381967Y-13940293D02*
X13401015Y-13930769D01*
X13496253Y-13883150D02*
X13496253Y-14083150D01*
X13496253Y-13892674D02*
X13515301Y-13883150D01*
X13515301Y-13883150D02*
X13553396Y-13883150D01*
X13553396Y-13883150D02*
X13572443Y-13892674D01*
X13572443Y-13892674D02*
X13581967Y-13902198D01*
X13581967Y-13902198D02*
X13591491Y-13921246D01*
X13591491Y-13921246D02*
X13591491Y-13978388D01*
X13591491Y-13978388D02*
X13581967Y-13997436D01*
X13581967Y-13997436D02*
X13572443Y-14006960D01*
X13572443Y-14006960D02*
X13553396Y-14016484D01*
X13553396Y-14016484D02*
X13515301Y-14016484D01*
X13515301Y-14016484D02*
X13496253Y-14006960D01*
X13677205Y-13997436D02*
X13686729Y-14006960D01*
X13686729Y-14006960D02*
X13677205Y-14016484D01*
X13677205Y-14016484D02*
X13667682Y-14006960D01*
X13667682Y-14006960D02*
X13677205Y-13997436D01*
X13677205Y-13997436D02*
X13677205Y-14016484D01*
X13677205Y-13892674D02*
X13686729Y-13902198D01*
X13686729Y-13902198D02*
X13677205Y-13911722D01*
X13677205Y-13911722D02*
X13667682Y-13902198D01*
X13667682Y-13902198D02*
X13677205Y-13892674D01*
X13677205Y-13892674D02*
X13677205Y-13911722D01*
M02*
