%TF.GenerationSoftware,KiCad,Pcbnew,8.0.0*%
%TF.CreationDate,2024-03-06T21:08:29+04:00*%
%TF.ProjectId,gbc-cm4-aio-flex,6762632d-636d-4342-9d61-696f2d666c65,rev?*%
%TF.SameCoordinates,Original*%
%TF.FileFunction,Copper,L2,Bot*%
%TF.FilePolarity,Positive*%
%FSLAX46Y46*%
G04 Gerber Fmt 4.6, Leading zero omitted, Abs format (unit mm)*
G04 Created by KiCad (PCBNEW 8.0.0) date 2024-03-06 21:08:29*
%MOMM*%
%LPD*%
G01*
G04 APERTURE LIST*
%TA.AperFunction,ViaPad*%
%ADD10C,0.500000*%
%TD*%
%TA.AperFunction,ViaPad*%
%ADD11C,0.400000*%
%TD*%
%TA.AperFunction,Conductor*%
%ADD12C,0.180000*%
%TD*%
%TA.AperFunction,Conductor*%
%ADD13C,0.200000*%
%TD*%
%TA.AperFunction,Conductor*%
%ADD14C,0.250000*%
%TD*%
G04 APERTURE END LIST*
D10*
%TO.N,GND*%
X166570000Y-130090000D03*
X161210000Y-126750000D03*
X147000000Y-134500000D03*
X134540000Y-128430000D03*
X166100000Y-118810000D03*
X146600000Y-121500000D03*
X125360000Y-128000000D03*
X145900000Y-120200000D03*
X140420000Y-128440000D03*
X150000000Y-134500000D03*
X131550000Y-128430000D03*
X132550000Y-128430000D03*
X160080000Y-128020000D03*
X161600000Y-118810000D03*
X158600000Y-118810000D03*
X147420000Y-128440000D03*
X143000000Y-134500000D03*
X146000000Y-134500000D03*
X166500000Y-128290000D03*
X140000000Y-134500000D03*
X161080000Y-128020000D03*
X163100000Y-118810000D03*
X165720000Y-131300000D03*
X142000000Y-134500000D03*
X152720000Y-134350000D03*
X157190000Y-128080000D03*
X146600000Y-119000000D03*
X161210000Y-124750000D03*
X166500000Y-124390000D03*
X127510000Y-134500000D03*
X147100000Y-121500000D03*
X121340000Y-133550000D03*
X148000000Y-134500000D03*
X154140000Y-134340000D03*
X141000000Y-134500000D03*
X121340000Y-128550000D03*
X145420000Y-128440000D03*
X164650000Y-132190000D03*
X139000000Y-134500000D03*
X121340000Y-129550000D03*
X157000000Y-121500000D03*
X141420000Y-128440000D03*
X161210000Y-121750000D03*
X159050000Y-127770000D03*
X130550000Y-128430000D03*
X125360000Y-133500000D03*
X145000000Y-134500000D03*
X144000000Y-134500000D03*
X128010000Y-129000000D03*
X154980000Y-128370000D03*
X163580000Y-132940000D03*
X142420000Y-128440000D03*
X152500000Y-128820000D03*
X135540000Y-128430000D03*
X152600000Y-119000000D03*
X161210000Y-123750000D03*
X121340000Y-132550000D03*
X136540000Y-128430000D03*
X156150000Y-134340000D03*
X121340000Y-130550000D03*
X125360000Y-127000000D03*
X161210000Y-122750000D03*
X139420000Y-128440000D03*
X166500000Y-126390000D03*
X166800000Y-120200000D03*
X147100000Y-119000000D03*
X166490000Y-121460000D03*
X157100000Y-119000000D03*
X164600000Y-118810000D03*
X166500000Y-129000000D03*
X123010000Y-127000000D03*
X144420000Y-128440000D03*
X143420000Y-128440000D03*
X160100000Y-121710000D03*
X155960000Y-128210000D03*
X166500000Y-122390000D03*
X161170000Y-133870000D03*
X121340000Y-131550000D03*
X162490000Y-133880000D03*
X154050000Y-128810000D03*
X127010000Y-127000000D03*
X125360000Y-134500000D03*
X160100000Y-118810000D03*
X166500000Y-123390000D03*
X161210000Y-125750000D03*
X166500000Y-125390000D03*
X149000000Y-134500000D03*
X125360000Y-129000000D03*
X157800000Y-134370000D03*
X146420000Y-128440000D03*
X159460000Y-134350000D03*
X133540000Y-128430000D03*
X166500000Y-127290000D03*
%TO.N,/D0_P*%
X165600000Y-129570000D03*
D11*
X122770000Y-129270000D03*
D10*
%TO.N,/D0_N*%
X165110000Y-130380000D03*
D11*
X122510000Y-129920000D03*
D10*
%TO.N,/D1_P*%
X164040000Y-131232701D03*
D11*
X122320000Y-130850000D03*
%TO.N,/D1_N*%
X122350000Y-131550000D03*
D10*
X163567374Y-131818516D03*
%TO.N,/CLK_P*%
X162540000Y-132599927D03*
D11*
X122250000Y-132440000D03*
%TO.N,/CLK_N*%
X122233596Y-133176754D03*
D10*
X161900000Y-133000000D03*
%TO.N,/PWM*%
X158110000Y-133470000D03*
X129794000Y-133780000D03*
%TO.N,/RESET*%
X137810000Y-134460000D03*
X128778000Y-134460000D03*
%TO.N,/LCD_A*%
X155600000Y-125760000D03*
X128010000Y-125890000D03*
%TO.N,/LCD_K*%
X122400000Y-125120000D03*
X154110000Y-125120000D03*
%TO.N,+1V8*%
X151790000Y-135210000D03*
X139010000Y-117930000D03*
X123040000Y-135220000D03*
X151610000Y-117930000D03*
%TO.N,+2V8*%
X150100000Y-135930000D03*
X122200000Y-135930000D03*
%TO.N,-5V*%
X150000000Y-127460000D03*
X130048000Y-127460000D03*
%TO.N,+5V*%
X129020000Y-126660000D03*
X148100000Y-126660000D03*
%TO.N,Net-(J3-Pin_18)*%
X144320000Y-123190000D03*
X157290000Y-123190000D03*
%TD*%
D12*
%TO.N,/D0_P*%
X123270000Y-129770000D02*
X136540000Y-129770000D01*
X155522598Y-129170000D02*
X154922598Y-129770000D01*
X156570000Y-129170000D02*
X155522598Y-129170000D01*
X157650000Y-129170000D02*
X157450000Y-129170000D01*
X165200000Y-129170000D02*
X159730000Y-129170000D01*
X159170000Y-129730000D02*
X158970000Y-129730000D01*
X165600000Y-129570000D02*
X165200000Y-129170000D01*
X158410000Y-128610000D02*
X158210000Y-128610000D01*
X122770000Y-129270000D02*
X123270000Y-129770000D01*
X158880000Y-129550000D02*
X158880000Y-129080000D01*
X158880000Y-129640000D02*
X158880000Y-129550000D01*
X136120000Y-129770000D02*
X136540000Y-129770000D01*
X154922598Y-129770000D02*
X136540000Y-129770000D01*
X157450000Y-129170000D02*
X156570000Y-129170000D01*
X159730000Y-129170000D02*
G75*
G03*
X159260000Y-129640000I0J-470000D01*
G01*
X158880000Y-129080000D02*
G75*
G03*
X158410000Y-128610000I-470000J0D01*
G01*
X157740000Y-129080000D02*
G75*
G02*
X157650000Y-129170000I-90000J0D01*
G01*
X158970000Y-129730000D02*
G75*
G02*
X158880000Y-129640000I0J90000D01*
G01*
X158210000Y-128610000D02*
G75*
G03*
X157740000Y-129080000I0J-470000D01*
G01*
X159260000Y-129640000D02*
G75*
G02*
X159170000Y-129730000I-90000J0D01*
G01*
%TO.N,/D0_N*%
X158500000Y-129640000D02*
X158500000Y-129550000D01*
X164280000Y-129550000D02*
X159730000Y-129550000D01*
X137470000Y-130150000D02*
X137450000Y-130170000D01*
X122882598Y-129920000D02*
X123132598Y-130170000D01*
X165110000Y-130380000D02*
X164280000Y-129550000D01*
X157650000Y-129550000D02*
X157450000Y-129550000D01*
X155680000Y-129550000D02*
X155080000Y-130150000D01*
X159170000Y-130110000D02*
X158970000Y-130110000D01*
X135670000Y-130170000D02*
X136610000Y-130170000D01*
X158410000Y-128990000D02*
X158210000Y-128990000D01*
X137450000Y-130170000D02*
X136610000Y-130170000D01*
X156570000Y-129550000D02*
X155680000Y-129550000D01*
X157450000Y-129550000D02*
X156570000Y-129550000D01*
X155080000Y-130150000D02*
X137470000Y-130150000D01*
X123132598Y-130170000D02*
X136610000Y-130170000D01*
X122510000Y-129920000D02*
X122882598Y-129920000D01*
X158500000Y-129550000D02*
X158500000Y-129080000D01*
X158500000Y-129080000D02*
G75*
G03*
X158410000Y-128990000I-90000J0D01*
G01*
X159730000Y-129550000D02*
G75*
G03*
X159640000Y-129640000I0J-90000D01*
G01*
X158210000Y-128990000D02*
G75*
G03*
X158120000Y-129080000I0J-90000D01*
G01*
X159640000Y-129640000D02*
G75*
G02*
X159170000Y-130110000I-470000J0D01*
G01*
X158120000Y-129080000D02*
G75*
G02*
X157650000Y-129550000I-470000J0D01*
G01*
X158970000Y-130110000D02*
G75*
G02*
X158500000Y-129640000I0J470000D01*
G01*
%TO.N,/D1_P*%
X122440000Y-130850000D02*
X122560000Y-130970000D01*
X163777299Y-130970000D02*
X162610000Y-130970000D01*
X122560000Y-130970000D02*
X136780000Y-130970000D01*
X161726854Y-130970000D02*
X162140000Y-130970000D01*
X122320000Y-130850000D02*
X122440000Y-130850000D01*
X162140000Y-130970000D02*
X162610000Y-130970000D01*
X135670000Y-130970000D02*
X136780000Y-130970000D01*
X164040000Y-131232701D02*
X163777299Y-130970000D01*
X160726854Y-130383146D02*
X161140000Y-130383146D01*
X136780000Y-130970000D02*
X160140000Y-130970000D01*
X161140000Y-130383146D02*
G75*
G02*
X161633454Y-130876573I0J-493454D01*
G01*
X161633427Y-130876573D02*
G75*
G03*
X161726854Y-130970073I93473J-27D01*
G01*
X160140000Y-130970000D02*
G75*
G03*
X160233400Y-130876573I0J93400D01*
G01*
X160233427Y-130876573D02*
G75*
G02*
X160726854Y-130383127I493473J-27D01*
G01*
%TO.N,/D1_N*%
X135300000Y-131370000D02*
X135860000Y-131370000D01*
X135860000Y-131370000D02*
X160140000Y-131370000D01*
X161726854Y-131370000D02*
X162140000Y-131370000D01*
X122350000Y-131550000D02*
X122530000Y-131370000D01*
X162140000Y-131370000D02*
X162610000Y-131370000D01*
X160726854Y-130783146D02*
X161140000Y-130783146D01*
X163118858Y-131370000D02*
X163567374Y-131818516D01*
X122530000Y-131370000D02*
X135860000Y-131370000D01*
X162610000Y-131370000D02*
X163118858Y-131370000D01*
X160633427Y-130876573D02*
G75*
G02*
X160726854Y-130783127I93473J-27D01*
G01*
X160140000Y-131370000D02*
G75*
G03*
X160633400Y-130876573I0J493400D01*
G01*
X161233427Y-130876573D02*
G75*
G03*
X161726854Y-131370073I493473J-27D01*
G01*
X161140000Y-130783146D02*
G75*
G02*
X161233454Y-130876573I0J-93454D01*
G01*
%TO.N,/CLK_P*%
X122250000Y-132440000D02*
X122632598Y-132440000D01*
X160226725Y-132770000D02*
X160226725Y-132813794D01*
X159626725Y-132813794D02*
X159626725Y-132770000D01*
X158826725Y-132170000D02*
X156610000Y-132170000D01*
X122632598Y-132440000D02*
X122902598Y-132170000D01*
X122902598Y-132170000D02*
X135850000Y-132170000D01*
X159026725Y-132170000D02*
X158826725Y-132170000D01*
X156610000Y-132170000D02*
X135850000Y-132170000D01*
X162110073Y-132170000D02*
X160826725Y-132170000D01*
X162540000Y-132599927D02*
X162110073Y-132170000D01*
X135320000Y-132170000D02*
X135850000Y-132170000D01*
X160026725Y-133013794D02*
X159826725Y-133013794D01*
X159626725Y-132770000D02*
G75*
G03*
X159026725Y-132169975I-600025J0D01*
G01*
X159826725Y-133013794D02*
G75*
G02*
X159626706Y-132813794I-25J199994D01*
G01*
X160826725Y-132170000D02*
G75*
G03*
X160226700Y-132770000I-25J-600000D01*
G01*
X160226725Y-132813794D02*
G75*
G02*
X160026725Y-133013825I-200025J-6D01*
G01*
%TO.N,/CLK_N*%
X135650000Y-132570000D02*
X136110000Y-132570000D01*
X161470000Y-132570000D02*
X160826725Y-132570000D01*
X122233596Y-133176754D02*
X122341472Y-133068878D01*
X156610000Y-132570000D02*
X136110000Y-132570000D01*
X158826725Y-132570000D02*
X156610000Y-132570000D01*
X122541122Y-133068878D02*
X123040000Y-132570000D01*
X159026725Y-132570000D02*
X158826725Y-132570000D01*
X160626725Y-132770000D02*
X160626725Y-132813794D01*
X160026725Y-133413794D02*
X159826725Y-133413794D01*
X122341472Y-133068878D02*
X122541122Y-133068878D01*
X159226725Y-132813794D02*
X159226725Y-132770000D01*
X161900000Y-133000000D02*
X161470000Y-132570000D01*
X123040000Y-132570000D02*
X136110000Y-132570000D01*
X159826725Y-133413794D02*
G75*
G02*
X159226706Y-132813794I-25J599994D01*
G01*
X160626725Y-132813794D02*
G75*
G02*
X160026725Y-133413825I-600025J-6D01*
G01*
X159226725Y-132770000D02*
G75*
G03*
X159026725Y-132569975I-200025J0D01*
G01*
X160826725Y-132570000D02*
G75*
G03*
X160626700Y-132770000I-25J-200000D01*
G01*
D13*
%TO.N,/PWM*%
X142410000Y-133780000D02*
X142820000Y-133780000D01*
X142820000Y-133780000D02*
X157800000Y-133780000D01*
X157800000Y-133780000D02*
X158110000Y-133470000D01*
X129794000Y-133780000D02*
X142820000Y-133780000D01*
%TO.N,/RESET*%
X128778000Y-134460000D02*
X137810000Y-134460000D01*
%TO.N,/LCD_A*%
X141450000Y-125760000D02*
X141130000Y-125760000D01*
X141450000Y-125760000D02*
X128140000Y-125760000D01*
X128140000Y-125760000D02*
X128010000Y-125890000D01*
X155600000Y-125760000D02*
X141450000Y-125760000D01*
%TO.N,/LCD_K*%
X154110000Y-125120000D02*
X122400000Y-125120000D01*
%TO.N,+1V8*%
X151780000Y-135220000D02*
X123040000Y-135220000D01*
X151790000Y-135210000D02*
X151780000Y-135220000D01*
D14*
X139010000Y-117930000D02*
X151610000Y-117930000D01*
D13*
%TO.N,+2V8*%
X150100000Y-135930000D02*
X122200000Y-135930000D01*
%TO.N,-5V*%
X150000000Y-127460000D02*
X130048000Y-127460000D01*
%TO.N,+5V*%
X148100000Y-126660000D02*
X129020000Y-126660000D01*
D14*
%TO.N,Net-(J3-Pin_18)*%
X157290000Y-123190000D02*
X144320000Y-123190000D01*
%TD*%
%TA.AperFunction,Conductor*%
%TO.N,GND*%
G36*
X169401128Y-114559809D02*
G01*
X169459293Y-114578791D01*
X169495194Y-114628336D01*
X169500000Y-114658809D01*
X169500000Y-128458992D01*
X169481093Y-128517183D01*
X169471004Y-128528996D01*
X161028996Y-136971004D01*
X160974479Y-136998781D01*
X160958992Y-137000000D01*
X120599000Y-137000000D01*
X120540809Y-136981093D01*
X120504845Y-136931593D01*
X120500000Y-136901000D01*
X120500000Y-133176754D01*
X121428031Y-133176754D01*
X121448228Y-133356011D01*
X121448229Y-133356015D01*
X121507807Y-133526276D01*
X121507807Y-133526277D01*
X121603777Y-133679012D01*
X121603780Y-133679016D01*
X121731334Y-133806570D01*
X121731336Y-133806571D01*
X121731337Y-133806572D01*
X121854564Y-133884001D01*
X121884074Y-133902543D01*
X121935392Y-133920500D01*
X122054334Y-133962120D01*
X122054338Y-133962121D01*
X122054341Y-133962122D01*
X122233596Y-133982319D01*
X122412851Y-133962122D01*
X122583118Y-133902543D01*
X122735858Y-133806570D01*
X122843722Y-133698704D01*
X122864177Y-133683536D01*
X122864150Y-133683495D01*
X122864995Y-133682930D01*
X122867071Y-133681391D01*
X122868178Y-133680798D01*
X122868196Y-133680791D01*
X122981290Y-133605224D01*
X123297018Y-133289496D01*
X123351535Y-133261719D01*
X123367022Y-133260500D01*
X129433098Y-133260500D01*
X129491289Y-133279407D01*
X129527253Y-133328907D01*
X129527253Y-133390093D01*
X129500430Y-133430545D01*
X129500588Y-133430682D01*
X129499529Y-133431903D01*
X129497926Y-133434322D01*
X129495951Y-133436032D01*
X129411117Y-133533938D01*
X129357302Y-133651774D01*
X129338867Y-133779997D01*
X129338867Y-133780002D01*
X129357302Y-133908225D01*
X129381916Y-133962120D01*
X129403673Y-134009762D01*
X129408063Y-134019373D01*
X129415038Y-134080160D01*
X129384952Y-134133437D01*
X129329296Y-134158855D01*
X129318010Y-134159500D01*
X129158925Y-134159500D01*
X129100734Y-134140593D01*
X129084105Y-134125330D01*
X129076049Y-134116033D01*
X129076048Y-134116032D01*
X128967073Y-134045998D01*
X128967070Y-134045996D01*
X128967069Y-134045996D01*
X128967066Y-134045995D01*
X128842774Y-134009500D01*
X128842772Y-134009500D01*
X128713228Y-134009500D01*
X128713225Y-134009500D01*
X128588933Y-134045995D01*
X128588926Y-134045998D01*
X128479952Y-134116031D01*
X128395117Y-134213938D01*
X128341302Y-134331774D01*
X128322867Y-134459997D01*
X128322867Y-134460002D01*
X128341302Y-134588225D01*
X128395117Y-134706061D01*
X128395118Y-134706063D01*
X128438102Y-134755670D01*
X128461919Y-134812029D01*
X128448060Y-134871624D01*
X128401819Y-134911691D01*
X128363282Y-134919500D01*
X123420925Y-134919500D01*
X123362734Y-134900593D01*
X123346105Y-134885330D01*
X123338049Y-134876033D01*
X123338048Y-134876032D01*
X123229073Y-134805998D01*
X123229070Y-134805996D01*
X123229069Y-134805996D01*
X123222159Y-134803967D01*
X123104774Y-134769500D01*
X123104772Y-134769500D01*
X122975228Y-134769500D01*
X122975225Y-134769500D01*
X122850933Y-134805995D01*
X122850926Y-134805998D01*
X122741952Y-134876031D01*
X122657117Y-134973938D01*
X122603302Y-135091774D01*
X122584867Y-135219997D01*
X122584867Y-135220002D01*
X122603302Y-135348225D01*
X122657118Y-135466064D01*
X122660946Y-135472020D01*
X122659778Y-135472770D01*
X122680594Y-135522031D01*
X122666734Y-135581626D01*
X122620492Y-135621692D01*
X122581957Y-135629500D01*
X122580925Y-135629500D01*
X122522734Y-135610593D01*
X122506105Y-135595330D01*
X122498049Y-135586033D01*
X122498048Y-135586032D01*
X122389073Y-135515998D01*
X122389070Y-135515996D01*
X122389069Y-135515996D01*
X122389066Y-135515995D01*
X122264774Y-135479500D01*
X122264772Y-135479500D01*
X122135228Y-135479500D01*
X122135225Y-135479500D01*
X122010933Y-135515995D01*
X122010926Y-135515998D01*
X121901952Y-135586031D01*
X121817117Y-135683938D01*
X121763302Y-135801774D01*
X121744867Y-135929997D01*
X121744867Y-135930002D01*
X121763302Y-136058225D01*
X121817117Y-136176061D01*
X121817118Y-136176063D01*
X121866517Y-136233073D01*
X121901952Y-136273968D01*
X122010926Y-136344001D01*
X122010931Y-136344004D01*
X122135228Y-136380500D01*
X122135230Y-136380500D01*
X122264770Y-136380500D01*
X122264772Y-136380500D01*
X122389069Y-136344004D01*
X122498049Y-136273967D01*
X122506105Y-136264670D01*
X122558500Y-136233073D01*
X122580925Y-136230500D01*
X149719075Y-136230500D01*
X149777266Y-136249407D01*
X149793895Y-136264670D01*
X149801951Y-136273967D01*
X149910931Y-136344004D01*
X150035228Y-136380500D01*
X150035230Y-136380500D01*
X150164770Y-136380500D01*
X150164772Y-136380500D01*
X150289069Y-136344004D01*
X150398049Y-136273967D01*
X150482882Y-136176063D01*
X150536697Y-136058226D01*
X150555133Y-135930000D01*
X150536697Y-135801774D01*
X150482882Y-135683937D01*
X150482881Y-135683936D01*
X150482881Y-135683935D01*
X150479054Y-135677980D01*
X150480221Y-135677229D01*
X150459406Y-135627969D01*
X150473266Y-135568374D01*
X150519508Y-135528308D01*
X150558043Y-135520500D01*
X151417740Y-135520500D01*
X151475931Y-135539407D01*
X151489150Y-135551540D01*
X151491951Y-135553967D01*
X151600931Y-135624004D01*
X151725228Y-135660500D01*
X151725230Y-135660500D01*
X151854770Y-135660500D01*
X151854772Y-135660500D01*
X151979069Y-135624004D01*
X152088049Y-135553967D01*
X152172882Y-135456063D01*
X152226697Y-135338226D01*
X152245133Y-135210000D01*
X152226697Y-135081774D01*
X152172882Y-134963937D01*
X152088049Y-134866033D01*
X152088048Y-134866032D01*
X152088047Y-134866031D01*
X151979073Y-134795998D01*
X151979070Y-134795996D01*
X151979069Y-134795996D01*
X151979066Y-134795995D01*
X151854774Y-134759500D01*
X151854772Y-134759500D01*
X151725228Y-134759500D01*
X151725225Y-134759500D01*
X151600933Y-134795995D01*
X151600926Y-134795998D01*
X151491951Y-134866032D01*
X151491950Y-134866033D01*
X151475230Y-134885330D01*
X151422834Y-134916927D01*
X151400410Y-134919500D01*
X138224718Y-134919500D01*
X138166527Y-134900593D01*
X138130563Y-134851093D01*
X138130563Y-134789907D01*
X138149896Y-134755671D01*
X138192882Y-134706063D01*
X138246697Y-134588226D01*
X138265133Y-134460000D01*
X138246697Y-134331774D01*
X138195936Y-134220626D01*
X138188962Y-134159840D01*
X138219048Y-134106563D01*
X138274704Y-134081145D01*
X138285990Y-134080500D01*
X157839563Y-134080500D01*
X157839563Y-134080499D01*
X157915989Y-134060021D01*
X157984511Y-134020460D01*
X158040460Y-133964511D01*
X158055475Y-133949496D01*
X158109992Y-133921719D01*
X158125479Y-133920500D01*
X158174770Y-133920500D01*
X158174772Y-133920500D01*
X158299069Y-133884004D01*
X158408049Y-133813967D01*
X158492882Y-133716063D01*
X158546697Y-133598226D01*
X158554074Y-133546913D01*
X158581069Y-133492009D01*
X158635183Y-133463455D01*
X158695745Y-133472162D01*
X158732158Y-133502813D01*
X158842373Y-133654507D01*
X158842375Y-133654509D01*
X158842378Y-133654513D01*
X158986018Y-133798149D01*
X159150360Y-133917545D01*
X159331357Y-134009762D01*
X159524551Y-134072528D01*
X159725186Y-134104298D01*
X159826754Y-134104294D01*
X159943311Y-134104294D01*
X159943363Y-134104296D01*
X159948948Y-134104295D01*
X159948953Y-134104297D01*
X159985714Y-134104295D01*
X159985811Y-134104326D01*
X160026754Y-134104324D01*
X160026754Y-134104325D01*
X160128318Y-134104321D01*
X160328945Y-134072537D01*
X160328949Y-134072535D01*
X160328953Y-134072535D01*
X160410623Y-134045995D01*
X160522130Y-134009760D01*
X160703117Y-133917536D01*
X160867448Y-133798135D01*
X161011078Y-133654497D01*
X161088267Y-133548249D01*
X161137765Y-133512284D01*
X161198951Y-133512282D01*
X161241932Y-133540194D01*
X161327765Y-133635521D01*
X161327771Y-133635527D01*
X161472402Y-133740609D01*
X161472412Y-133740615D01*
X161620547Y-133806568D01*
X161635733Y-133813329D01*
X161810609Y-133850500D01*
X161810612Y-133850500D01*
X161989388Y-133850500D01*
X161989391Y-133850500D01*
X162164267Y-133813329D01*
X162245930Y-133776970D01*
X162327587Y-133740615D01*
X162327589Y-133740613D01*
X162327593Y-133740612D01*
X162472230Y-133635526D01*
X162591859Y-133502665D01*
X162598948Y-133490385D01*
X162644416Y-133449445D01*
X162664093Y-133443050D01*
X162804267Y-133413256D01*
X162893363Y-133373588D01*
X162967587Y-133340542D01*
X162967589Y-133340540D01*
X162967593Y-133340539D01*
X163112230Y-133235453D01*
X163231859Y-133102592D01*
X163321250Y-132947762D01*
X163376497Y-132777730D01*
X163378605Y-132757665D01*
X163403492Y-132701772D01*
X163456480Y-132671179D01*
X163477063Y-132669016D01*
X163656762Y-132669016D01*
X163656765Y-132669016D01*
X163831641Y-132631845D01*
X163913304Y-132595486D01*
X163994961Y-132559131D01*
X163994963Y-132559129D01*
X163994967Y-132559128D01*
X164139604Y-132454042D01*
X164259233Y-132321181D01*
X164348624Y-132166351D01*
X164373277Y-132090477D01*
X164388213Y-132044511D01*
X164424177Y-131995011D01*
X164442100Y-131984663D01*
X164467593Y-131973313D01*
X164612230Y-131868227D01*
X164731859Y-131735366D01*
X164821250Y-131580536D01*
X164876497Y-131410504D01*
X164886659Y-131313815D01*
X164911544Y-131257923D01*
X164964532Y-131227330D01*
X165005700Y-131227330D01*
X165020609Y-131230500D01*
X165199388Y-131230500D01*
X165199391Y-131230500D01*
X165374267Y-131193329D01*
X165455930Y-131156970D01*
X165537587Y-131120615D01*
X165537589Y-131120613D01*
X165537593Y-131120612D01*
X165682230Y-131015526D01*
X165801859Y-130882665D01*
X165891250Y-130727835D01*
X165946497Y-130557803D01*
X165963797Y-130393198D01*
X165988684Y-130337304D01*
X166021991Y-130313106D01*
X166027593Y-130310612D01*
X166172230Y-130205526D01*
X166291859Y-130072665D01*
X166381250Y-129917835D01*
X166436497Y-129747803D01*
X166455185Y-129570000D01*
X166436497Y-129392197D01*
X166381250Y-129222165D01*
X166381247Y-129222160D01*
X166381245Y-129222155D01*
X166335322Y-129142615D01*
X166291859Y-129067335D01*
X166172230Y-128934474D01*
X166172228Y-128934472D01*
X166027597Y-128829390D01*
X166027587Y-128829384D01*
X165864273Y-128756673D01*
X165864268Y-128756671D01*
X165864267Y-128756671D01*
X165864264Y-128756670D01*
X165864256Y-128756668D01*
X165764583Y-128735481D01*
X165715163Y-128708649D01*
X165640171Y-128633657D01*
X165640168Y-128633654D01*
X165595115Y-128603551D01*
X165527080Y-128558090D01*
X165527069Y-128558084D01*
X165401412Y-128506036D01*
X165268010Y-128479500D01*
X165268008Y-128479500D01*
X159807801Y-128479500D01*
X159730000Y-128479500D01*
X159628469Y-128479500D01*
X159628463Y-128479500D01*
X159492400Y-128503492D01*
X159431810Y-128494977D01*
X159389473Y-128455496D01*
X159364260Y-128411826D01*
X159364253Y-128411817D01*
X159233738Y-128256275D01*
X159233737Y-128256274D01*
X159233732Y-128256268D01*
X159233724Y-128256261D01*
X159078184Y-128125747D01*
X159078181Y-128125745D01*
X158902326Y-128024214D01*
X158902324Y-128024213D01*
X158902322Y-128024212D01*
X158711507Y-127954761D01*
X158671511Y-127947708D01*
X158511535Y-127919500D01*
X158511531Y-127919500D01*
X158478008Y-127919500D01*
X158287801Y-127919500D01*
X158210000Y-127919500D01*
X158108469Y-127919500D01*
X158108464Y-127919500D01*
X157908493Y-127954761D01*
X157717673Y-128024214D01*
X157541818Y-128125745D01*
X157541815Y-128125747D01*
X157386275Y-128256261D01*
X157386261Y-128256275D01*
X157255747Y-128411815D01*
X157255743Y-128411822D01*
X157245246Y-128430002D01*
X157199779Y-128470941D01*
X157159512Y-128479500D01*
X155454587Y-128479500D01*
X155321184Y-128506036D01*
X155300121Y-128514761D01*
X155284380Y-128521281D01*
X155265755Y-128528996D01*
X155195525Y-128558086D01*
X155148964Y-128589197D01*
X155102405Y-128620307D01*
X155102404Y-128620308D01*
X155102403Y-128620307D01*
X155082432Y-128633651D01*
X154665580Y-129050504D01*
X154611063Y-129078281D01*
X154595576Y-129079500D01*
X123621677Y-129079500D01*
X123563486Y-129060593D01*
X123528233Y-129013198D01*
X123500686Y-128934474D01*
X123495789Y-128920478D01*
X123399816Y-128767738D01*
X123272262Y-128640184D01*
X123272259Y-128640182D01*
X123272258Y-128640181D01*
X123119523Y-128544211D01*
X122949261Y-128484633D01*
X122949257Y-128484632D01*
X122770000Y-128464435D01*
X122590742Y-128484632D01*
X122590738Y-128484633D01*
X122420477Y-128544211D01*
X122420476Y-128544211D01*
X122267741Y-128640181D01*
X122140181Y-128767741D01*
X122044211Y-128920476D01*
X122044211Y-128920477D01*
X121984633Y-129090738D01*
X121984632Y-129090742D01*
X121964435Y-129270001D01*
X121965526Y-129279684D01*
X121953251Y-129339626D01*
X121937152Y-129360769D01*
X121880185Y-129417736D01*
X121880181Y-129417741D01*
X121784211Y-129570476D01*
X121784211Y-129570477D01*
X121724633Y-129740738D01*
X121724632Y-129740742D01*
X121704435Y-129920000D01*
X121724632Y-130099257D01*
X121759567Y-130199095D01*
X121760939Y-130260265D01*
X121736126Y-130301795D01*
X121690185Y-130347736D01*
X121690181Y-130347741D01*
X121594211Y-130500476D01*
X121594211Y-130500477D01*
X121534633Y-130670738D01*
X121534632Y-130670742D01*
X121514435Y-130850000D01*
X121534632Y-131029257D01*
X121534633Y-131029261D01*
X121596047Y-131204770D01*
X121594817Y-131205200D01*
X121602201Y-131259685D01*
X121598236Y-131274708D01*
X121564632Y-131370742D01*
X121544435Y-131550000D01*
X121564632Y-131729257D01*
X121564633Y-131729261D01*
X121615613Y-131874950D01*
X121616986Y-131936120D01*
X121605995Y-131960319D01*
X121524211Y-132090476D01*
X121524211Y-132090477D01*
X121464633Y-132260738D01*
X121464632Y-132260742D01*
X121444435Y-132440000D01*
X121464632Y-132619257D01*
X121464633Y-132619262D01*
X121511405Y-132752927D01*
X121512778Y-132814097D01*
X121508956Y-132823946D01*
X121448229Y-132997492D01*
X121448228Y-132997496D01*
X121428031Y-133176754D01*
X120500000Y-133176754D01*
X120500000Y-125120002D01*
X121944867Y-125120002D01*
X121963302Y-125248225D01*
X122017117Y-125366061D01*
X122017118Y-125366063D01*
X122101950Y-125463966D01*
X122101952Y-125463968D01*
X122210926Y-125534001D01*
X122210931Y-125534004D01*
X122335228Y-125570500D01*
X122335230Y-125570500D01*
X122464770Y-125570500D01*
X122464772Y-125570500D01*
X122589069Y-125534004D01*
X122698049Y-125463967D01*
X122706105Y-125454670D01*
X122758500Y-125423073D01*
X122780925Y-125420500D01*
X127603947Y-125420500D01*
X127662138Y-125439407D01*
X127698102Y-125488907D01*
X127698102Y-125550093D01*
X127678768Y-125584328D01*
X127637657Y-125631774D01*
X127627117Y-125643938D01*
X127573302Y-125761774D01*
X127554867Y-125889997D01*
X127554867Y-125890002D01*
X127573302Y-126018225D01*
X127619039Y-126118373D01*
X127627118Y-126136063D01*
X127659991Y-126174001D01*
X127711952Y-126233968D01*
X127820926Y-126304001D01*
X127820931Y-126304004D01*
X127945228Y-126340500D01*
X127945230Y-126340500D01*
X128074770Y-126340500D01*
X128074772Y-126340500D01*
X128199069Y-126304004D01*
X128308049Y-126233967D01*
X128392882Y-126136063D01*
X128400961Y-126118373D01*
X128442333Y-126073296D01*
X128491014Y-126060500D01*
X128782405Y-126060500D01*
X128840596Y-126079407D01*
X128876560Y-126128907D01*
X128876560Y-126190093D01*
X128840596Y-126239593D01*
X128835928Y-126242784D01*
X128721952Y-126316031D01*
X128637117Y-126413938D01*
X128583302Y-126531774D01*
X128564867Y-126659997D01*
X128564867Y-126660002D01*
X128583302Y-126788225D01*
X128637117Y-126906061D01*
X128637118Y-126906063D01*
X128686517Y-126963073D01*
X128721952Y-127003968D01*
X128821500Y-127067943D01*
X128830931Y-127074004D01*
X128955228Y-127110500D01*
X128955230Y-127110500D01*
X129084770Y-127110500D01*
X129084772Y-127110500D01*
X129209069Y-127074004D01*
X129318049Y-127003967D01*
X129325238Y-126995670D01*
X129326105Y-126994670D01*
X129378500Y-126963073D01*
X129400925Y-126960500D01*
X129667941Y-126960500D01*
X129726132Y-126979407D01*
X129762096Y-127028907D01*
X129762096Y-127090093D01*
X129742761Y-127124330D01*
X129665118Y-127213936D01*
X129611302Y-127331774D01*
X129592867Y-127459997D01*
X129592867Y-127460002D01*
X129611302Y-127588225D01*
X129665117Y-127706061D01*
X129665118Y-127706063D01*
X129714517Y-127763073D01*
X129749952Y-127803968D01*
X129858926Y-127874001D01*
X129858931Y-127874004D01*
X129983228Y-127910500D01*
X129983230Y-127910500D01*
X130112770Y-127910500D01*
X130112772Y-127910500D01*
X130237069Y-127874004D01*
X130346049Y-127803967D01*
X130354105Y-127794670D01*
X130406500Y-127763073D01*
X130428925Y-127760500D01*
X149619075Y-127760500D01*
X149677266Y-127779407D01*
X149693895Y-127794670D01*
X149701951Y-127803967D01*
X149810931Y-127874004D01*
X149935228Y-127910500D01*
X149935230Y-127910500D01*
X150064770Y-127910500D01*
X150064772Y-127910500D01*
X150189069Y-127874004D01*
X150298049Y-127803967D01*
X150382882Y-127706063D01*
X150436697Y-127588226D01*
X150455133Y-127460000D01*
X150436697Y-127331774D01*
X150382882Y-127213937D01*
X150298049Y-127116033D01*
X150298048Y-127116032D01*
X150298047Y-127116031D01*
X150189073Y-127045998D01*
X150189070Y-127045996D01*
X150189069Y-127045996D01*
X150189066Y-127045995D01*
X150064774Y-127009500D01*
X150064772Y-127009500D01*
X149935228Y-127009500D01*
X149935225Y-127009500D01*
X149810933Y-127045995D01*
X149810926Y-127045998D01*
X149701951Y-127116032D01*
X149701950Y-127116033D01*
X149693895Y-127125330D01*
X149641500Y-127156927D01*
X149619075Y-127159500D01*
X148480059Y-127159500D01*
X148421868Y-127140593D01*
X148385904Y-127091093D01*
X148385904Y-127029907D01*
X148405239Y-126995670D01*
X148437704Y-126958200D01*
X148482882Y-126906063D01*
X148536697Y-126788226D01*
X148555133Y-126660000D01*
X148536697Y-126531774D01*
X148482882Y-126413937D01*
X148398049Y-126316033D01*
X148398048Y-126316032D01*
X148398047Y-126316031D01*
X148284072Y-126242784D01*
X148245340Y-126195418D01*
X148241847Y-126134332D01*
X148274927Y-126082860D01*
X148331943Y-126060661D01*
X148337595Y-126060500D01*
X155219075Y-126060500D01*
X155277266Y-126079407D01*
X155293895Y-126094670D01*
X155301950Y-126103966D01*
X155301951Y-126103967D01*
X155340758Y-126128907D01*
X155410931Y-126174004D01*
X155535228Y-126210500D01*
X155535230Y-126210500D01*
X155664770Y-126210500D01*
X155664772Y-126210500D01*
X155789069Y-126174004D01*
X155898049Y-126103967D01*
X155982882Y-126006063D01*
X156036697Y-125888226D01*
X156055133Y-125760000D01*
X156036697Y-125631774D01*
X155982882Y-125513937D01*
X155898049Y-125416033D01*
X155898048Y-125416032D01*
X155898047Y-125416031D01*
X155789073Y-125345998D01*
X155789070Y-125345996D01*
X155789069Y-125345996D01*
X155789066Y-125345995D01*
X155664774Y-125309500D01*
X155664772Y-125309500D01*
X155535228Y-125309500D01*
X155535225Y-125309500D01*
X155410933Y-125345995D01*
X155410926Y-125345998D01*
X155301951Y-125416032D01*
X155301950Y-125416033D01*
X155293895Y-125425330D01*
X155241500Y-125456927D01*
X155219075Y-125459500D01*
X154604258Y-125459500D01*
X154546067Y-125440593D01*
X154510103Y-125391093D01*
X154510103Y-125329907D01*
X154514205Y-125319373D01*
X154546697Y-125248225D01*
X154565133Y-125120002D01*
X154565133Y-125119997D01*
X154546697Y-124991774D01*
X154492882Y-124873938D01*
X154492882Y-124873937D01*
X154408049Y-124776033D01*
X154408048Y-124776032D01*
X154408047Y-124776031D01*
X154299073Y-124705998D01*
X154299070Y-124705996D01*
X154299069Y-124705996D01*
X154299066Y-124705995D01*
X154174774Y-124669500D01*
X154174772Y-124669500D01*
X154045228Y-124669500D01*
X154045225Y-124669500D01*
X153920933Y-124705995D01*
X153920926Y-124705998D01*
X153811951Y-124776032D01*
X153811950Y-124776033D01*
X153803895Y-124785330D01*
X153751500Y-124816927D01*
X153729075Y-124819500D01*
X122780925Y-124819500D01*
X122722734Y-124800593D01*
X122706105Y-124785330D01*
X122698049Y-124776033D01*
X122698048Y-124776032D01*
X122589073Y-124705998D01*
X122589070Y-124705996D01*
X122589069Y-124705996D01*
X122589066Y-124705995D01*
X122464774Y-124669500D01*
X122464772Y-124669500D01*
X122335228Y-124669500D01*
X122335225Y-124669500D01*
X122210933Y-124705995D01*
X122210926Y-124705998D01*
X122101952Y-124776031D01*
X122017117Y-124873938D01*
X121963302Y-124991774D01*
X121944867Y-125119997D01*
X121944867Y-125120002D01*
X120500000Y-125120002D01*
X120500000Y-123190002D01*
X143864867Y-123190002D01*
X143883302Y-123318225D01*
X143937117Y-123436061D01*
X143937118Y-123436063D01*
X144019567Y-123531216D01*
X144021952Y-123533968D01*
X144130926Y-123604001D01*
X144130931Y-123604004D01*
X144255228Y-123640500D01*
X144255230Y-123640500D01*
X144384770Y-123640500D01*
X144384772Y-123640500D01*
X144509069Y-123604004D01*
X144583495Y-123556173D01*
X144622330Y-123531216D01*
X144675853Y-123515500D01*
X156934147Y-123515500D01*
X156987670Y-123531216D01*
X157100926Y-123604001D01*
X157100931Y-123604004D01*
X157225228Y-123640500D01*
X157225230Y-123640500D01*
X157354770Y-123640500D01*
X157354772Y-123640500D01*
X157479069Y-123604004D01*
X157588049Y-123533967D01*
X157672882Y-123436063D01*
X157726697Y-123318226D01*
X157745133Y-123190000D01*
X157726697Y-123061774D01*
X157672882Y-122943937D01*
X157588049Y-122846033D01*
X157588048Y-122846032D01*
X157588047Y-122846031D01*
X157479073Y-122775998D01*
X157479070Y-122775996D01*
X157479069Y-122775996D01*
X157479066Y-122775995D01*
X157354774Y-122739500D01*
X157354772Y-122739500D01*
X157225228Y-122739500D01*
X157225225Y-122739500D01*
X157100933Y-122775995D01*
X157100926Y-122775998D01*
X156987670Y-122848784D01*
X156934147Y-122864500D01*
X144675853Y-122864500D01*
X144622330Y-122848784D01*
X144509073Y-122775998D01*
X144509070Y-122775996D01*
X144509069Y-122775996D01*
X144509066Y-122775995D01*
X144384774Y-122739500D01*
X144384772Y-122739500D01*
X144255228Y-122739500D01*
X144255225Y-122739500D01*
X144130933Y-122775995D01*
X144130926Y-122775998D01*
X144021952Y-122846031D01*
X143937117Y-122943938D01*
X143883302Y-123061774D01*
X143864867Y-123189997D01*
X143864867Y-123190002D01*
X120500000Y-123190002D01*
X120500000Y-117930002D01*
X138554867Y-117930002D01*
X138573302Y-118058225D01*
X138627117Y-118176061D01*
X138627118Y-118176063D01*
X138709567Y-118271216D01*
X138711952Y-118273968D01*
X138820926Y-118344001D01*
X138820931Y-118344004D01*
X138945228Y-118380500D01*
X138945230Y-118380500D01*
X139074770Y-118380500D01*
X139074772Y-118380500D01*
X139199069Y-118344004D01*
X139273495Y-118296173D01*
X139312330Y-118271216D01*
X139365853Y-118255500D01*
X151254147Y-118255500D01*
X151307670Y-118271216D01*
X151420926Y-118344001D01*
X151420931Y-118344004D01*
X151545228Y-118380500D01*
X151545230Y-118380500D01*
X151674770Y-118380500D01*
X151674772Y-118380500D01*
X151799069Y-118344004D01*
X151908049Y-118273967D01*
X151992882Y-118176063D01*
X152046697Y-118058226D01*
X152065133Y-117930000D01*
X152046697Y-117801774D01*
X151992882Y-117683937D01*
X151908049Y-117586033D01*
X151908048Y-117586032D01*
X151908047Y-117586031D01*
X151799073Y-117515998D01*
X151799070Y-117515996D01*
X151799069Y-117515996D01*
X151799066Y-117515995D01*
X151674774Y-117479500D01*
X151674772Y-117479500D01*
X151545228Y-117479500D01*
X151545225Y-117479500D01*
X151420933Y-117515995D01*
X151420926Y-117515998D01*
X151307670Y-117588784D01*
X151254147Y-117604500D01*
X139365853Y-117604500D01*
X139312330Y-117588784D01*
X139199073Y-117515998D01*
X139199070Y-117515996D01*
X139199069Y-117515996D01*
X139199066Y-117515995D01*
X139074774Y-117479500D01*
X139074772Y-117479500D01*
X138945228Y-117479500D01*
X138945225Y-117479500D01*
X138820933Y-117515995D01*
X138820926Y-117515998D01*
X138711952Y-117586031D01*
X138627117Y-117683938D01*
X138573302Y-117801774D01*
X138554867Y-117929997D01*
X138554867Y-117930002D01*
X120500000Y-117930002D01*
X120500000Y-116541008D01*
X120518907Y-116482817D01*
X120528996Y-116471004D01*
X122470953Y-114529046D01*
X122525468Y-114501271D01*
X122541076Y-114500052D01*
X169401128Y-114559809D01*
G37*
%TD.AperFunction*%
%TD*%
M02*
