M48
; DRILL file {KiCad 8.0.0} date 2024-03-06T21:04:31+0400
; FORMAT={-:-/ absolute / inch / decimal}
; #@! TF.CreationDate,2024-03-06T21:04:31+04:00
; #@! TF.GenerationSoftware,Kicad,Pcbnew,8.0.0
; #@! TF.FileFunction,Plated,1,2,PTH
FMAT,2
INCH
; #@! TA.AperFunction,Plated,PTH,ViaDrill
T1C0.0079
; #@! TA.AperFunction,Plated,PTH,ViaDrill
T2C0.0098
%
G90
G05
T1
X4.8123Y-5.2432
X4.813Y-5.2142
X4.8157Y-5.1516
X4.8169Y-5.1791
X4.8232Y-5.115
X4.8335Y-5.0894
T2
X4.7772Y-5.061
X4.7772Y-5.1004
X4.7772Y-5.1398
X4.7772Y-5.1791
X4.7772Y-5.2185
X4.7772Y-5.2579
X4.811Y-5.3516
X4.8189Y-4.926
X4.8429Y-5.0
X4.8441Y-5.3236
X4.9354Y-5.0
X4.9354Y-5.0394
X4.9354Y-5.0787
X4.9354Y-5.2559
X4.9354Y-5.2953
X5.0004Y-5.0
X5.0201Y-5.2953
X5.0398Y-4.9563
X5.0398Y-5.0787
X5.07Y-5.2937
X5.0795Y-4.9866
X5.11Y-5.2669
X5.12Y-5.0181
X5.1398Y-5.0563
X5.1791Y-5.0563
X5.2185Y-5.0563
X5.2575Y-5.0563
X5.2969Y-5.0563
X5.3362Y-5.0563
X5.3756Y-5.0563
X5.4256Y-5.2937
X5.4724Y-5.2953
X5.4728Y-4.6429
X5.489Y-5.0567
X5.5118Y-5.2953
X5.5283Y-5.0567
X5.5512Y-5.2953
X5.5677Y-5.0567
X5.5906Y-5.2953
X5.6071Y-5.0567
X5.6299Y-5.2953
X5.6465Y-5.0567
X5.6693Y-5.2953
X5.6819Y-4.85
X5.6858Y-5.0567
X5.7087Y-5.2953
X5.7252Y-5.0567
X5.7441Y-4.7323
X5.748Y-5.2953
X5.7646Y-5.0567
X5.7717Y-4.685
X5.7717Y-4.7835
X5.7874Y-5.2953
X5.7913Y-4.685
X5.7913Y-4.7835
X5.8039Y-5.0567
X5.8268Y-5.2953
X5.8307Y-4.9866
X5.8661Y-5.2953
X5.9055Y-5.0181
X5.9055Y-5.2953
X5.9094Y-5.3516
X5.9689Y-4.6429
X5.976Y-5.3232
X6.0039Y-5.0717
X6.0079Y-4.685
X6.0126Y-5.2894
X6.065Y-5.0713
X6.0673Y-4.926
X6.0685Y-5.289
X6.1016Y-5.0539
X6.126Y-4.9512
X6.1402Y-5.0476
X6.1476Y-5.289
X6.1811Y-4.7835
X6.185Y-4.685
X6.1886Y-5.0425
X6.1925Y-4.85
X6.2126Y-5.2902
X6.2248Y-5.2547
X6.2441Y-4.6776
X6.2618Y-5.0303
X6.278Y-5.2894
X6.3024Y-5.0402
X6.3031Y-4.6776
X6.3031Y-4.7917
X6.3417Y-5.0402
X6.3453Y-5.2705
X6.3469Y-4.7933
X6.3469Y-4.8327
X6.3469Y-4.872
X6.3469Y-4.9114
X6.3469Y-4.9508
X6.3469Y-4.9902
X6.3622Y-4.6776
X6.374Y-5.2362
X6.3972Y-5.2709
X6.3992Y-5.2205
X6.4213Y-4.6776
X6.4397Y-5.1897
X6.4402Y-5.2339
X6.4583Y-5.1666
X6.4803Y-4.6776
X6.4823Y-5.2043
X6.5004Y-5.1331
X6.5197Y-5.1012
X6.5244Y-5.1693
X6.5394Y-4.6776
X6.5547Y-4.7819
X6.5551Y-4.8185
X6.5551Y-4.8579
X6.5551Y-4.8972
X6.5551Y-4.9366
X6.5551Y-4.976
X6.5551Y-5.0114
X6.5551Y-5.0508
X6.5551Y-5.0787
X6.5579Y-5.1217
X6.5669Y-4.7323
M30
